<svg width="260" height="173" viewBox="0 0 260 173" fill="none" xmlns="http://www.w3.org/2000/svg">
<g clip-path="url(#clip0_706_29069)">
<path d="M0 0H260V173H0V0Z" fill="white"/>
<path d="M113.13 63.8214L117.814 46.3749C121.262 33.5285 134.494 25.9038 147.366 29.3459C160.237 32.7881 167.876 45.9946 164.427 58.841L159.744 76.2875" stroke="#0071EB" stroke-width="9.41149" stroke-linecap="round" stroke-linejoin="round"/>
<path fill-rule="evenodd" clip-rule="evenodd" d="M151.817 150.43L82.8513 131.986C75.2304 129.948 70.7119 122.136 72.7537 114.53L85.6893 66.347C87.7315 58.7408 95.5578 54.231 103.179 56.2689L172.145 74.713C179.765 76.7509 184.284 84.5622 182.242 92.1684L169.306 140.352C167.265 147.958 159.438 152.468 151.817 150.43Z" fill="#0071EB" stroke="#0071EB" stroke-width="7.00938" stroke-linecap="round" stroke-linejoin="round"/>
<path d="M122.61 119.744L127.245 102.48L122.61 119.744ZM129.987 92.1909C127.178 91.4398 124.288 93.1052 123.556 95.9136C122.803 98.7165 124.472 101.601 127.28 102.352C130.089 103.103 132.979 101.438 133.731 98.6346C134.484 95.8317 132.815 92.9472 129.987 92.1909Z" stroke="white" stroke-width="6.63" stroke-linecap="round" stroke-linejoin="round"/>
<path d="M106.311 49.5929C106.311 31.917 91.9543 17.5879 74.2444 17.5879C56.5345 17.5879 42.1777 31.917 42.1777 49.5929C42.1777 67.2688 56.5345 81.5979 74.2444 81.5979C91.9543 81.5979 106.311 67.2688 106.311 49.5929Z" fill="#03111E"/>
<path d="M72.0814 61.5527H77.4094L76.8943 53.9024L83.3117 58.1922L85.966 53.5267L79.0731 50.1662L85.966 46.8053L83.3117 42.1398L76.8943 46.4296L77.4094 38.7793H72.0814L72.5766 46.4296L66.1592 42.1398L63.5049 46.8053L70.4174 50.1662L63.5049 53.5267L66.1592 58.1922L72.5766 53.9024L72.0814 61.5527Z" fill="white"/>
<path d="M217.533 82.7515C217.533 69.8529 207.056 59.3965 194.133 59.3965C181.209 59.3965 170.733 69.8529 170.733 82.7515C170.733 95.6501 181.209 106.106 194.133 106.106C207.056 106.106 217.533 95.6501 217.533 82.7515Z" fill="#03111E"/>
<path d="M192.555 91.6343H196.443L196.067 86.0513L200.75 89.1817L202.687 85.7774L197.657 83.3248L202.687 80.8725L200.75 77.4679L196.067 80.5983L196.443 75.0156H192.555L192.916 80.5983L188.233 77.4679L186.296 80.8725L191.34 83.3248L186.296 85.7774L188.233 89.1817L192.916 86.0513L192.555 91.6343Z" fill="white"/>
<path d="M102.267 134.364C102.267 122.102 92.3075 112.162 80.0223 112.162C67.737 112.162 57.7778 122.102 57.7778 134.364C57.7778 146.625 67.737 156.565 80.0223 156.565C92.3075 156.565 102.267 146.625 102.267 134.364Z" fill="#03111E"/>
<path d="M78.5219 142.739H82.2179L81.8609 137.432L86.3126 140.408L88.1537 137.172L83.3723 134.84L88.1537 132.509L86.3126 129.273L81.8609 132.248L82.2179 126.941H78.5219L78.8654 132.248L74.4139 129.273L72.5725 132.509L77.3678 134.84L72.5725 137.172L74.4139 140.408L78.8654 137.432L78.5219 142.739Z" fill="white"/>
</g>
<defs>
<clipPath id="clip0_706_29069">
<rect width="260" height="173" fill="white"/>
</clipPath>
</defs>
</svg>
