<svg width="260" height="173" viewBox="0 0 260 173" fill="none" xmlns="http://www.w3.org/2000/svg">
<g clip-path="url(#clip0_706_29110)">
<path d="M0 0H260V173H0V0Z" fill="white"/>
<path opacity="0.1" d="M218.77 110.607H201.59C197.38 110.607 193.853 107.743 193.853 104.115C193.853 102.301 194.763 100.678 196.129 99.532C197.494 98.3865 199.428 97.6227 201.59 97.6227H204.093C206.255 97.6227 208.189 96.8589 209.554 95.7131C210.92 94.5672 211.83 92.9442 211.83 91.1303C211.83 87.5976 208.416 84.6379 204.093 84.6379H151.624C150.251 84.6379 149.367 82.9535 149.367 81.5824C149.367 78.1455 146.068 75.3766 141.972 75.3766H122.448C121.953 75.3766 121.479 75.1805 121.129 74.8313C120.779 74.4822 120.583 74.0086 120.583 73.5149C120.583 73.0211 120.779 72.5475 121.129 72.1984C121.479 71.8492 121.953 71.6531 122.448 71.6531H197.266C200.566 71.6531 203.638 70.5073 205.8 68.6934C207.961 66.8792 209.327 64.3015 209.327 61.5326C209.327 55.8994 203.865 51.4121 197.266 51.4121H158.627C152.561 51.4121 146.559 46.7336 140.493 46.7336H118.927C115.757 46.7336 113.187 44.1689 113.187 41.005C113.187 37.8411 115.757 35.2764 118.927 35.2764H167.23C169.506 35.2764 171.667 34.5126 173.146 33.2716C174.626 32.0303 175.536 30.3116 175.536 28.3065C175.536 24.4875 171.781 21.3369 167.23 21.3369H55.8451C53.5699 21.3369 51.4081 22.101 49.929 23.342C48.4499 24.5833 47.5396 26.3017 47.5396 28.3068C47.5396 32.1258 51.2943 35.2764 55.8451 35.2764H58.6895C62.4442 35.2764 65.6298 37.8544 65.6298 41.1004C65.6298 42.7237 64.8333 44.1559 63.5819 45.206C62.3304 46.2564 60.6236 46.9245 58.6895 46.9245H44.9228C42.5337 46.9245 40.2581 47.784 38.6652 49.1204C37.0726 50.4571 36.0484 52.2713 36.0484 54.3718C36.0484 58.4771 40.0305 61.7235 44.809 61.7235H58.8034C63.3542 61.7235 67.1089 64.8741 67.1089 68.6934C67.1089 70.6027 66.1986 72.3214 64.7195 73.5624C63.2404 74.8037 61.1925 75.5675 58.9172 75.5675H46.4019C44.354 75.5675 42.5337 76.2359 41.1684 77.3817C39.8031 78.5272 39.0067 80.0548 39.0067 81.7736C39.0067 85.2105 42.3061 87.9794 46.4019 87.9794H56.5278C62.3304 87.9794 66.9951 91.8941 66.9951 96.7632C66.9951 99.1503 65.8574 101.442 63.923 102.969C61.9889 104.592 59.3722 105.547 56.5278 105.547H42.4199C39.5755 105.547 36.9587 106.502 35.1385 108.125C33.2041 109.653 32.0664 111.848 32.0664 114.236C32.0664 119.009 36.7311 122.924 42.4199 122.924H85.9809C90.7926 122.924 95.5188 125.597 100.331 125.597H108.256C111.294 125.597 113.756 128.055 113.756 131.087C113.756 134.119 111.294 136.577 108.256 136.577H88.9535C86.4503 136.577 84.2889 137.436 82.6959 138.773C81.103 140.11 80.0792 142.019 80.0792 144.024C80.0792 148.13 84.0612 151.471 88.9535 151.471H207.279C209.782 151.471 211.943 150.612 213.536 149.275C215.129 147.939 216.153 146.029 216.153 144.024C216.153 139.919 212.171 136.577 207.279 136.577H203.752C200.111 136.577 197.266 134.095 197.266 131.135C197.266 129.607 197.949 128.271 199.201 127.316C200.338 126.361 202.045 125.693 203.865 125.693H218.77C221.273 125.693 223.434 124.833 225.027 123.497C226.62 122.16 227.644 120.251 227.644 118.245C227.644 113.949 223.662 110.607 218.77 110.607Z" fill="#0071EB"/>
<path d="M104.864 75.9932V57.9311C104.864 44.6314 115.668 33.8486 128.993 33.8486C142.318 33.8486 153.122 44.6314 153.122 57.9311V75.9932" stroke="#0071EB" stroke-width="9.42962" stroke-linecap="round" stroke-linejoin="round"/>
<path fill-rule="evenodd" clip-rule="evenodd" d="M164.692 149.657H93.2933C85.4034 149.657 79.0132 143.279 79.0132 135.405V85.5218C79.0132 77.6475 85.4034 71.2695 93.2933 71.2695H164.692C172.582 71.2695 178.972 77.6475 178.972 85.5218V135.405C178.972 143.279 172.582 149.657 164.692 149.657Z" fill="#0071EB" stroke="#0071EB" stroke-width="7.02289" stroke-linecap="round" stroke-linejoin="round"/>
<path d="M128.503 99.042C125.596 99.042 123.236 101.397 123.257 104.299C123.257 107.201 125.617 109.556 128.524 109.556C131.431 109.556 133.791 107.201 133.791 104.299C133.791 101.397 131.431 99.042 128.503 99.042M128.523 127.562V109.688V127.562Z" stroke="white" stroke-width="6.65" stroke-linecap="round" stroke-linejoin="round"/>
<path fill-rule="evenodd" clip-rule="evenodd" d="M216.823 58.5828C216.823 79.9045 200.742 99.8413 179.128 104.682C157.515 99.8413 141.434 79.9045 141.434 58.5828V41.8344C141.434 39.9689 141.991 38.1458 143.035 36.5978C144.078 35.0498 145.559 33.8472 147.291 33.1435L170.85 23.5365C176.156 21.3719 182.101 21.3719 187.407 23.5365L210.966 33.1435C214.509 34.5895 216.823 38.0218 216.823 41.8344V58.5828Z" fill="#03111E"/>
<path d="M193.845 53.0186L176.58 70.0983L166.201 59.8544" stroke="white" stroke-width="8.08889" stroke-linecap="round" stroke-linejoin="round"/>
</g>
<defs>
<clipPath id="clip0_706_29110">
<rect width="260" height="173" fill="white"/>
</clipPath>
</defs>
</svg>
