<svg width="173" height="116" viewBox="0 0 173 116" fill="none" xmlns="http://www.w3.org/2000/svg">
<g clip-path="url(#clip0_255_10489)">
<path d="M134.489 35.9709C133.109 38.4342 130.086 38.7727 125.243 38.3047C121.6 37.952 118.279 37.679 114.636 35.693C112.086 34.3038 110.068 32.4244 108.595 30.5991C106.999 28.6215 104.771 26.3648 105.863 24.1227C107.364 21.0427 116.044 18.4487 124.473 22.6907C133.732 27.352 135.84 33.5631 134.489 35.9709Z" fill="url(#paint0_linear_255_10489)"/>
<path d="M148.683 49.1252C145.592 50.6585 141.49 48.6871 141.49 48.6871C141.49 48.6871 142.401 44.2306 145.494 42.6994C148.585 41.1662 152.686 43.1355 152.686 43.1355C152.686 43.1355 151.774 47.592 148.683 49.1252Z" fill="url(#paint1_linear_255_10489)"/>
<path d="M24.6813 68.4865C28.1104 70.5417 33.0301 68.6418 33.0301 68.6418C33.0301 68.6418 32.3867 63.4107 28.9556 61.3577C25.5265 59.3027 20.6089 61.2001 20.6089 61.2001C20.6089 61.2001 21.2523 66.4313 24.6813 68.4865Z" fill="url(#paint2_linear_255_10489)"/>
<path d="M132.923 41.1776C131.372 41.1776 130.114 42.4356 130.114 43.9873C130.114 45.5391 131.372 46.797 132.923 46.797C134.475 46.797 135.733 45.5391 135.733 43.9873C135.733 42.4356 134.475 41.1776 132.923 41.1776Z" fill="#0071EB"/>
<path d="M114.223 78.6043C111.788 78.6043 109.813 80.5787 109.813 83.0143C109.813 85.4498 111.788 87.4243 114.223 87.4243C116.659 87.4243 118.633 85.4498 118.633 83.0143C118.633 80.5787 116.659 78.6043 114.223 78.6043Z" fill="#0071EB"/>
<path d="M61.6743 32.1019C60.3969 32.1019 59.3613 33.1374 59.3613 34.4149C59.3613 35.6923 60.3969 36.7279 61.6743 36.7279C62.9517 36.7279 63.9873 35.6923 63.9873 34.4149C63.9873 33.1374 62.9517 32.1019 61.6743 32.1019Z" fill="#0071EB"/>
<path d="M41.1616 78.4185C39.7069 78.4185 38.5276 77.2392 38.5276 75.7845C38.5276 74.3297 39.7069 73.1504 41.1616 73.1504C42.6164 73.1504 43.7957 74.3297 43.7957 75.7845C43.7957 77.2392 42.6164 78.4185 41.1616 78.4185Z" fill="#0071EB"/>
<path d="M141.244 60.1381C140.565 60.1381 140.015 59.5877 140.015 58.9088C140.015 58.2299 140.565 57.6796 141.244 57.6796C141.923 57.6796 142.474 58.2299 142.474 58.9088C142.474 59.5877 141.923 60.1381 141.244 60.1381Z" fill="#0071EB"/>
<path d="M147.99 96.1138C147.117 96.1138 146.409 95.4062 146.409 94.5333C146.409 93.6605 147.117 92.9529 147.99 92.9529C148.862 92.9529 149.57 93.6605 149.57 94.5333C149.57 95.4062 148.862 96.1138 147.99 96.1138Z" fill="#E1E4E5"/>
<path d="M32.1466 83.492C30.8858 83.492 29.8638 82.4699 29.8638 81.2091C29.8638 79.9484 30.8858 78.9263 32.1466 78.9263C33.4074 78.9263 34.4294 79.9484 34.4294 81.2091C34.4294 82.4699 33.4074 83.492 32.1466 83.492Z" fill="#E1E4E5"/>
<path d="M147.734 81.5759C146.774 81.5759 145.996 80.798 145.996 79.8384C145.996 78.8789 146.774 78.101 147.734 78.101C148.693 78.101 149.471 78.8789 149.471 79.8384C149.471 80.798 148.693 81.5759 147.734 81.5759Z" fill="#E1E4E5"/>
<path d="M134.07 26.942C133.003 26.942 132.138 26.0772 132.138 25.0104C132.138 23.9436 133.003 23.0788 134.07 23.0788C135.137 23.0788 136.002 23.9436 136.002 25.0104C136.002 26.0772 135.137 26.942 134.07 26.942Z" fill="#E1E4E5"/>
<path d="M32.6327 51.3108C32.8807 52.2362 32.3315 53.1873 31.4062 53.4353C30.4808 53.6832 29.5297 53.1341 29.2817 52.2087C29.0338 51.2833 29.5829 50.3322 30.5083 50.0842C31.4336 49.8363 32.3848 50.3854 32.6327 51.3108Z" fill="#E1E4E5"/>
<path d="M67.0959 18.0752C66.6971 18.0752 66.3739 17.752 66.3739 17.3532C66.3739 16.9545 66.6971 16.6312 67.0959 16.6312C67.4946 16.6312 67.8179 16.9545 67.8179 17.3532C67.8179 17.752 67.4946 18.0752 67.0959 18.0752Z" fill="#E1E4E5"/>
<path d="M136.839 72.6901C135.859 72.6901 135.064 72.0543 135.064 71.27C135.064 70.4856 135.859 69.8498 136.839 69.8498C137.819 69.8498 138.614 70.4856 138.614 71.27C138.614 72.0543 137.819 72.6901 136.839 72.6901Z" fill="#E1E4E5"/>
<path d="M99.035 17.6376C99.2145 18.3075 98.8169 18.9961 98.147 19.1756C97.4771 19.3551 96.7885 18.9575 96.609 18.2876C96.4295 17.6177 96.827 16.9291 97.4969 16.7496C98.1669 16.5701 98.8554 16.9676 99.035 17.6376Z" fill="#E1E4E5"/>
<path d="M45.6176 29.2139H45.6429C45.7927 31.3355 47.3704 31.3682 47.3704 31.3682C47.3704 31.3682 45.6306 31.4022 45.6306 33.8536C45.6306 31.4022 43.8906 31.3682 43.8906 31.3682C43.8906 31.3682 45.4678 31.3355 45.6176 29.2139ZM44.5173 91.5089H44.5417C44.6853 93.6242 46.2002 93.6568 46.2002 93.6568C46.2002 93.6568 44.5298 93.6907 44.5298 96.1348C44.5298 93.6907 42.8594 93.6568 42.8594 93.6568C42.8594 93.6568 44.3735 93.6242 44.5173 91.5089Z" fill="#E1E4E5"/>
<path d="M122.007 50.7725V46.2512C122.007 41.2552 117.96 37.2085 112.964 37.2085H92.7766C92.0324 37.2086 91.2997 37.025 90.6435 36.674C89.9873 36.3231 89.4278 35.8155 89.0148 35.1965L82.6578 25.6609C82.2454 25.041 81.6862 24.5326 81.03 24.1808C80.3738 23.829 79.6408 23.6448 78.8962 23.6445H58.7085C53.7124 23.6445 49.6658 27.6912 49.6658 32.6872V90.7997C49.6658 93.6663 51.9853 95.9856 54.8517 95.9856C57.1396 95.9856 59.1606 94.4846 59.8163 92.2917L70.3374 57.2198C71.4857 53.3903 75.0078 50.7725 79 50.7725H123.494C129.53 50.7725 133.871 56.5687 132.171 62.3606L124.209 89.4885C123.079 93.3407 119.547 95.9856 115.532 95.9856H54.8517" stroke="#E1E4E5" stroke-width="0.768889" stroke-linecap="round" stroke-linejoin="round"/>
<path fill-rule="evenodd" clip-rule="evenodd" d="M60.6354 42.4503L55.8004 37.6369C55.1581 36.9981 54.289 36.6396 53.3831 36.6396H41.1214C39.2322 36.6396 37.7021 38.1628 37.7021 40.0437V63.8723C37.7021 65.753 39.2322 67.2764 41.1214 67.2764H58.2178C60.107 67.2764 61.6373 65.753 61.6373 63.8723V44.857C61.6373 43.955 61.2765 43.0887 60.6354 42.4503Z" fill="white" stroke="#E1E4E5" stroke-width="0.768889"/>
<path d="M53.6138 43.8203H45.0878C42.5071 43.8203 40.415 45.9124 40.415 48.493V57.0191C40.415 59.5997 42.5071 61.6918 45.0878 61.6918H53.6138C56.1945 61.6918 58.2865 59.5997 58.2865 57.0191V48.493C58.2865 45.9124 56.1945 43.8203 53.6138 43.8203Z" fill="#0071EB" stroke="white" stroke-width="2.33646" stroke-linecap="round" stroke-linejoin="round"/>
<path d="M58.2863 50.8796C56.9291 50.6717 55.5429 50.761 54.2236 51.1412C52.9043 51.5214 51.6832 52.1835 50.6448 53.0817C49.6063 53.9799 48.7753 55.0929 48.209 56.3437C47.6427 57.5945 47.3548 58.9534 47.365 60.3263C47.3678 60.7834 47.4044 61.2398 47.4741 61.6917M46.475 49.1828C46.545 49.2521 46.5928 49.3406 46.6124 49.4371C46.632 49.5336 46.6224 49.6337 46.585 49.7248C46.5476 49.8158 46.4839 49.8937 46.4021 49.9485C46.3203 50.0033 46.2241 50.0326 46.1256 50.0326C46.0271 50.0326 45.9309 50.0033 45.8491 49.9485C45.7673 49.8937 45.7037 49.8158 45.6662 49.7248C45.6288 49.6337 45.6192 49.5336 45.6388 49.4371C45.6584 49.3406 45.7063 49.2521 45.7762 49.1828C45.8696 49.0901 45.9959 49.0381 46.1274 49.0381C46.259 49.0381 46.3853 49.0901 46.4786 49.1828H46.475Z" stroke="white" stroke-width="2.33646" stroke-linecap="round" stroke-linejoin="round"/>
<path fill-rule="evenodd" clip-rule="evenodd" d="M92.2477 20.2851L87.6629 15.7206C87.0537 15.1148 86.2295 14.7748 85.3704 14.7749H73.7429C71.9514 14.7749 70.5005 16.2194 70.5005 18.0029V40.5994C70.5005 42.383 71.9514 43.8275 73.7429 43.8275H89.9553C91.7468 43.8275 93.1979 42.383 93.1979 40.5994V22.5674C93.1979 21.712 92.8557 20.8904 92.2477 20.2851Z" fill="white" stroke="#E1E4E5" stroke-width="0.768889"/>
<path fill-rule="evenodd" clip-rule="evenodd" d="M86.3197 31.7444L80.4081 35.0898C78.9526 35.9125 77.1519 34.8551 77.1519 33.1757V26.4861C77.1519 24.8053 78.9495 23.7493 80.4081 24.572L86.3197 27.9174C87.8046 28.7549 87.8046 30.904 86.3197 31.7444Z" fill="#0071EB"/>
<path fill-rule="evenodd" clip-rule="evenodd" d="M123.869 23.1828L119.619 18.9516C119.054 18.3901 118.29 18.075 117.494 18.0751H106.716C105.055 18.0751 103.71 19.4139 103.71 21.0672V42.0131C103.71 43.6664 105.055 45.0054 106.716 45.0054H121.744C123.405 45.0054 124.75 43.6664 124.75 42.0131V25.2982C124.75 24.5053 124.433 23.7437 123.869 23.1828Z" fill="white" stroke="#E1E4E5" stroke-width="0.768889"/>
<path d="M120.518 27.9479H113.934H120.518ZM120.518 31.9396H113.934H120.518ZM120.518 35.9311H113.934H120.518ZM109.603 27.782C109.557 27.782 109.513 27.8003 109.48 27.8328C109.448 27.8653 109.43 27.9094 109.43 27.9553C109.43 28.0013 109.448 28.0454 109.48 28.0778C109.513 28.1103 109.557 28.1286 109.603 28.1286C109.649 28.1286 109.693 28.1103 109.726 28.0778C109.758 28.0454 109.776 28.0013 109.776 27.9553C109.776 27.9094 109.758 27.8653 109.726 27.8328C109.693 27.8003 109.649 27.782 109.603 27.782ZM109.603 31.7664C109.58 31.7664 109.558 31.7709 109.537 31.7796C109.516 31.7882 109.497 31.801 109.481 31.817C109.464 31.8331 109.452 31.8522 109.443 31.8732C109.434 31.8942 109.43 31.9167 109.43 31.9394C109.43 31.9621 109.434 31.9847 109.443 32.0057C109.452 32.0267 109.464 32.0458 109.48 32.0618C109.496 32.0779 109.516 32.0907 109.537 32.0994C109.558 32.1081 109.58 32.1126 109.603 32.1126C109.649 32.1126 109.693 32.0944 109.725 32.062C109.758 32.0295 109.776 31.9855 109.776 31.9396C109.776 31.8937 109.758 31.8497 109.725 31.8172C109.693 31.7847 109.649 31.7664 109.603 31.7664V31.7664ZM109.603 35.7512C109.557 35.7512 109.513 35.7694 109.481 35.8019C109.448 35.8344 109.43 35.8784 109.43 35.9244C109.43 35.9703 109.448 36.0144 109.481 36.0468C109.513 36.0793 109.557 36.0976 109.603 36.0976C109.649 36.0976 109.693 36.0793 109.725 36.0468C109.758 36.0144 109.776 35.9703 109.776 35.9244C109.776 35.8784 109.758 35.8344 109.725 35.8019C109.693 35.7694 109.649 35.7512 109.603 35.7512Z" stroke="#0071EB" stroke-width="1.81266" stroke-linecap="round" stroke-linejoin="round"/>
<path fill-rule="evenodd" clip-rule="evenodd" d="M93.6424 70.6299C86.4692 71.5808 80.9255 77.4897 80.9255 84.715C80.9255 92.6001 87.5105 98.9944 95.6305 98.9944H127.982C134.478 98.9944 139.746 93.8796 139.746 87.5708C139.746 81.2623 134.478 76.1474 127.982 76.1474C127.982 66.683 120.082 59.0122 110.336 59.0122C102.58 59.0122 96.01 63.8758 93.6424 70.6299Z" fill="#0071EB"/>
<path d="M109.662 89.3832V74.3899M102.646 80.7332L109.662 73.621L116.678 80.7332H102.646Z" stroke="white" stroke-width="3.07556" stroke-linecap="round" stroke-linejoin="round"/>
</g>
<defs>
<linearGradient id="paint0_linear_255_10489" x1="125.19" y1="51.9365" x2="112.887" y2="-3.34892" gradientUnits="userSpaceOnUse">
<stop stop-color="white"/>
<stop offset="1" stop-color="#EEEEEE"/>
</linearGradient>
<linearGradient id="paint1_linear_255_10489" x1="136.814" y1="53.9078" x2="162.308" y2="33.7422" gradientUnits="userSpaceOnUse">
<stop stop-color="white"/>
<stop offset="1" stop-color="#EEEEEE"/>
</linearGradient>
<linearGradient id="paint2_linear_255_10489" x1="37.951" y1="75.102" x2="10.3594" y2="49.4659" gradientUnits="userSpaceOnUse">
<stop stop-color="white"/>
<stop offset="1" stop-color="#EEEEEE"/>
</linearGradient>
<clipPath id="clip0_255_10489">
<rect width="173" height="115.333" fill="white"/>
</clipPath>
</defs>
</svg>
