<svg width="360" height="240" viewBox="0 0 360 240" fill="none" xmlns="http://www.w3.org/2000/svg">
<g clip-path="url(#clip0_35_14156)">
<path d="M0 0H360V240H0V0Z" fill="white"/>
<path d="M260.811 141.949C262.083 165.388 216.257 213.049 159.774 195.408C133.505 187.203 135.73 173.584 115.754 155.635C103.848 144.937 86.7408 136.848 81.9828 121.298C77.8724 107.877 80.3928 93.4501 87.5192 84.0665C103.546 62.9637 135.9 48.5133 167.779 81.7625C199.658 115.012 257.523 81.4973 260.811 141.949Z" fill="url(#paint0_linear_35_14156)"/>
<path d="M232.522 74.5492C228.726 81.3236 220.413 82.2544 207.095 80.9668C197.079 79.9968 187.945 79.2464 177.927 73.7848C170.916 69.9648 165.366 64.7968 161.315 59.7772C156.926 54.3392 150.799 48.1332 153.803 41.9676C157.93 33.498 181.8 26.3648 204.977 38.03C230.439 50.848 236.235 67.928 232.522 74.5492Z" fill="url(#paint1_linear_35_14156)"/>
<path fill-rule="evenodd" clip-rule="evenodd" d="M207.52 183.085H147.575C139.995 183.085 133.696 177.236 133.131 169.67L126.637 81.7283H228.241L221.963 169.634C221.421 177.214 215.115 183.085 207.52 183.085Z" fill="#03111E" stroke="#03111E" stroke-width="9.7616" stroke-linecap="round" stroke-linejoin="round"/>
<path d="M177.562 110.688V154.127" stroke="white" stroke-width="9.7616" stroke-linecap="round" stroke-linejoin="round"/>
<path d="M213.761 81.7286L206.427 62.1666C205.392 59.406 203.539 57.0271 201.116 55.3479C198.693 53.6686 195.815 52.769 192.867 52.7694H162.257C159.309 52.769 156.431 53.6686 154.008 55.3479C151.585 57.0271 149.732 59.406 148.697 62.1666L141.363 81.7286M119.644 81.7286H235.48H119.644Z" stroke="#03111E" stroke-width="9.7616" stroke-linecap="round" stroke-linejoin="round"/>
<path d="M152.729 110.688L155.842 154.127M202.395 110.688L199.282 154.127L202.395 110.688Z" stroke="white" stroke-width="9.7616" stroke-linecap="round" stroke-linejoin="round"/>
<path d="M238.883 178.3C238.644 177.576 238.144 176.994 237.764 176.352C234.942 171.523 232.524 166.507 230.673 161.216C229.546 157.999 228.434 154.774 227.68 151.446C227.016 148.52 226.441 145.579 226.143 142.586C225.986 141.034 225.836 139.489 225.784 137.929C225.754 137.093 225.613 136.257 225.68 135.421C225.807 133.898 225.762 132.361 226.165 130.868C226.24 130.592 226.314 130.308 226.426 130.047C227.061 128.517 228.486 128.211 229.695 129.323C230.278 129.861 230.696 130.518 231.084 131.197C232.882 134.339 234.375 137.63 235.696 140.996C237.726 146.161 239.555 151.401 241.256 156.678C241.562 157.633 241.861 158.596 242.294 159.544C242.294 159.029 242.369 158.499 242.279 157.999C242.137 157.275 242.182 156.558 242.137 155.842C241.861 151.393 241.898 146.938 242.01 142.482C242.055 140.705 242.219 138.914 242.428 137.138C242.57 135.936 242.675 134.727 242.839 133.533C243.324 130.077 243.802 126.614 245.093 123.337C245.347 122.688 245.682 122.076 246.175 121.576C247.168 120.554 248.399 120.628 249.302 121.748C250.176 122.83 250.601 124.128 250.974 125.435C251.437 127.077 251.676 128.756 251.893 130.45C252.258 133.316 252.34 136.197 252.445 139.086C252.512 141.049 252.586 143.019 252.527 144.982C252.46 147.176 252.467 149.378 252.348 151.572C252.228 153.767 252.154 155.954 252.042 158.148C252.042 158.208 252.057 158.26 252.079 158.394C252.377 157.909 252.415 157.409 252.527 156.946C253.908 151.117 255.676 145.408 258.012 139.892C259.46 136.481 261.065 133.145 263.282 130.144C264.178 128.928 265.133 127.763 266.454 126.987C267.156 126.577 267.895 126.256 268.753 126.48C269.648 126.711 270.171 127.323 270.484 128.152C270.932 129.338 271.044 130.577 270.94 131.816C270.777 133.77 270.505 135.714 270.126 137.638C269.432 141.161 268.402 144.586 267.14 147.945C264.812 154.162 262.14 160.253 259.58 166.388C259.468 166.649 259.289 166.895 259.348 167.209C259.259 167.224 259.214 167.276 259.214 167.358C259.214 167.38 259.266 167.403 259.296 167.425C259.319 167.351 259.334 167.284 259.356 167.209C259.848 166.866 260.08 166.313 260.401 165.85C262.155 163.335 263.961 160.865 265.947 158.529C267.88 156.26 269.887 154.058 272.447 152.461C273.358 151.894 274.291 151.371 275.418 151.378C276.694 151.386 277.56 151.96 277.963 153.192C278.224 153.991 278.291 154.797 278.194 155.655C277.866 158.491 276.686 160.977 275.186 163.328C273.096 166.597 270.678 169.612 268.088 172.501C265.491 175.396 262.55 177.904 259.513 180.308C256.818 182.442 254.169 184.636 251.504 186.801C250.788 187.383 250.056 187.95 249.288 188.466C248.519 188.988 247.698 189.115 246.817 188.868C243.309 187.868 239.861 186.741 236.629 185.01C234.099 183.651 231.748 182.039 229.531 180.21C227.404 178.464 225.359 176.636 223.486 174.62C221.836 172.836 220.284 170.97 219.156 168.799C218.798 168.112 218.634 167.396 218.709 166.627C218.783 165.85 219.373 165.194 220.149 165.119C220.806 165.059 221.47 165.067 222.12 165.276C223.859 165.836 225.322 166.873 226.71 168.008C229.792 170.538 232.852 173.09 235.778 175.8C236.644 176.606 237.547 177.374 238.435 178.158C238.547 178.255 238.659 178.345 238.808 178.36C238.846 178.494 238.898 178.606 239.047 178.651C239.055 178.673 239.062 178.696 239.077 178.71C239.084 178.718 239.107 178.718 239.122 178.718C239.092 178.696 239.062 178.68 239.032 178.658C239.07 178.516 239.018 178.397 238.883 178.3ZM96.4569 178.3C96.2177 177.576 95.7177 176.994 95.3373 176.352C92.5161 171.523 90.0977 166.507 88.2465 161.216C87.1197 157.999 86.0077 154.774 85.2537 151.446C84.5893 148.52 84.0149 145.579 83.7161 142.586C83.5593 141.034 83.4101 139.489 83.3581 137.929C83.3281 137.093 83.1865 136.257 83.2533 135.421C83.3805 133.898 83.3357 132.361 83.7385 130.868C83.8133 130.592 83.8881 130.308 83.9997 130.047C84.6341 128.517 86.0597 128.211 87.2689 129.323C87.8513 129.861 88.2689 130.518 88.6573 131.197C90.4561 134.339 91.9485 137.63 93.2697 140.996C95.2997 146.161 97.1285 151.401 98.8301 156.678C99.1361 157.633 99.4349 158.596 99.8677 159.544C99.8677 159.029 99.9421 158.499 99.8529 157.999C99.7109 157.275 99.7557 156.558 99.7109 155.842C99.4349 151.393 99.4721 146.938 99.5841 142.482C99.6289 140.705 99.7929 138.914 100.002 137.138C100.144 135.936 100.248 134.727 100.412 133.533C100.898 130.077 101.375 126.614 102.666 123.337C102.92 122.688 103.256 122.076 103.749 121.576C104.741 120.554 105.973 120.628 106.876 121.748C107.749 122.83 108.175 124.128 108.548 125.435C109.01 127.077 109.249 128.756 109.466 130.45C109.832 133.316 109.914 136.197 110.018 139.086C110.085 141.049 110.16 143.019 110.1 144.982C110.033 147.176 110.04 149.378 109.921 151.572C109.802 153.767 109.727 155.954 109.615 158.148C109.615 158.208 109.63 158.26 109.652 158.394C109.951 157.909 109.988 157.409 110.1 156.946C111.481 151.117 113.25 145.408 115.586 139.892C117.034 136.481 118.639 133.145 120.855 130.144C121.751 128.928 122.706 127.763 124.028 126.987C124.729 126.577 125.468 126.256 126.326 126.48C127.222 126.711 127.744 127.323 128.058 128.152C128.506 129.338 128.618 130.577 128.513 131.816C128.35 133.77 128.079 135.714 127.7 137.638C127.006 141.161 125.976 144.586 124.714 147.945C122.386 154.162 119.714 160.253 117.153 166.388C117.042 166.649 116.862 166.895 116.922 167.209C116.832 167.224 116.788 167.276 116.788 167.358C116.788 167.38 116.84 167.403 116.87 167.425C116.892 167.351 116.907 167.284 116.93 167.209C117.422 166.866 117.654 166.313 117.974 165.85C119.728 163.335 121.534 160.865 123.52 158.529C125.453 156.26 127.461 154.058 130.021 152.461C130.931 151.894 131.864 151.371 132.991 151.378C134.268 151.386 135.133 151.96 135.536 153.192C135.798 153.991 135.865 154.797 135.768 155.655C135.44 158.491 134.26 160.977 132.76 163.328C130.67 166.597 128.252 169.612 125.662 172.501C123.065 175.396 120.124 177.904 117.086 180.308C114.392 182.442 111.742 184.636 109.078 186.801C108.361 187.383 107.63 187.95 106.861 188.466C106.092 188.988 105.271 189.115 104.39 188.868C100.882 187.868 97.4345 186.741 94.2025 185.01C91.6725 183.651 89.3213 182.039 87.1049 180.21C84.9777 178.464 82.9325 176.636 81.0593 174.62C79.4097 172.836 77.8573 170.97 76.7301 168.799C76.3721 168.112 76.2077 167.396 76.2825 166.627C76.3569 165.85 76.9465 165.194 77.7229 165.119C78.3797 165.059 79.0441 165.067 79.6933 165.276C81.4325 165.836 82.8953 166.873 84.2833 168.008C87.3661 170.538 90.4261 173.09 93.3517 175.8C94.2177 176.606 95.1209 177.374 96.0089 178.158C96.1209 178.255 96.2329 178.345 96.3821 178.36C96.4193 178.494 96.4717 178.606 96.6209 178.651C96.6285 178.673 96.6357 178.696 96.6509 178.71C96.6581 178.718 96.6805 178.718 96.6957 178.718C96.6657 178.696 96.6357 178.68 96.6061 178.658C96.6433 178.516 96.5909 178.397 96.4569 178.3Z" fill="#0071EB"/>
<path d="M88.8504 180.568C88.9912 182.318 89.164 184.068 89.2692 185.824C89.31 186.539 89.3832 187.254 89.2912 187.976C89.2656 188.173 89.2112 188.348 89.1112 188.516C88.8788 188.884 88.5 189.027 88.0784 188.914C87.7088 188.81 87.4264 188.581 87.1532 188.332C86.2896 187.562 85.558 186.673 84.8168 185.787C81.7128 182.052 79.3592 177.883 77.6624 173.339C77.1673 172.026 76.7227 170.695 76.3296 169.348C75.8752 167.805 75.6996 166.223 75.6208 164.626C75.528 162.601 75.6492 160.586 76.0036 158.59C76.1216 157.914 76.35 157.26 76.6204 156.636C76.8172 156.177 77.0016 156.132 77.478 156.183C78.4568 156.299 79.1844 156.872 79.9212 157.424C81.9276 158.941 83.556 160.794 84.8092 162.961C85.9288 164.892 86.728 166.962 87.2748 169.116C87.5924 170.364 87.8548 171.626 88.072 172.896C88.4472 175.038 88.6084 177.202 88.7856 179.365C88.8224 179.763 88.8492 180.164 88.8796 180.559C88.8668 180.568 88.8568 180.572 88.8504 180.568ZM273.19 176.406C273.752 174.529 274.49 172.745 275.208 170.954C275.682 169.781 276.169 168.614 276.67 167.452C277.588 165.312 278.419 163.142 279.132 160.924C279.738 159.018 280.236 157.079 280.623 155.117C281.204 152.198 281.522 149.258 281.507 146.285C281.488 143.513 281.22 140.772 280.404 138.108C279.991 136.76 279.398 135.498 278.475 134.41C277.97 133.814 277.389 133.302 276.671 132.973C275.423 132.402 274.238 132.583 273.125 133.342C272.185 133.99 271.526 134.882 270.963 135.859C270.208 137.162 269.702 138.567 269.273 140C267.456 146.101 267.143 152.325 267.758 158.63C268.001 161.114 268.375 163.582 268.699 166.058C269.149 169.504 269.174 172.955 268.932 176.413C268.812 178.149 268.748 179.884 268.788 181.62C268.798 182.022 268.826 182.414 268.928 182.802C269.132 183.566 269.632 183.88 270.42 183.742C270.775 183.683 271.115 183.55 271.415 183.35C272.063 182.914 272.68 182.437 273.166 181.832C273.617 181.265 274.181 180.894 274.794 180.544C279.239 178.018 283.346 175.038 286.999 171.449C288.998 169.485 290.844 167.385 292.343 165.003C292.759 164.347 293.151 163.683 293.395 162.94C293.438 162.816 293.477 162.69 293.507 162.561C293.751 161.462 293.086 160.718 291.971 160.861C291.241 160.952 290.605 161.294 289.985 161.661C288.55 162.514 287.224 163.525 285.925 164.565C282.438 167.353 279.078 170.295 275.941 173.474C275.076 174.351 274.271 175.279 273.475 176.211C273.408 176.286 273.378 176.415 273.19 176.406Z" fill="#0071EB"/>
<path d="M62.5618 136.091C65.157 140.972 72.339 142.231 72.339 142.231C72.339 142.231 75.309 135.577 72.7098 130.697C70.1146 125.817 62.9366 124.557 62.9366 124.557C62.9366 124.557 59.9666 131.211 62.5618 136.091Z" fill="url(#paint2_linear_35_14156)"/>
<path d="M248.324 56.0316C250.314 53.1 248.879 48.6512 248.879 48.6512C248.879 48.6512 244.218 48.9588 242.229 51.8924C240.239 54.8244 241.672 59.2712 241.672 59.2712C241.672 59.2712 246.334 58.9636 248.324 56.0316Z" fill="url(#paint3_linear_35_14156)"/>
<path d="M256.748 97.8996C250.898 96.7168 247.383 89.672 247.383 89.672C247.383 89.672 253.355 84.5484 259.205 85.7356C265.055 86.9184 268.571 93.9588 268.571 93.9588C268.571 93.9588 262.599 99.0824 256.748 97.8996Z" fill="url(#paint4_linear_35_14156)"/>
<path d="M251.837 71.9979C254.345 71.9979 256.378 69.9648 256.378 67.4567C256.378 64.9487 254.345 62.9155 251.837 62.9155C249.329 62.9155 247.296 64.9487 247.296 67.4567C247.296 69.9648 249.329 71.9979 251.837 71.9979Z" fill="#0071EB"/>
<path d="M267.882 114.088C269.917 114.088 271.566 112.438 271.566 110.404C271.566 108.369 269.917 106.72 267.882 106.72C265.847 106.72 264.198 108.369 264.198 110.404C264.198 112.438 265.847 114.088 267.882 114.088Z" fill="#E1E4E5"/>
<path d="M135.706 46.0349C137.986 46.0349 139.835 44.1865 139.835 41.9065C139.835 39.6264 137.986 37.7781 135.706 37.7781C133.426 37.7781 131.578 39.6264 131.578 41.9065C131.578 44.1865 133.426 46.0349 135.706 46.0349Z" fill="#E1E4E5"/>
<path d="M261.164 189.112C261.164 190.831 262.557 192.224 264.276 192.224C265.994 192.224 267.388 190.831 267.388 189.112C267.388 187.394 265.994 186.001 264.276 186.001C262.557 186.001 261.164 187.394 261.164 189.112Z" fill="#E1E4E5"/>
<path d="M94.5337 54.8685C93.9288 57.1264 95.2687 59.4471 97.5265 60.0521C99.7844 60.6571 102.105 59.3172 102.71 57.0594C103.315 54.8015 101.975 52.4808 99.7174 51.8758C97.4595 51.2708 95.1387 52.6107 94.5337 54.8685Z" fill="#E1E4E5"/>
</g>
<defs>
<linearGradient id="paint0_linear_35_14156" x1="206.04" y1="282.447" x2="120.321" y2="-104.287" gradientUnits="userSpaceOnUse">
<stop stop-color="white"/>
<stop offset="1" stop-color="#EEEEEE"/>
</linearGradient>
<linearGradient id="paint1_linear_35_14156" x1="206.951" y1="118.453" x2="173.118" y2="-33.5768" gradientUnits="userSpaceOnUse">
<stop stop-color="white"/>
<stop offset="1" stop-color="#EEEEEE"/>
</linearGradient>
<linearGradient id="paint2_linear_35_14156" x1="73.559" y1="153.393" x2="59.1678" y2="103.347" gradientUnits="userSpaceOnUse">
<stop stop-color="white"/>
<stop offset="1" stop-color="#EEEEEE"/>
</linearGradient>
<linearGradient id="paint3_linear_35_14156" x1="254.842" y1="44.6196" x2="230.775" y2="67.7544" gradientUnits="userSpaceOnUse">
<stop stop-color="white"/>
<stop offset="1" stop-color="#EEEEEE"/>
</linearGradient>
<linearGradient id="paint4_linear_35_14156" x1="235.455" y1="91.8476" x2="291.683" y2="91.326" gradientUnits="userSpaceOnUse">
<stop stop-color="white"/>
<stop offset="1" stop-color="#EEEEEE"/>
</linearGradient>
<clipPath id="clip0_35_14156">
<rect width="360" height="240" fill="white"/>
</clipPath>
</defs>
</svg>
