<svg width="229" height="153" viewBox="0 0 229 153" fill="none" xmlns="http://www.w3.org/2000/svg">
<g clip-path="url(#clip0_37_25506)">
<path d="M0 0H229V152.667H0V0Z" fill="white"/>
<path opacity="0.1" d="M178.024 47.6146C176.196 50.8753 172.195 51.3234 165.784 50.7038C160.963 50.2369 156.566 49.8756 151.744 47.2467C148.369 45.4078 145.697 42.9201 143.748 40.5039C141.635 37.8862 138.685 34.899 140.131 31.9312C142.118 27.8542 153.608 24.4205 164.765 30.0355C177.021 36.2058 179.811 44.4274 178.024 47.6146Z" fill="#0071EB"/>
<path opacity="0.05" d="M196.812 65.0267C192.72 67.0564 187.29 64.4468 187.29 64.4468C187.29 64.4468 188.497 58.5478 192.591 56.5209C196.682 54.4914 202.11 57.0982 202.11 57.0982C202.11 57.0982 200.903 62.9972 196.812 65.0267Z" fill="#0071EB"/>
<path opacity="0.15" d="M32.6709 90.655C37.21 93.3755 43.7222 90.8606 43.7222 90.8606C43.7222 90.8606 42.8706 83.9362 38.3288 81.2187C33.7897 78.4984 27.2803 81.0101 27.2803 81.0101C27.2803 81.0101 28.1319 87.9345 32.6709 90.655Z" fill="#0071EB"/>
<path d="M175.95 54.5069C173.896 54.5069 172.231 56.172 172.231 58.2261C172.231 60.2802 173.896 61.9453 175.95 61.9453C178.004 61.9453 179.669 60.2802 179.669 58.2261C179.669 56.172 178.004 54.5069 175.95 54.5069Z" fill="#0071EB"/>
<path d="M151.198 104.049C147.974 104.049 145.36 106.662 145.36 109.886C145.36 113.11 147.974 115.724 151.198 115.724C154.422 115.724 157.035 113.11 157.035 109.886C157.035 106.662 154.422 104.049 151.198 104.049Z" fill="#0071EB"/>
<path d="M81.6375 42.4928C79.9465 42.4928 78.5758 43.8635 78.5758 45.5545C78.5758 47.2454 79.9465 48.6162 81.6375 48.6162C83.3284 48.6162 84.6992 47.2454 84.6992 45.5545C84.6992 43.8635 83.3284 42.4928 81.6375 42.4928Z" fill="#0071EB"/>
<path d="M54.485 103.802C52.5594 103.802 50.9984 102.241 50.9984 100.316C50.9984 98.3901 52.5594 96.8291 54.485 96.8291C56.4107 96.8291 57.9717 98.3901 57.9717 100.316C57.9717 102.241 56.4107 103.802 54.485 103.802Z" fill="#0071EB"/>
<path d="M186.965 79.6049C186.066 79.6049 185.337 78.8764 185.337 77.9778C185.337 77.0791 186.066 76.3506 186.965 76.3506C187.863 76.3506 188.592 77.0791 188.592 77.9778C188.592 78.8764 187.863 79.6049 186.965 79.6049Z" fill="#0071EB"/>
<path d="M195.894 127.226C194.739 127.226 193.802 126.289 193.802 125.134C193.802 123.978 194.739 123.042 195.894 123.042C197.05 123.042 197.986 123.978 197.986 125.134C197.986 126.289 197.05 127.226 195.894 127.226Z" fill="#E1E4E5"/>
<path d="M42.5526 110.518C40.8837 110.518 39.5308 109.165 39.5308 107.496C39.5308 105.828 40.8837 104.475 42.5526 104.475C44.2214 104.475 45.5743 105.828 45.5743 107.496C45.5743 109.165 44.2214 110.518 42.5526 110.518Z" fill="#E1E4E5"/>
<path d="M195.556 107.982C194.285 107.982 193.256 106.952 193.256 105.682C193.256 104.412 194.285 103.382 195.556 103.382C196.826 103.382 197.855 104.412 197.855 105.682C197.855 106.952 196.826 107.982 195.556 107.982Z" fill="#E1E4E5"/>
<path d="M177.468 35.6631C176.056 35.6631 174.912 34.5184 174.912 33.1062C174.912 31.6941 176.056 30.5493 177.468 30.5493C178.881 30.5493 180.025 31.6941 180.025 33.1062C180.025 34.5184 178.881 35.6631 177.468 35.6631Z" fill="#E1E4E5"/>
<path d="M43.196 67.9199C43.5242 69.1448 42.7973 70.4039 41.5724 70.7321C40.3475 71.0603 39.0885 70.3334 38.7603 69.1085C38.4321 67.8836 39.159 66.6246 40.3839 66.2963C41.6088 65.9681 42.8678 66.695 43.196 67.9199Z" fill="#E1E4E5"/>
<path d="M88.8158 23.926C88.288 23.926 87.8601 23.4982 87.8601 22.9703C87.8601 22.4425 88.288 22.0146 88.8158 22.0146C89.3436 22.0146 89.7715 22.4425 89.7715 22.9703C89.7715 23.4982 89.3436 23.926 88.8158 23.926Z" fill="#E1E4E5"/>
<path d="M181.134 96.2201C179.836 96.2201 178.784 95.3785 178.784 94.3403C178.784 93.3021 179.836 92.4604 181.134 92.4604C182.431 92.4604 183.484 93.3021 183.484 94.3403C183.484 95.3785 182.431 96.2201 181.134 96.2201Z" fill="#E1E4E5"/>
<path d="M131.093 23.3472C131.33 24.234 130.804 25.1455 129.917 25.3831C129.031 25.6207 128.119 25.0945 127.882 24.2077C127.644 23.3209 128.17 22.4094 129.057 22.1718C129.944 21.9342 130.855 22.4605 131.093 23.3472Z" fill="#E1E4E5"/>
<path d="M60.3837 38.6704H60.4173C60.6155 41.4787 62.704 41.522 62.704 41.522C62.704 41.522 60.401 41.567 60.401 44.8119C60.401 41.567 58.0978 41.522 58.0978 41.522C58.0978 41.522 60.1855 41.4787 60.3837 38.6704ZM58.9272 121.13H58.9596C59.1496 123.93 61.1549 123.973 61.1549 123.973C61.1549 123.973 58.9438 124.018 58.9438 127.253C58.9438 124.018 56.7327 123.973 56.7327 123.973C56.7327 123.973 58.7369 123.93 58.9272 121.13Z" fill="#E1E4E5"/>
<path d="M161.501 67.2076V61.2228C161.501 54.6095 156.145 49.253 149.531 49.253H122.809C121.824 49.2531 120.854 49.0101 119.985 48.5455C119.117 48.0809 118.376 47.4091 117.829 46.5897L109.415 33.9675C108.869 33.1469 108.129 32.4739 107.26 32.0082C106.391 31.5426 105.421 31.2987 104.435 31.2983H77.7129C71.0996 31.2983 65.743 36.6549 65.743 43.2682V120.192C65.743 123.986 68.8134 127.056 72.6077 127.056C75.6361 127.056 78.3113 125.069 79.1792 122.167L93.106 75.7419C94.6261 70.6729 99.2882 67.2076 104.573 67.2076H163.47C171.46 67.2076 177.205 74.8801 174.955 82.5468L164.416 118.456C162.919 123.555 158.245 127.056 152.931 127.056H72.6077" stroke="#E1E4E5" stroke-width="1.01778" stroke-linecap="round" stroke-linejoin="round"/>
<path fill-rule="evenodd" clip-rule="evenodd" d="M80.2631 56.1916L73.8631 49.8201C73.0128 48.9745 71.8623 48.4999 70.6632 48.5H54.4324C51.9317 48.5 49.9064 50.5162 49.9064 53.006V84.5479C49.9064 87.0374 51.9317 89.0539 54.4324 89.0539H77.063C79.5637 89.0539 81.5893 87.0374 81.5893 84.5479V59.3772C81.5893 58.1834 81.1117 57.0366 80.2631 56.1916Z" fill="white" stroke="#E1E4E5" stroke-width="1.01778"/>
<path d="M70.9684 58.0049H59.6825C56.2664 58.0049 53.4972 60.7741 53.4972 64.1902V75.4761C53.4972 78.8921 56.2664 81.6613 59.6825 81.6613H70.9684C74.3844 81.6613 77.1537 78.8921 77.1537 75.4761V64.1902C77.1537 60.7741 74.3844 58.0049 70.9684 58.0049Z" fill="#0071EB" stroke="white" stroke-width="3.09277" stroke-linecap="round" stroke-linejoin="round"/>
<path d="M77.1538 67.3497C75.3573 67.0745 73.5225 67.1927 71.7761 67.696C70.0297 68.1993 68.4134 69.0757 67.0388 70.2647C65.6642 71.4536 64.5641 72.9269 63.8146 74.5826C63.065 76.2383 62.6838 78.0369 62.6973 79.8544C62.7011 80.4594 62.7495 81.0635 62.8418 81.6617M61.5192 65.1037C61.6119 65.1954 61.6752 65.3125 61.7011 65.4402C61.727 65.568 61.7144 65.7005 61.6649 65.8211C61.6153 65.9416 61.531 66.0447 61.4228 66.1172C61.3145 66.1898 61.1871 66.2285 61.0568 66.2285C60.9264 66.2285 60.7991 66.1898 60.6908 66.1172C60.5825 66.0447 60.4982 65.9416 60.4487 65.8211C60.3991 65.7005 60.3865 65.568 60.4124 65.4402C60.4384 65.3125 60.5017 65.1954 60.5943 65.1037C60.7179 64.981 60.885 64.9121 61.0592 64.9121C61.2334 64.9121 61.4005 64.981 61.5241 65.1037H61.5192Z" stroke="white" stroke-width="3.09277" stroke-linecap="round" stroke-linejoin="round"/>
<path fill-rule="evenodd" clip-rule="evenodd" d="M122.107 26.8515L116.038 20.8095C115.232 20.0076 114.141 19.5575 113.004 19.5576H97.6123C95.2409 19.5576 93.3203 21.4698 93.3203 23.8305V53.7415C93.3203 56.1025 95.2409 58.0146 97.6123 58.0146H119.073C121.444 58.0146 123.365 56.1025 123.365 53.7415V29.8725C123.365 28.7403 122.912 27.6528 122.107 26.8515Z" fill="white" stroke="#E1E4E5" stroke-width="1.01778"/>
<path fill-rule="evenodd" clip-rule="evenodd" d="M114.262 42.0199L106.437 46.4482C104.511 47.5372 102.127 46.1375 102.127 43.9144V35.0595C102.127 32.8347 104.507 31.4367 106.437 32.5258L114.262 36.9541C116.228 38.0627 116.228 40.9074 114.262 42.0199Z" fill="#0071EB"/>
<path fill-rule="evenodd" clip-rule="evenodd" d="M163.965 30.6874L158.34 25.0865C157.592 24.3433 156.581 23.9262 155.527 23.9263H141.26C139.062 23.9263 137.281 25.6985 137.281 27.887V55.613C137.281 57.8015 139.062 59.5739 141.26 59.5739H161.152C163.351 59.5739 165.131 57.8015 165.131 55.613V33.4875C165.131 32.4379 164.711 31.4298 163.965 30.6874Z" fill="white" stroke="#E1E4E5" stroke-width="1.01778"/>
<path d="M159.529 36.9945H150.814H159.529ZM159.529 42.2783H150.814H159.529ZM159.529 47.5618H150.814H159.529ZM145.081 36.7749C145.02 36.7749 144.962 36.7991 144.919 36.8421C144.876 36.8851 144.851 36.9434 144.851 37.0043C144.851 37.0651 144.876 37.1235 144.919 37.1665C144.962 37.2095 145.02 37.2337 145.081 37.2337C145.142 37.2337 145.2 37.2095 145.243 37.1665C145.286 37.1235 145.31 37.0651 145.31 37.0043C145.31 36.9434 145.286 36.8851 145.243 36.8421C145.2 36.7991 145.142 36.7749 145.081 36.7749ZM145.081 42.049C145.051 42.049 145.021 42.0549 144.993 42.0664C144.965 42.0779 144.94 42.0948 144.919 42.116C144.897 42.1373 144.881 42.1626 144.869 42.1904C144.858 42.2181 144.852 42.2479 144.852 42.278C144.852 42.3081 144.857 42.3379 144.869 42.3657C144.88 42.3935 144.897 42.4188 144.919 42.4401C144.94 42.4614 144.965 42.4783 144.993 42.4898C145.021 42.5013 145.05 42.5073 145.081 42.5073C145.141 42.5073 145.2 42.4832 145.243 42.4403C145.286 42.3973 145.31 42.339 145.31 42.2783C145.31 42.2175 145.286 42.1592 145.243 42.1162C145.2 42.0732 145.142 42.0491 145.081 42.049V42.049ZM145.081 47.3237C145.02 47.3237 144.962 47.3478 144.919 47.3908C144.876 47.4338 144.852 47.4921 144.852 47.5529C144.852 47.6137 144.876 47.672 144.919 47.715C144.962 47.758 145.02 47.7822 145.081 47.7822C145.142 47.7822 145.2 47.758 145.243 47.715C145.286 47.672 145.31 47.6137 145.31 47.5529C145.31 47.4921 145.286 47.4338 145.243 47.3908C145.2 47.3478 145.142 47.3237 145.081 47.3237Z" stroke="#0071EB" stroke-width="2.39941" stroke-linecap="round" stroke-linejoin="round"/>
<path fill-rule="evenodd" clip-rule="evenodd" d="M123.954 93.4926C114.459 94.7514 107.121 102.573 107.121 112.137C107.121 122.575 115.838 131.039 126.586 131.039H169.409C178.009 131.039 184.981 124.268 184.981 115.917C184.981 107.567 178.009 100.796 169.409 100.796C169.409 88.2681 158.952 78.1143 146.051 78.1143C135.785 78.1143 127.088 84.5522 123.954 93.4926Z" fill="#0071EB"/>
<path d="M145.16 118.317V98.4699M135.873 106.867L145.16 97.4521L154.447 106.867H135.873Z" stroke="white" stroke-width="4.07111" stroke-linecap="round" stroke-linejoin="round"/>
</g>
<defs>
<clipPath id="clip0_37_25506">
<rect width="229" height="152.667" fill="white"/>
</clipPath>
</defs>
</svg>
