<svg width="260" height="173" viewBox="0 0 260 173" fill="none" xmlns="http://www.w3.org/2000/svg">
<g clip-path="url(#clip0_195_55152)">
<path d="M0 0H260V173H0V0Z" fill="white"/>
<path d="M229.87 112.047H211.717C207.269 112.047 203.542 109.025 203.542 105.198C203.542 103.284 204.504 101.572 205.947 100.363C207.389 99.155 209.433 98.3492 211.717 98.3492H214.362C216.646 98.3492 218.689 97.5435 220.132 96.3348C221.575 95.1262 222.537 93.414 222.537 91.5004C222.537 87.7739 218.93 84.6516 214.362 84.6516H158.917C157.468 84.6516 156.537 82.8746 156.537 81.4289C156.537 77.8031 153.051 74.8823 148.723 74.8823H128.09C127.573 74.876 127.078 74.6663 126.714 74.2987C126.35 73.9311 126.146 73.4351 126.146 72.9183C126.146 72.4015 126.35 71.9055 126.714 71.5379C127.078 71.1702 127.573 70.9606 128.09 70.9543H207.149C210.635 70.9543 213.881 69.7456 216.165 67.8319C218.449 65.9183 219.892 63.199 219.892 60.2782C219.892 54.3359 214.121 49.6024 207.149 49.6024H166.316C159.909 49.6024 153.568 44.6672 147.161 44.6672H124.363C121.019 44.6672 118.308 41.9615 118.308 38.6241C118.308 35.2866 121.019 32.5812 124.363 32.5812H175.412C177.816 32.5812 180.1 31.7753 181.663 30.466C183.225 29.1566 184.187 27.3439 184.187 25.2287C184.187 21.2001 180.22 17.8765 175.412 17.8765H57.7191C55.315 17.8765 53.0307 18.6821 51.4678 19.9914C49.905 21.3007 48.9432 23.1138 48.9432 25.2287C48.9432 29.2576 52.9106 32.5812 57.7191 32.5812H60.7247C64.6917 32.5812 68.0579 35.3005 68.0579 38.725C68.0579 40.4371 67.2163 41.9477 65.8938 43.0557C64.5716 44.1635 62.7683 44.8685 60.7247 44.8685H46.1783C43.6537 44.8685 41.2496 45.775 39.5665 47.185C37.8834 48.5952 36.8015 50.5086 36.8015 52.7244C36.8015 57.0552 41.0089 60.4797 46.0581 60.4797H60.8449C65.6534 60.4797 69.6208 63.8034 69.6208 67.8319C69.6208 69.8462 68.659 71.6593 67.0962 72.9686C65.5333 74.2779 63.3695 75.0835 60.9651 75.0835H47.7412C45.5774 75.0835 43.6537 75.7885 42.2113 76.9972C40.7686 78.2059 39.927 79.8174 39.927 81.6301C39.927 85.2559 43.4133 88.1768 47.7412 88.1768H58.4405C64.5716 88.1768 69.5003 92.3063 69.5003 97.4426C69.5003 99.9606 68.2982 102.378 66.2546 103.989C64.211 105.702 61.4458 106.709 58.4405 106.709H43.5335C40.5282 106.709 37.7632 107.716 35.8398 109.428C33.7959 111.04 32.5939 113.356 32.5939 115.874C32.5939 120.91 37.5229 125.039 43.5335 125.039H89.5633C94.6469 125.039 99.6406 127.859 104.724 127.859H113.107C116.312 127.859 118.91 130.452 118.91 133.65C118.91 136.849 116.312 139.442 113.107 139.442H92.7024C90.0576 139.442 87.7734 140.348 86.0903 141.758C84.4072 143.168 83.3254 145.183 83.3254 147.297C83.3254 151.629 87.533 155.153 92.7024 155.153H217.728C220.373 155.153 222.657 154.247 224.34 152.837C226.023 151.427 227.105 149.413 227.105 147.297C227.105 142.967 222.897 139.442 217.728 139.442H214.001C210.154 139.442 207.149 136.823 207.149 133.701C207.149 132.089 207.87 130.679 209.193 129.672C210.395 128.665 212.198 127.96 214.121 127.96H229.87C232.515 127.96 234.798 127.054 236.482 125.643C238.165 124.233 239.246 122.219 239.246 120.104C239.246 115.572 235.039 112.047 229.87 112.047Z" fill="url(#paint0_linear_195_55152)"/>
<path fill-rule="evenodd" clip-rule="evenodd" d="M82.582 80.5497V52.101C82.582 46.2631 86.3832 41.1028 91.966 39.3616L132.083 26.8488C134.681 26.0387 137.464 26.0387 140.061 26.8488L180.179 39.3616C185.761 41.1028 189.562 46.2631 189.562 52.101V80.5497C189.562 108.368 172.273 133.267 146.177 143.035L138.42 145.938C136.906 146.504 135.238 146.504 133.725 145.938L125.968 143.035C99.8709 133.267 82.582 108.368 82.582 80.5497Z" fill="#0071EB"/>
<path d="M136.072 59.4331V86.3017" stroke="white" stroke-width="10.0253" stroke-linecap="round" stroke-linejoin="round"/>
<path d="M136.072 106.322C136.294 106.322 136.506 106.41 136.663 106.567C136.82 106.723 136.908 106.935 136.908 107.156" stroke="white" stroke-width="12.0605" stroke-linecap="round" stroke-linejoin="round"/>
<path d="M25.9451 91.704C30.8028 89.2987 37.2505 92.3914 37.2505 92.3914C37.2505 92.3914 35.8176 99.382 30.9571 101.784C26.0991 104.189 19.6543 101.1 19.6543 101.1C19.6543 101.1 21.0872 94.109 25.9451 91.704Z" fill="url(#paint1_linear_195_55152)"/>
<path d="M235.111 72.5262C230.613 69.8358 224.16 72.3229 224.16 72.3229C224.16 72.3229 225.004 79.1712 229.504 81.8587C234.002 84.5491 240.452 82.0651 240.452 82.0651C240.452 82.0651 239.608 75.2167 235.111 72.5262Z" fill="url(#paint2_linear_195_55152)"/>
<path d="M80.3673 24.5881C81.8882 24.5881 83.1212 25.8187 83.1212 27.3368C83.1212 28.8548 81.8882 30.0854 80.3673 30.0854C78.8463 30.0854 77.6133 28.8548 77.6133 27.3368C77.6133 25.8187 78.8463 24.5881 80.3673 24.5881Z" fill="#E1E4E5"/>
<path d="M198.179 34.175C200.376 34.175 202.157 35.9526 202.157 38.1454C202.157 40.3381 200.376 42.1157 198.179 42.1157C195.982 42.1157 194.201 40.3381 194.201 38.1454C194.201 35.9526 195.982 34.175 198.179 34.175Z" fill="#E1E4E5"/>
<path d="M28.6408 37.8115C30.3129 37.8115 31.6684 39.1644 31.6684 40.8332C31.6684 42.5021 30.3129 43.855 28.6408 43.855C26.9688 43.855 25.6133 42.5021 25.6133 40.8332C25.6133 39.1644 26.9688 37.8115 28.6408 37.8115Z" fill="#E1E4E5"/>
<path d="M225.998 135.704C225.998 134.038 227.351 132.687 229.02 132.687C230.69 132.687 232.043 134.038 232.043 135.704C232.043 137.37 230.69 138.721 229.02 138.721C227.351 138.721 225.998 137.37 225.998 135.704Z" fill="#E1E4E5"/>
<path d="M178.681 142.274C180.902 142.274 182.702 144.07 182.702 146.287C182.702 148.503 180.902 150.3 178.681 150.3C176.46 150.3 174.66 148.503 174.66 146.287C174.66 144.07 176.46 142.274 178.681 142.274Z" fill="#E1E4E5"/>
<path d="M58.1849 65.2492C59.8932 65.2492 61.2781 66.355 61.2781 67.7191C61.2781 69.0832 59.8932 70.189 58.1849 70.189C56.4766 70.189 55.0918 69.0832 55.0918 67.7191C55.0918 66.355 56.4766 65.2492 58.1849 65.2492Z" fill="#E1E4E5"/>
<path d="M73.9744 136.742C73.4233 134.69 74.6438 132.58 76.7005 132.03C78.7571 131.48 80.871 132.698 81.4221 134.751C81.9732 136.803 80.7527 138.913 78.6961 139.463C76.6394 140.013 74.5255 138.795 73.9744 136.742Z" fill="#E1E4E5"/>
<path d="M224.626 48.8317H224.584C224.333 45.1529 221.693 45.0963 221.693 45.0963C221.693 45.0963 224.604 45.0375 224.604 40.7866C224.604 45.0375 227.515 45.0963 227.515 45.0963C227.515 45.0963 224.876 45.1529 224.626 48.8317Z" fill="#E1E4E5"/>
</g>
<defs>
<linearGradient id="paint0_linear_195_55152" x1="140.327" y1="232.119" x2="137.514" y2="-131.485" gradientUnits="userSpaceOnUse">
<stop stop-color="white"/>
<stop offset="1" stop-color="#EEEEEE"/>
</linearGradient>
<linearGradient id="paint1_linear_195_55152" x1="44.5999" y1="84.2018" x2="4.59124" y2="115.91" gradientUnits="userSpaceOnUse">
<stop stop-color="white"/>
<stop offset="1" stop-color="#EEEEEE"/>
</linearGradient>
<linearGradient id="paint2_linear_195_55152" x1="217.706" y1="63.8655" x2="253.832" y2="97.4963" gradientUnits="userSpaceOnUse">
<stop stop-color="white"/>
<stop offset="1" stop-color="#EEEEEE"/>
</linearGradient>
<clipPath id="clip0_195_55152">
<rect width="260" height="173" fill="white"/>
</clipPath>
</defs>
</svg>
