<svg width="260" height="173" viewBox="0 0 260 173" fill="none" xmlns="http://www.w3.org/2000/svg">
<g clip-path="url(#clip0_195_55241)">
<path d="M0 0H260V173H0V0Z" fill="white"/>
<path d="M175.583 52.6236C173.116 57.0181 167.713 57.6221 159.056 56.7868C152.546 56.1577 146.609 55.6707 140.098 52.1276C135.541 49.6497 131.933 46.297 129.301 43.0405C126.448 39.5128 122.465 35.4868 124.417 31.487C127.1 25.9925 142.615 21.3648 157.68 28.9324C174.229 37.2479 177.997 48.3283 175.583 52.6236Z" fill="url(#paint0_linear_195_55241)"/>
<path d="M218.737 88.6405C209.574 93.1768 197.413 87.3439 197.413 87.3439C197.413 87.3439 200.116 74.1589 209.283 69.6289C218.446 65.0926 230.602 70.9192 230.602 70.9192C230.602 70.9192 227.899 84.1041 218.737 88.6405Z" fill="url(#paint1_linear_195_55241)"/>
<path d="M54.6606 57.0829C59.2725 59.8417 65.8889 57.2914 65.8889 57.2914C65.8889 57.2914 65.0237 50.2696 60.4089 47.514C55.7974 44.7552 49.1836 47.3023 49.1836 47.3023C49.1836 47.3023 50.0488 54.3241 54.6606 57.0829Z" fill="url(#paint2_linear_195_55241)"/>
<path d="M202.911 102.965C200.509 102.965 198.562 104.909 198.562 107.306C198.562 109.704 200.509 111.647 202.911 111.647C205.313 111.647 207.261 109.704 207.261 107.306C207.261 104.909 205.313 102.965 202.911 102.965Z" fill="#0071EB"/>
<path d="M58.044 70.1653C56.0666 70.1653 54.4635 71.7653 54.4635 73.7389C54.4635 75.7125 56.0666 77.3125 58.044 77.3125C60.0215 77.3125 61.6245 75.7125 61.6245 73.7389C61.6245 71.7653 60.0215 70.1653 58.044 70.1653Z" fill="#0071EB"/>
<path d="M75.8716 138.182C73.6195 138.182 71.7939 136.36 71.7939 134.112C71.7939 131.865 73.6195 130.042 75.8716 130.042C78.1236 130.042 79.9492 131.865 79.9492 134.112C79.9492 136.36 78.1236 138.182 75.8716 138.182Z" fill="#0071EB"/>
<path d="M180.351 87.2702C179.3 87.2702 178.448 86.4199 178.448 85.3709C178.448 84.322 179.3 83.4717 180.351 83.4717C181.402 83.4717 182.254 84.322 182.254 85.3709C182.254 86.4199 181.402 87.2702 180.351 87.2702Z" fill="#0071EB"/>
<path d="M68.4194 38.125C67.0681 38.125 65.9728 37.0317 65.9728 35.6831C65.9728 34.3345 67.0681 33.2412 68.4194 33.2412C69.7706 33.2412 70.866 34.3345 70.866 35.6831C70.866 37.0317 69.7706 38.125 68.4194 38.125Z" fill="#E1E4E5"/>
<path d="M46.6652 100.506C44.7135 100.506 43.1313 98.9264 43.1313 96.9784C43.1313 95.0303 44.7135 93.4512 46.6652 93.4512C48.617 93.4512 50.1992 95.0303 50.1992 96.9784C50.1992 98.9264 48.617 100.506 46.6652 100.506Z" fill="#E1E4E5"/>
<path d="M145.978 142.615C144.492 142.615 143.288 141.414 143.288 139.931C143.288 138.448 144.492 137.247 145.978 137.247C147.463 137.247 148.667 138.448 148.667 139.931C148.667 141.414 147.463 142.615 145.978 142.615Z" fill="#E1E4E5"/>
<path d="M191.344 66.8023C188.896 66.8023 186.912 64.8218 186.912 62.3787C186.912 59.9356 188.896 57.9551 191.344 57.9551C193.792 57.9551 195.776 59.9356 195.776 62.3787C195.776 64.8218 193.792 66.8023 191.344 66.8023Z" fill="#E1E4E5"/>
<path d="M34.8861 69.49C35.2699 70.9197 34.4198 72.3893 32.9874 72.7724C31.5549 73.1555 30.0825 72.307 29.6986 70.8773C29.3148 69.4476 30.1649 67.978 31.5974 67.5949C33.0299 67.2118 34.5023 68.0603 34.8861 69.49Z" fill="#E1E4E5"/>
<path d="M88.6774 41.899C86.7046 41.899 85.1053 40.3028 85.1053 38.3338C85.1053 36.3648 86.7046 34.7686 88.6774 34.7686C90.6502 34.7686 92.2495 36.3648 92.2495 38.3338C92.2495 40.3028 90.6502 41.899 88.6774 41.899Z" fill="#E1E4E5"/>
<path d="M221.175 126.486C219.657 126.486 218.427 125.503 218.427 124.292C218.427 123.08 219.657 122.098 221.175 122.098C222.692 122.098 223.923 123.08 223.923 124.292C223.923 125.503 222.692 126.486 221.175 126.486Z" fill="#E1E4E5"/>
<path d="M124.91 142.634C125.709 145.61 123.939 148.668 120.958 149.466C117.977 150.263 114.912 148.497 114.113 145.522C113.315 142.546 115.084 139.487 118.065 138.69C121.046 137.893 124.111 139.659 124.91 142.634Z" fill="#E1E4E5"/>
<path d="M79.7031 91.1226H79.775C80.2008 97.1421 84.6861 97.2349 84.6861 97.2349C84.6861 97.2349 79.7401 97.3312 79.7401 104.287C79.7401 97.3312 74.794 97.2349 74.794 97.2349C74.794 97.2349 79.2776 97.1421 79.7031 91.1226ZM65.0287 111.414H65.0662C65.2887 114.683 67.6339 114.733 67.6339 114.733C67.6339 114.733 65.0481 114.785 65.0481 118.562C65.0481 114.785 62.4619 114.733 62.4619 114.733C62.4619 114.733 64.8063 114.683 65.0287 111.414Z" fill="#E1E4E5"/>
<path d="M111.935 74.9652V62.2381C111.935 52.8667 119.547 45.2686 128.937 45.2686C138.326 45.2686 145.939 52.8667 145.939 62.2381V74.9652" stroke="#0071EB" stroke-width="6.64444" stroke-linecap="round" stroke-linejoin="round"/>
<path fill-rule="evenodd" clip-rule="evenodd" d="M154.091 126.871H103.781C98.2214 126.871 93.7188 122.377 93.7188 116.828V81.6789C93.7188 76.1305 98.2214 71.6362 103.781 71.6362H154.091C159.65 71.6362 164.153 76.1305 164.153 81.6789V116.828C164.153 122.377 159.65 126.871 154.091 126.871Z" fill="#0071EB" stroke="#0071EB" stroke-width="4.94867" stroke-linecap="round" stroke-linejoin="round"/>
<path d="M128.593 91.2061C126.544 91.2061 124.882 92.8654 124.896 94.9103C124.896 96.9548 126.559 98.6145 128.608 98.6145C130.656 98.6145 132.319 96.9548 132.319 94.9103C132.319 92.8654 130.656 91.2061 128.593 91.2061M128.607 111.302V98.7076V111.302Z" stroke="white" stroke-width="10.3258" stroke-linecap="round" stroke-linejoin="round"/>
<path d="M88.8177 36.6831H39.0716C33.1286 36.6831 28.3108 41.4916 28.3108 47.4231C28.3108 53.3546 33.1286 58.1631 39.0716 58.1631H88.8177C94.7607 58.1631 99.5785 53.3546 99.5785 47.4231C99.5785 41.4916 94.7607 36.6831 88.8177 36.6831Z" fill="url(#paint3_linear_195_55241)"/>
<path d="M95.8736 28.584H46.1275C40.1845 28.584 35.3667 33.3924 35.3667 39.324C35.3667 45.2555 40.1845 50.064 46.1275 50.064H95.8736C101.817 50.064 106.634 45.2555 106.634 39.324C106.634 33.3924 101.817 28.584 95.8736 28.584Z" fill="#03111E"/>
<path d="M48.1777 42.3454H49.7616L49.6085 40.071L51.5166 41.3463L52.3056 39.9591L50.2565 38.96L52.3056 37.961L51.5166 36.5738L49.6085 37.8494L49.7616 35.5747H48.1777L48.325 37.8494L46.4172 36.5738L45.6279 37.961L47.6831 38.96L45.6279 39.9591L46.4172 41.3463L48.325 40.071L48.1777 42.3454ZM59.1959 42.3454H60.7799L60.6267 40.071L62.5346 41.3463L63.3235 39.9591L61.2744 38.96L63.3235 37.961L62.5346 36.5738L60.6267 37.8494L60.7799 35.5747H59.1959L59.3429 37.8494L57.4351 36.5738L56.6462 37.961L58.701 38.96L56.6462 39.9591L57.4351 41.3463L59.3429 40.071L59.1959 42.3454ZM70.2138 42.3454H71.7978L71.6447 40.071L73.5525 41.3463L74.3418 39.9591L72.2924 38.96L74.3418 37.961L73.5525 36.5738L71.6447 37.8494L71.7978 35.5747H70.2138L70.3609 37.8494L68.453 36.5738L67.6641 37.961L69.7192 38.96L67.6641 39.9591L68.453 41.3463L70.3609 40.071L70.2138 42.3454ZM81.2318 42.3454H82.8157L82.6626 40.071L84.5707 41.3463L85.3597 39.9591L83.3103 38.96L85.3597 37.961L84.5707 36.5738L82.6626 37.8494L82.8157 35.5747H81.2318L81.3791 37.8494L79.4713 36.5738L78.682 37.961L80.7372 38.96L78.682 39.9591L79.4713 41.3463L81.3791 40.071L81.2318 42.3454ZM92.2497 42.3454H93.834L93.6808 40.071L95.5887 41.3463L96.3776 39.9591L94.3285 38.96L96.3776 37.961L95.5887 36.5738L93.6808 37.8494L93.834 35.5747H92.2497L92.397 37.8494L90.4892 36.5738L89.7 37.961L91.7551 38.96L89.7 39.9591L90.4892 41.3463L92.397 40.071L92.2497 42.3454Z" fill="white"/>
<path fill-rule="evenodd" clip-rule="evenodd" d="M193.291 122.832C193.291 134.905 184.186 146.193 171.949 148.934C159.711 146.193 150.605 134.905 150.605 122.832V113.349C150.606 112.293 150.921 111.261 151.512 110.385C152.103 109.508 152.942 108.827 153.922 108.429L167.261 102.989C170.265 101.763 173.632 101.763 176.636 102.989L189.975 108.429C190.955 108.827 191.794 109.508 192.385 110.385C192.975 111.261 193.291 112.293 193.291 113.349V122.832Z" fill="#03111E"/>
<path d="M180.606 120.067L170.617 130.037L164.624 124.055" stroke="white" stroke-width="3.62469" stroke-linecap="round" stroke-linejoin="round"/>
</g>
<defs>
<linearGradient id="paint0_linear_195_55241" x1="158.963" y1="81.1054" x2="137.053" y2="-17.5389" gradientUnits="userSpaceOnUse">
<stop stop-color="white"/>
<stop offset="1" stop-color="#EEEEEE"/>
</linearGradient>
<linearGradient id="paint1_linear_195_55241" x1="183.552" y1="102.79" x2="259.012" y2="42.9866" gradientUnits="userSpaceOnUse">
<stop stop-color="white"/>
<stop offset="1" stop-color="#EEEEEE"/>
</linearGradient>
<linearGradient id="paint2_linear_195_55241" x1="72.507" y1="65.9633" x2="35.4649" y2="31.4799" gradientUnits="userSpaceOnUse">
<stop stop-color="white"/>
<stop offset="1" stop-color="#EEEEEE"/>
</linearGradient>
<linearGradient id="paint3_linear_195_55241" x1="65.4642" y1="70.2062" x2="65.2645" y2="13.3096" gradientUnits="userSpaceOnUse">
<stop stop-color="white"/>
<stop offset="1" stop-color="#EEEEEE"/>
</linearGradient>
<clipPath id="clip0_195_55241">
<rect width="260" height="173" fill="white"/>
</clipPath>
</defs>
</svg>
