<svg width="362" height="241" viewBox="0 0 362 241" fill="none" xmlns="http://www.w3.org/2000/svg">
<g clip-path="url(#clip0_666_17814)">
<path d="M0 0H361.5V241H0V0Z" fill="white"/>
<path d="M291.59 123.581C283.147 127.769 271.941 122.384 271.941 122.384C271.941 122.384 274.432 110.211 282.879 106.029C291.322 101.841 302.524 107.22 302.524 107.22C302.524 107.22 300.033 119.393 291.59 123.581Z" fill="url(#paint0_linear_666_17814)"/>
<path d="M70.2631 159.731C79.2645 165.126 92.1793 160.138 92.1793 160.138C92.1793 160.138 90.4906 146.406 81.4833 141.017C72.4819 135.622 59.5728 140.603 59.5728 140.603C59.5728 140.603 61.2614 154.336 70.2631 159.731Z" fill="url(#paint1_linear_666_17814)"/>
<path d="M272.522 94.3917C269.976 94.3917 267.912 96.4556 267.912 99.0016C267.912 101.548 269.976 103.612 272.522 103.612C275.068 103.612 277.132 101.548 277.132 99.0016C277.132 96.4556 275.068 94.3917 272.522 94.3917Z" fill="#0071EB"/>
<path d="M140.991 99.8387C138.896 99.8387 137.196 101.538 137.196 103.634C137.196 105.73 138.896 107.429 140.991 107.429C143.087 107.429 144.786 105.73 144.786 103.634C144.786 101.538 143.087 99.8387 140.991 99.8387Z" fill="#0071EB"/>
<path d="M130.742 187.578C129.079 187.578 127.73 186.23 127.73 184.566C127.73 182.902 129.079 181.553 130.742 181.553C132.406 181.553 133.755 182.902 133.755 184.566C133.755 186.23 132.406 187.578 130.742 187.578Z" fill="#0071EB"/>
<path d="M262.699 111.279C261.585 111.279 260.682 110.376 260.682 109.262C260.682 108.148 261.585 107.245 262.699 107.245C263.812 107.245 264.715 108.148 264.715 109.262C264.715 110.376 263.812 111.279 262.699 111.279Z" fill="#0071EB"/>
<path d="M271.553 192.233C270.121 192.233 268.96 191.072 268.96 189.64C268.96 188.208 270.121 187.047 271.553 187.047C272.985 187.047 274.146 188.208 274.146 189.64C274.146 191.072 272.985 192.233 271.553 192.233Z" fill="#E1E4E5"/>
<path d="M100.949 177.396C98.8802 177.396 97.2033 175.719 97.2033 173.651C97.2033 171.582 98.8802 169.905 100.949 169.905C103.017 169.905 104.694 171.582 104.694 173.651C104.694 175.719 103.017 177.396 100.949 177.396Z" fill="#E1E4E5"/>
<path d="M285.624 170.385C284.05 170.385 282.773 169.108 282.773 167.534C282.773 165.96 284.05 164.683 285.624 164.683C287.198 164.683 288.475 165.96 288.475 167.534C288.475 169.108 287.198 170.385 285.624 170.385Z" fill="#E1E4E5"/>
<path d="M254.506 79.0427C252.755 79.0427 251.336 77.6237 251.336 75.8732C251.336 74.1227 252.755 72.7036 254.506 72.7036C256.256 72.7036 257.675 74.1227 257.675 75.8732C257.675 77.6237 256.256 79.0427 254.506 79.0427Z" fill="#E1E4E5"/>
<path d="M76.5266 110.396C76.9335 111.914 76.0324 113.475 74.514 113.882C72.9957 114.288 71.435 113.387 71.0282 111.869C70.6213 110.351 71.5224 108.79 73.0407 108.383C74.5591 107.976 76.1198 108.877 76.5266 110.396Z" fill="#E1E4E5"/>
<path d="M154.916 59.9218C152.825 59.9218 151.13 58.2267 151.13 56.1357C151.13 54.0447 152.825 52.3496 154.916 52.3496C157.007 52.3496 158.702 54.0447 158.702 56.1357C158.702 58.2267 157.007 59.9218 154.916 59.9218Z" fill="#E1E4E5"/>
<path d="M277.251 147.252C275.642 147.252 274.338 146.209 274.338 144.922C274.338 143.635 275.642 142.592 277.251 142.592C278.859 142.592 280.163 143.635 280.163 144.922C280.163 146.209 278.859 147.252 277.251 147.252Z" fill="#E1E4E5"/>
<path d="M225.171 49.7204C226.017 52.8804 224.142 56.1284 220.982 56.9751C217.822 57.8218 214.574 55.9465 213.727 52.7866C212.881 49.6267 214.756 46.3787 217.916 45.532C221.076 44.6853 224.324 46.5605 225.171 49.7204Z" fill="#E1E4E5"/>
<path d="M94.3314 92.2223H94.3728C94.6186 95.7031 97.2073 95.757 97.2073 95.757C97.2073 95.757 94.3527 95.8128 94.3527 99.8351C94.3527 95.8128 91.498 95.757 91.498 95.757C91.498 95.757 94.0856 95.7031 94.3314 92.2223ZM109.965 190.792H110.005C110.241 194.262 112.727 194.316 112.727 194.316C112.727 194.316 109.986 194.371 109.986 198.382C109.986 194.371 107.245 194.316 107.245 194.316C107.245 194.316 109.73 194.262 109.965 190.792Z" fill="#E1E4E5"/>
<path d="M173.241 36.5516H258.531C268.129 36.5516 275.945 47.3071 275.945 60.5131V76.17C275.945 82.9771 271.889 88.559 266.941 88.559H194.217C189.27 88.559 185.213 82.9771 185.213 76.17V59.1518C185.213 52.7529 183.532 46.3543 180.365 41.5889C178.485 38.7299 176.111 36.552 173.241 36.552V36.5516Z" fill="url(#paint2_linear_666_17814)"/>
<path fill-rule="evenodd" clip-rule="evenodd" d="M139.635 36.5516H257.589C253.621 36.5516 250.337 38.7299 247.737 41.5889C243.358 46.3539 241.032 52.7529 241.032 59.1518V76.17C241.032 76.5444 241.015 76.9151 240.981 77.2814V170.285H115.552V60.5131C115.552 47.3071 126.362 36.5516 139.635 36.5516Z" fill="#E1E4E5"/>
<path d="M142.891 79.4348H217.505M142.494 119.719H217.505H142.494ZM142.891 97.6914H217.505H142.891Z" stroke="white" stroke-width="6.77652" stroke-linecap="round" stroke-linejoin="round"/>
<path d="M172.968 204.347H258.258C267.855 204.347 275.672 193.591 275.672 180.385V164.728C275.672 157.921 271.615 152.339 266.668 152.339H193.944C188.997 152.339 184.94 157.921 184.94 164.728V181.747C184.94 188.146 183.258 194.544 180.092 199.309C178.212 202.169 175.837 204.347 172.968 204.347Z" fill="url(#paint3_linear_666_17814)"/>
<path fill-rule="evenodd" clip-rule="evenodd" d="M139.362 204.347H257.316C253.348 204.347 250.063 202.169 247.464 199.309C243.085 194.544 240.759 188.146 240.759 181.747V164.728C240.759 164.354 240.741 163.983 240.708 163.617V70.613H115.278V180.385C115.278 193.591 126.089 204.347 139.362 204.347Z" fill="#E1E4E5"/>
<path d="M142.617 114.433H217.232M142.22 136.604H217.232H142.22ZM142.22 74.3834H217.232H142.22ZM142.617 158.658H217.232H142.617ZM142.617 96.4381H217.232H142.617ZM142.617 176.653H217.232H142.617Z" stroke="white" stroke-width="6.77652" stroke-linecap="round" stroke-linejoin="round"/>
<path fill-rule="evenodd" clip-rule="evenodd" d="M117.34 67.6407L122.413 65.16C124.753 64.016 127.583 64.9326 128.804 67.2382L131.453 72.2269C131.798 72.8764 132.287 73.4386 132.882 73.8708C133.478 74.303 134.163 74.5938 134.888 74.7212L140.451 75.6973C143.019 76.1488 144.764 78.5523 144.4 81.1342L143.61 86.7246C143.507 87.453 143.571 88.1954 143.798 88.895C144.026 89.5947 144.41 90.2332 144.922 90.7618L148.847 94.8198C150.659 96.6916 150.659 99.6655 148.847 101.541L144.922 105.599C144.41 106.127 144.026 106.766 143.799 107.466C143.571 108.165 143.507 108.908 143.61 109.636L144.4 115.227C144.764 117.808 143.019 120.212 140.451 120.663L134.888 121.639C134.163 121.767 133.478 122.058 132.882 122.49C132.287 122.922 131.798 123.484 131.453 124.133L128.804 129.122C127.583 131.425 124.757 132.344 122.413 131.2L117.34 128.72C116.679 128.397 115.954 128.229 115.218 128.229C114.483 128.229 113.757 128.397 113.096 128.72L108.023 131.2C105.683 132.344 102.853 131.428 101.632 129.122L98.9834 124.13C98.6379 123.481 98.1489 122.919 97.5537 122.486C96.9584 122.054 96.2725 121.763 95.5479 121.636L89.9853 120.659C87.4174 120.208 85.6718 117.805 86.0357 115.223L86.8261 109.632C86.9293 108.904 86.8648 108.162 86.6375 107.462C86.4101 106.762 86.026 106.124 85.5143 105.595L81.5892 101.537C79.7769 99.6655 79.7769 96.6916 81.5892 94.8166L85.5143 90.7582C86.026 90.2296 86.4101 89.5911 86.6375 88.8914C86.8648 88.1918 86.9293 87.4494 86.8261 86.721L86.0393 81.1306C85.6718 78.5523 87.421 76.1451 89.9889 75.6973L95.5516 74.7212C96.2754 74.5933 96.9606 74.3021 97.5552 73.87C98.1498 73.4378 98.6382 72.8759 98.9834 72.2269L101.632 67.2382C102.853 64.9362 105.68 64.016 108.023 65.16L113.096 67.6407C113.757 67.9633 114.483 68.1311 115.218 68.1311C115.954 68.1311 116.679 67.9633 117.34 67.6407Z" fill="#0071EB" stroke="#0071EB" stroke-width="2.99804" stroke-linecap="round" stroke-linejoin="round"/>
<path d="M115.292 119.567C127.012 119.567 136.513 110.066 136.513 98.3456C136.513 86.6255 127.012 77.1244 115.292 77.1244C103.571 77.1244 94.0703 86.6255 94.0703 98.3456C94.0703 110.066 103.571 119.567 115.292 119.567Z" fill="white"/>
<path fill-rule="evenodd" clip-rule="evenodd" d="M115.006 105.821L120.466 108.689C121.529 109.248 122.771 108.345 122.568 107.161L121.526 101.082L125.943 96.7803C126.803 95.9416 126.329 94.4804 125.141 94.3072L119.038 93.4204L116.31 87.8882C115.778 86.8097 114.244 86.8097 113.712 87.8882L110.984 93.4204L104.878 94.3104C103.69 94.4836 103.216 95.9448 104.076 96.7831L108.493 101.085L107.451 107.164C107.248 108.348 108.49 109.251 109.553 108.692L115.012 105.824H115.006V105.821Z" fill="#0071EB"/>
<path d="M267.108 144.801C267.108 128.94 254.25 116.082 238.389 116.082C222.528 116.082 209.67 128.94 209.67 144.801C209.67 160.662 222.528 173.52 238.389 173.52C254.25 173.52 267.108 160.662 267.108 144.801Z" fill="#0071EB"/>
<path d="M247.828 139.78L235.276 152.232L227.745 144.761" stroke="white" stroke-width="4.13195" stroke-linecap="round" stroke-linejoin="round"/>
</g>
<defs>
<linearGradient id="paint0_linear_666_17814" x1="259.168" y1="136.645" x2="328.806" y2="81.5617" gradientUnits="userSpaceOnUse">
<stop stop-color="white"/>
<stop offset="1" stop-color="#EEEEEE"/>
</linearGradient>
<linearGradient id="paint1_linear_666_17814" x1="105.097" y1="177.097" x2="32.6663" y2="109.8" gradientUnits="userSpaceOnUse">
<stop stop-color="white"/>
<stop offset="1" stop-color="#EEEEEE"/>
</linearGradient>
<linearGradient id="paint2_linear_666_17814" x1="222.403" y1="7.39345" x2="223.215" y2="145.148" gradientUnits="userSpaceOnUse">
<stop stop-color="white"/>
<stop offset="1" stop-color="#EEEEEE"/>
</linearGradient>
<linearGradient id="paint3_linear_666_17814" x1="222.13" y1="233.505" x2="222.942" y2="95.7501" gradientUnits="userSpaceOnUse">
<stop stop-color="white"/>
<stop offset="1" stop-color="#EEEEEE"/>
</linearGradient>
<clipPath id="clip0_666_17814">
<rect width="361.5" height="241" fill="white"/>
</clipPath>
</defs>
</svg>
