<svg width="360" height="240" viewBox="0 0 360 240" fill="none" xmlns="http://www.w3.org/2000/svg">
<g clip-path="url(#clip0_34_12635)">
<path d="M0 0H360V240H0V0Z" fill="white"/>
<path d="M177.7 148.427C166.539 132.813 155.109 116.219 140.145 108.045C124.71 99.6105 121.863 104.809 120.795 113.074C119.727 121.338 124.489 140.92 145.553 152.062C166.623 163.207 188.143 163.04 177.7 148.427Z" fill="url(#paint0_linear_34_12635)"/>
<path fill-rule="evenodd" clip-rule="evenodd" d="M225.369 155.841V192.357L181.608 170.447L137.729 192.357V75.5038C137.729 67.4338 144.266 60.897 152.336 60.897H210.763C218.833 60.897 225.369 67.4338 225.369 75.5038V90.1106" fill="#0071EB"/>
<path fill-rule="evenodd" clip-rule="evenodd" d="M225.865 155.73C207.716 155.73 193 141.014 193 122.865C193 105.088 208.118 89.9852 225.887 90C244.028 90.0144 258.73 104.723 258.73 122.865C258.73 141.014 244.021 155.73 225.865 155.73Z" fill="#03111E"/>
<path d="M239.414 112.414C240.195 111.633 240.195 110.367 239.414 109.586C238.633 108.805 237.367 108.805 236.586 109.586L239.414 112.414ZM212.586 133.586C211.805 134.367 211.805 135.633 212.586 136.414C213.367 137.195 214.633 137.195 215.414 136.414L212.586 133.586ZM215.414 109.586C214.633 108.805 213.367 108.805 212.586 109.586C211.805 110.367 211.805 111.633 212.586 112.414L215.414 109.586ZM236.586 136.414C237.367 137.195 238.633 137.195 239.414 136.414C240.195 135.633 240.195 134.367 239.414 133.586L236.586 136.414ZM236.586 109.586L212.586 133.586L215.414 136.414L239.414 112.414L236.586 109.586ZM212.586 112.414L236.586 136.414L239.414 133.586L215.414 109.586L212.586 112.414Z" fill="white"/>
<path d="M293.709 97.0893C285.811 98.9605 277.457 92.2621 277.457 92.2621C277.457 92.2621 281.915 82.5337 289.816 80.6685C297.714 78.7973 306.065 85.4901 306.065 85.4901C306.065 85.4901 301.607 95.2185 293.709 97.0893Z" fill="url(#paint1_linear_34_12635)"/>
<path d="M296.432 176.854C303.593 181.786 314.533 178.338 314.533 178.338C314.533 178.338 313.856 166.895 306.69 161.968C299.529 157.035 288.594 160.478 288.594 160.478C288.594 160.478 289.272 171.922 296.432 176.854Z" fill="url(#paint2_linear_34_12635)"/>
<path d="M57.565 125.7C65.3278 133.602 79.8446 131.936 79.8446 131.936C79.8446 131.936 81.7654 117.46 73.9954 109.563C66.2322 101.662 51.723 103.323 51.723 103.323C51.723 103.323 49.8018 117.799 57.565 125.7Z" fill="url(#paint3_linear_34_12635)"/>
<path d="M279.67 139.097C276.484 139.097 273.901 141.567 273.901 144.615C273.901 147.663 276.484 150.133 279.67 150.133C282.856 150.133 285.439 147.663 285.439 144.615C285.439 141.567 282.856 139.097 279.67 139.097Z" fill="#0071EB"/>
<path d="M117.686 173.651C113.392 173.651 109.91 177.02 109.91 181.176C109.91 185.332 113.392 188.701 117.686 188.701C121.981 188.701 125.462 185.332 125.462 181.176C125.462 177.02 121.981 173.651 117.686 173.651Z" fill="#0071EB"/>
<path d="M92.2148 85.152C89.0873 85.152 86.552 82.6167 86.552 79.4892C86.552 76.3617 89.0873 73.8264 92.2148 73.8264C95.3422 73.8264 97.8776 76.3617 97.8776 79.4892C97.8776 82.6167 95.3422 85.152 92.2148 85.152Z" fill="#0071EB"/>
<path d="M279.478 188.848C276.861 188.848 274.74 186.727 274.74 184.111C274.74 181.494 276.861 179.373 279.478 179.373C282.094 179.373 284.215 181.494 284.215 184.111C284.215 186.727 282.094 188.848 279.478 188.848Z" fill="#E1E4E5"/>
<path d="M99.2001 150C97.6537 150 96.4001 148.657 96.4001 147C96.4001 145.343 97.6537 144 99.2001 144C100.747 144 102 145.343 102 147C102 148.657 100.747 150 99.2001 150Z" fill="#E1E4E5"/>
<path d="M135.953 208.324C134.597 208.324 133.498 207.225 133.498 205.869C133.498 204.513 134.597 203.414 135.953 203.414C137.309 203.414 138.408 204.513 138.408 205.869C138.408 207.225 137.309 208.324 135.953 208.324Z" fill="#E1E4E5"/>
<path d="M254.614 65.0888C252.544 65.0888 250.867 63.4111 250.867 61.3416C250.867 59.2721 252.544 57.5944 254.614 57.5944C256.684 57.5944 258.361 59.2721 258.361 61.3416C258.361 63.4111 256.684 65.0888 254.614 65.0888Z" fill="#E1E4E5"/>
<path d="M107.537 91.2122C107.888 92.5198 107.112 93.8639 105.804 94.2143C104.496 94.5647 103.152 93.7887 102.802 92.4811C102.452 91.1734 103.228 89.8293 104.535 89.479C105.843 89.1286 107.187 89.9046 107.537 91.2122Z" fill="#E1E4E5"/>
<path d="M248.149 171.256C246.764 171.256 245.641 170.358 245.641 169.249C245.641 168.141 246.764 167.243 248.149 167.243C249.535 167.243 250.658 168.141 250.658 169.249C250.658 170.358 249.535 171.256 248.149 171.256Z" fill="#E1E4E5"/>
<path d="M309.751 105.681H309.816C310.205 111.186 314.3 111.271 314.3 111.271C314.3 111.271 309.784 111.359 309.784 117.721C309.784 111.359 305.27 111.271 305.27 111.271C305.27 111.271 309.362 111.186 309.751 105.681ZM131.734 31.6H131.848C132.517 41.2348 139.568 41.3832 139.568 41.3832C139.568 41.3832 131.792 41.5372 131.792 52.67C131.792 41.5372 124.016 41.3832 124.016 41.3832C124.016 41.3832 131.065 41.2348 131.734 31.6Z" fill="#E1E4E5"/>
</g>
<defs>
<linearGradient id="paint0_linear_34_12635" x1="165.238" y1="199.682" x2="128.621" y2="30.3477" gradientUnits="userSpaceOnUse">
<stop stop-color="white"/>
<stop offset="1" stop-color="#EEEEEE"/>
</linearGradient>
<linearGradient id="paint1_linear_34_12635" x1="263.966" y1="101.742" x2="333.108" y2="69.0769" gradientUnits="userSpaceOnUse">
<stop stop-color="white"/>
<stop offset="1" stop-color="#EEEEEE"/>
</linearGradient>
<linearGradient id="paint2_linear_34_12635" x1="324.327" y1="193.037" x2="267.959" y2="133.599" gradientUnits="userSpaceOnUse">
<stop stop-color="white"/>
<stop offset="1" stop-color="#EEEEEE"/>
</linearGradient>
<linearGradient id="paint3_linear_34_12635" x1="88.5378" y1="152.689" x2="32.4159" y2="64.7127" gradientUnits="userSpaceOnUse">
<stop stop-color="white"/>
<stop offset="1" stop-color="#EEEEEE"/>
</linearGradient>
<clipPath id="clip0_34_12635">
<rect width="360" height="240" fill="white"/>
</clipPath>
</defs>
</svg>
