<svg width="260" height="173" viewBox="0 0 260 173" fill="none" xmlns="http://www.w3.org/2000/svg">
<g clip-path="url(#clip0_195_55205)">
<path d="M0 0H260V173H0V0Z" fill="white"/>
<path d="M159.357 144.636C148.344 144.636 139.417 135.726 139.417 124.735C139.417 113.743 148.344 104.833 159.357 104.833C170.369 104.833 179.297 113.743 179.297 124.735C179.297 135.726 170.369 144.636 159.357 144.636Z" fill="url(#paint0_linear_195_55205)"/>
<path d="M188.381 135.96C165.242 135.96 146.484 117.238 146.484 94.1436C146.484 71.049 165.242 52.3271 188.381 52.3271C211.52 52.3271 230.278 71.049 230.278 94.1436C230.278 117.238 211.52 135.96 188.381 135.96Z" fill="url(#paint1_linear_195_55205)"/>
<path d="M152.801 128.817C140.839 128.817 131.143 119.139 131.143 107.201C131.143 95.2628 140.839 85.585 152.801 85.585C164.762 85.585 174.458 95.2628 174.458 107.201C174.458 119.139 164.762 128.817 152.801 128.817Z" fill="url(#paint2_linear_195_55205)"/>
<path d="M165.92 101.472C142.781 101.472 124.023 82.7503 124.023 59.6558C124.023 36.5612 142.781 17.8394 165.92 17.8394C189.059 17.8394 207.817 36.5612 207.817 59.6558C207.817 82.7503 189.059 101.472 165.92 101.472Z" fill="url(#paint3_linear_195_55205)"/>
<path d="M129.281 135.354C117.32 135.354 107.623 125.676 107.623 113.738C107.623 101.799 117.32 92.1216 129.281 92.1216C141.242 92.1216 150.939 101.799 150.939 113.738C150.939 125.676 141.242 135.354 129.281 135.354Z" fill="url(#paint4_linear_195_55205)"/>
<path d="M108.906 109.232C85.7668 109.232 67.0089 90.5101 67.0089 67.4155C67.0089 44.321 85.7668 25.5991 108.906 25.5991C132.045 25.5991 150.803 44.321 150.803 67.4155C150.803 90.5101 132.045 109.232 108.906 109.232Z" fill="url(#paint5_linear_195_55205)"/>
<path d="M60.9636 111.815C84.1027 111.815 102.861 93.0931 102.861 69.9985C102.861 46.904 84.1027 28.1821 60.9636 28.1821C37.8246 28.1821 19.0667 46.904 19.0667 69.9985C19.0667 93.0931 37.8246 111.815 60.9636 111.815Z" fill="url(#paint6_linear_195_55205)"/>
<path d="M102.755 144.148C91.7423 144.148 82.8149 135.238 82.8149 124.247C82.8149 113.255 91.7423 104.345 102.755 104.345C113.767 104.345 122.695 113.255 122.695 124.247C122.695 135.238 113.767 144.148 102.755 144.148Z" fill="url(#paint7_linear_195_55205)"/>
<path d="M74.4672 134.068C51.3281 134.068 32.5702 115.347 32.5702 92.252C32.5702 69.1574 51.3281 50.4355 74.4672 50.4355C97.6062 50.4355 116.364 69.1574 116.364 92.252C116.364 115.347 97.6062 134.068 74.4672 134.068Z" fill="url(#paint8_linear_195_55205)"/>
<path d="M159.16 135.374H159.14C159.018 137.237 157.737 137.266 157.737 137.266C157.737 137.266 159.15 137.296 159.15 139.449C159.15 137.296 160.563 137.266 160.563 137.266C160.563 137.266 159.282 137.237 159.16 135.374ZM194.802 127.539H194.783C194.675 129.258 193.536 129.285 193.536 129.285C193.536 129.285 194.792 129.312 194.792 131.3C194.792 129.312 196.048 129.285 196.048 129.285C196.048 129.285 194.91 129.258 194.802 127.539ZM106.523 121.897H106.487C106.274 124.899 104.037 124.945 104.037 124.945C104.037 124.945 106.504 124.993 106.504 128.462C106.504 124.993 108.971 124.945 108.971 124.945C108.971 124.945 106.735 124.899 106.523 121.897ZM215.492 92.1116H215.462C215.285 94.6135 213.421 94.6518 213.421 94.6518C213.421 94.6518 215.477 94.6919 215.477 97.5827C215.477 94.6919 217.533 94.6518 217.533 94.6518C217.533 94.6518 215.669 94.6135 215.492 92.1116ZM203.158 103.138H203.128C202.951 105.64 201.087 105.679 201.087 105.679C201.087 105.679 203.143 105.719 203.143 108.609C203.143 105.719 205.198 105.679 205.198 105.679C205.198 105.679 203.335 105.64 203.158 103.138ZM183.628 99.4978H183.601C183.441 101.749 181.764 101.784 181.764 101.784C181.764 101.784 183.614 101.82 183.614 104.422C183.614 101.82 185.464 101.784 185.464 101.784C185.464 101.784 183.787 101.749 183.628 99.4978ZM161.009 110.167H160.994C160.905 111.668 159.973 111.691 159.973 111.691C159.973 111.691 161.001 111.715 161.001 113.449C161.001 111.715 162.029 111.691 162.029 111.691C162.029 111.691 161.098 111.668 161.009 110.167ZM185.065 38.9034H185.041C184.9 40.9047 183.408 40.9356 183.408 40.9356C183.408 40.9356 185.053 40.9676 185.053 43.2803C185.053 40.9676 186.697 40.9356 186.697 40.9356C186.697 40.9356 185.206 40.9047 185.065 38.9034ZM134.661 36.437H134.625C134.413 39.2514 132.176 39.2947 132.176 39.2947C132.176 39.2947 134.643 39.3399 134.643 42.5921C134.643 39.3399 137.109 39.2947 137.109 39.2947C137.109 39.2947 134.873 39.2514 134.661 36.437ZM205.829 66.9435H205.802C205.643 69.1951 203.965 69.23 203.965 69.23C203.965 69.23 205.815 69.2661 205.815 71.8677C205.815 69.2661 207.665 69.23 207.665 69.23C207.665 69.23 205.988 69.1951 205.829 66.9435ZM185.897 75.2873H185.855C185.607 79.04 182.997 79.0979 182.997 79.0979C182.997 79.0979 185.875 79.1579 185.875 83.4942C185.875 79.1579 188.753 79.0979 188.753 79.0979C188.753 79.0979 186.144 79.04 185.897 75.2873ZM88.4602 43.6906H88.4122C88.1294 47.6935 85.1466 47.7552 85.1466 47.7552C85.1466 47.7552 88.4356 47.8193 88.4356 52.4447C88.4356 47.8193 91.7246 47.7552 91.7246 47.7552C91.7246 47.7552 88.7433 47.6935 88.4602 43.6906ZM154.23 39.2612H154.206C154.064 41.2626 152.573 41.2934 152.573 41.2934C152.573 41.2934 154.217 41.3254 154.217 43.6381C154.217 41.3254 155.862 41.2934 155.862 41.2934C155.862 41.2934 154.371 41.2626 154.23 39.2612ZM76.6897 73.0023H76.6538C76.4415 75.8167 74.2043 75.86 74.2043 75.86C74.2043 75.86 76.6712 75.9052 76.6712 79.1573C76.6712 75.9052 79.138 75.86 79.138 75.86C79.138 75.86 76.902 75.8167 76.6897 73.0023Z" fill="white"/>
<path d="M196.976 58.2243H191.699M40.9831 78.1968V72.9307V78.1968ZM43.6212 75.5638H38.345H43.6212ZM69.6256 57.6978V52.4316V57.6978ZM72.2637 55.0647H66.9874H72.2637ZM52.976 98.6414V93.3753V98.6414ZM55.6142 96.0083H50.3379H55.6142ZM194.337 60.8573V55.5915V60.8573Z" stroke="white" stroke-width="1.15556" stroke-linecap="round" stroke-linejoin="round"/>
<path d="M204.141 87.0235C205.787 87.0235 207.122 85.6912 207.122 84.0479C207.122 82.4045 205.787 81.0723 204.141 81.0723C202.494 81.0723 201.159 82.4045 201.159 84.0479C201.159 85.6912 202.494 87.0235 204.141 87.0235Z" fill="#0071EB"/>
<path d="M123.061 102.603C124.147 102.603 125.027 101.724 125.027 100.64C125.027 99.556 124.147 98.6772 123.061 98.6772C121.975 98.6772 121.094 99.556 121.094 100.64C121.094 101.724 121.975 102.603 123.061 102.603Z" fill="#0071EB"/>
<path d="M60.8579 85.8531C62.679 85.8531 64.1553 84.3796 64.1553 82.562C64.1553 80.7444 62.679 79.271 60.8579 79.271C59.0368 79.271 57.5605 80.7444 57.5605 82.562C57.5605 84.3796 59.0368 85.8531 60.8579 85.8531Z" fill="#0071EB"/>
<path d="M72.3246 115.674C73.8598 115.674 75.1043 114.432 75.1043 112.9C75.1043 111.368 73.8598 110.125 72.3246 110.125C70.7894 110.125 69.5449 111.368 69.5449 112.9C69.5449 114.432 70.7894 115.674 72.3246 115.674Z" fill="#E1E4E5"/>
<path d="M44.2636 51.3857C43.867 52.8632 44.7455 54.382 46.2259 54.7779C47.7063 55.1738 49.228 54.297 49.6247 52.8194C50.0213 51.3418 49.1428 49.8231 47.6624 49.4272C46.182 49.0313 44.6603 49.9081 44.2636 51.3857Z" fill="#E1E4E5"/>
<path d="M131.044 20.9734C132.778 20.9734 134.184 19.5702 134.184 17.8393C134.184 16.1083 132.778 14.7051 131.044 14.7051C129.31 14.7051 127.904 16.1083 127.904 17.8393C127.904 19.5702 129.31 20.9734 131.044 20.9734Z" fill="#E1E4E5"/>
<path d="M165.151 27.6875H165.076C164.634 34.0672 159.973 34.1655 159.973 34.1655C159.973 34.1655 165.112 34.2676 165.112 41.6394C165.112 34.2676 170.252 34.1655 170.252 34.1655C170.252 34.1655 165.593 34.0672 165.151 27.6875Z" fill="#E1E4E5"/>
<path fill-rule="evenodd" clip-rule="evenodd" d="M168.786 60.7959V104.935C168.786 109.791 164.806 113.763 159.941 113.763H98.0269C93.1623 113.763 89.182 109.791 89.182 104.935V60.7959" fill="#0071EB"/>
<path d="M168.786 60.7959V104.935C168.786 109.791 164.806 113.763 159.941 113.763H98.0269C93.1623 113.763 89.182 109.791 89.182 104.935V60.7959" stroke="#0071EB" stroke-width="1.30924"/>
<path fill-rule="evenodd" clip-rule="evenodd" d="M166.186 111.168L139.236 84.269L166.186 111.168Z" fill="white"/>
<path d="M166.186 111.168L139.236 84.269" stroke="#03111E" stroke-width="1.30924"/>
<path fill-rule="evenodd" clip-rule="evenodd" d="M118.547 84.4541L91.782 111.167L118.547 84.4541Z" fill="white"/>
<path d="M118.547 84.4541L91.782 111.167" stroke="#03111E" stroke-width="1.30924"/>
<path fill-rule="evenodd" clip-rule="evenodd" d="M168.786 59.9129C168.786 62.5612 167.46 64.7681 165.248 66.5339L138.714 84.6308C132.522 88.6035 125.004 88.6035 118.813 84.6308L92.2778 66.975C90.5089 64.7681 89.1821 62.5612 89.1821 59.9129C89.1777 58.8683 89.3806 57.8331 89.7791 56.8672C90.1776 55.9013 90.7638 55.0236 91.5039 54.285C92.244 53.5464 93.1233 52.9613 94.0911 52.5636C95.0589 52.1659 96.0961 51.9634 97.1427 51.9678H160.826C161.873 51.9635 162.91 52.166 163.877 52.5637C164.845 52.9614 165.724 53.5465 166.465 54.2851C167.205 55.0237 167.791 55.9013 168.189 56.8673C168.588 57.8332 168.791 58.8683 168.786 59.9129Z" fill="#03111E" stroke="#0071EB" stroke-width="1.30924"/>
<path d="M223.942 116.379C223.942 116.379 207.42 112.61 198.996 115.285C190.661 117.933 170.643 129.006 152.254 129.817C152.082 129.826 151.913 129.774 151.775 129.672C151.637 129.569 151.54 129.421 151.499 129.255C151.215 128.034 151.24 125.135 156.865 122.738C164.193 119.631 169.741 117.106 169.741 117.106C169.741 117.106 137.303 105.853 128.741 102.151C127.05 101.421 125.773 100.645 124.801 99.8491C121.772 97.3654 124.522 92.5315 128.243 93.7659L150.022 100.982C150.022 100.982 148.244 99.0727 149.157 96.9283C150.026 94.9022 154.161 93.8236 157.509 95.1508C157.509 95.1508 155.694 92.8389 157.641 90.5054C159.587 88.1716 163.81 88.5935 165.814 89.2174C165.814 89.2174 163.603 87.3877 164.52 85.3045C165.436 83.2213 170.19 82.5638 171.675 82.8262C173.159 83.0886 185.858 83.1059 203.668 91.6132L228.858 87.9493C228.858 87.9493 235.799 94.5917 223.942 116.379Z" fill="#F8AE9D"/>
</g>
<defs>
<linearGradient id="paint0_linear_195_55205" x1="158.506" y1="166.952" x2="159.731" y2="61.5337" gradientUnits="userSpaceOnUse">
<stop stop-color="white"/>
<stop offset="1" stop-color="#EEEEEE"/>
</linearGradient>
<linearGradient id="paint1_linear_195_55205" x1="186.594" y1="182.849" x2="189.168" y2="-38.6513" gradientUnits="userSpaceOnUse">
<stop stop-color="white"/>
<stop offset="1" stop-color="#EEEEEE"/>
</linearGradient>
<linearGradient id="paint2_linear_195_55205" x1="151.877" y1="153.056" x2="153.208" y2="38.5557" gradientUnits="userSpaceOnUse">
<stop stop-color="white"/>
<stop offset="1" stop-color="#EEEEEE"/>
</linearGradient>
<linearGradient id="paint3_linear_195_55205" x1="164.133" y1="148.362" x2="166.707" y2="-73.1391" gradientUnits="userSpaceOnUse">
<stop stop-color="white"/>
<stop offset="1" stop-color="#EEEEEE"/>
</linearGradient>
<linearGradient id="paint4_linear_195_55205" x1="128.358" y1="159.592" x2="129.688" y2="45.0923" gradientUnits="userSpaceOnUse">
<stop stop-color="white"/>
<stop offset="1" stop-color="#EEEEEE"/>
</linearGradient>
<linearGradient id="paint5_linear_195_55205" x1="107.119" y1="156.121" x2="109.693" y2="-65.3794" gradientUnits="userSpaceOnUse">
<stop stop-color="white"/>
<stop offset="1" stop-color="#EEEEEE"/>
</linearGradient>
<linearGradient id="paint6_linear_195_55205" x1="62.7504" y1="158.704" x2="60.1764" y2="-62.7964" gradientUnits="userSpaceOnUse">
<stop stop-color="white"/>
<stop offset="1" stop-color="#EEEEEE"/>
</linearGradient>
<linearGradient id="paint7_linear_195_55205" x1="101.904" y1="166.464" x2="103.129" y2="61.0459" gradientUnits="userSpaceOnUse">
<stop stop-color="white"/>
<stop offset="1" stop-color="#EEEEEE"/>
</linearGradient>
<linearGradient id="paint8_linear_195_55205" x1="72.6804" y1="180.958" x2="75.2544" y2="-40.5429" gradientUnits="userSpaceOnUse">
<stop stop-color="white"/>
<stop offset="1" stop-color="#EEEEEE"/>
</linearGradient>
<clipPath id="clip0_195_55205">
<rect width="260" height="173" fill="white"/>
</clipPath>
</defs>
</svg>
