<svg width="260" height="173" viewBox="0 0 260 173" fill="none" xmlns="http://www.w3.org/2000/svg">
<g clip-path="url(#clip0_672_16877)">
<path d="M0 0H259.5V173H0V0Z" fill="white"/>
<path d="M197.403 57.3814C195.462 60.846 191.21 61.322 184.399 60.6635C179.277 60.1675 174.606 59.7837 169.483 56.9907C165.897 55.0369 163.059 52.3941 160.988 49.827C158.743 47.046 155.61 43.8721 157.146 40.7189C159.256 36.3875 171.463 32.7395 183.317 38.7051C196.338 45.2604 199.302 53.9955 197.403 57.3814Z" fill="url(#paint0_linear_672_16877)"/>
<path d="M217.364 75.8806C213.017 78.0368 207.248 75.2642 207.248 75.2642C207.248 75.2642 208.53 68.997 212.879 66.8437C217.226 64.6872 222.993 67.457 222.993 67.457C222.993 67.457 221.711 73.7242 217.364 75.8806Z" fill="url(#paint1_linear_672_16877)"/>
<path d="M42.9764 103.109C47.7988 105.999 54.7176 103.327 54.7176 103.327C54.7176 103.327 53.8128 95.9705 48.9876 93.0834C44.1652 90.1932 37.2495 92.8617 37.2495 92.8617C37.2495 92.8617 38.154 100.219 42.9764 103.109Z" fill="url(#paint2_linear_672_16877)"/>
<path d="M195.2 64.7043C193.018 64.7043 191.249 66.4734 191.249 68.6556C191.249 70.8379 193.018 72.6069 195.2 72.6069C197.382 72.6069 199.151 70.8379 199.151 68.6556C199.151 66.4734 197.382 64.7043 195.2 64.7043Z" fill="#FFC21A"/>
<path d="M95.0002 51.9404C93.2038 51.9404 91.7476 53.3967 91.7476 55.1931C91.7476 56.9895 93.2038 58.4458 95.0002 58.4458C96.7967 58.4458 98.2529 56.9895 98.2529 55.1931C98.2529 53.3967 96.7967 51.9404 95.0002 51.9404Z" fill="#FFC21A"/>
<path d="M66.1534 117.077C64.1075 117.077 62.4489 115.419 62.4489 113.373C62.4489 111.327 64.1075 109.668 66.1534 109.668C68.1993 109.668 69.8579 111.327 69.8579 113.373C69.8579 115.419 68.1993 117.077 66.1534 117.077Z" fill="#FFC21A"/>
<path d="M206.902 91.3688C205.947 91.3688 205.173 90.5948 205.173 89.64C205.173 88.6852 205.947 87.9111 206.902 87.9111C207.856 87.9111 208.63 88.6852 208.63 89.64C208.63 90.5948 207.856 91.3688 206.902 91.3688Z" fill="#FFC21A"/>
<path d="M216.389 141.962C215.161 141.962 214.166 140.967 214.166 139.739C214.166 138.512 215.161 137.517 216.389 137.517C217.616 137.517 218.611 138.512 218.611 139.739C218.611 140.967 217.616 141.962 216.389 141.962Z" fill="#E1E4E5"/>
<path d="M53.4754 124.212C51.7023 124.212 50.2649 122.774 50.2649 121.001C50.2649 119.228 51.7023 117.791 53.4754 117.791C55.2486 117.791 56.686 119.228 56.686 121.001C56.686 122.774 55.2486 124.212 53.4754 124.212Z" fill="#E1E4E5"/>
<path d="M216.029 121.517C214.679 121.517 213.585 120.423 213.585 119.074C213.585 117.724 214.679 116.63 216.029 116.63C217.378 116.63 218.472 117.724 218.472 119.074C218.472 120.423 217.378 121.517 216.029 121.517Z" fill="#E1E4E5"/>
<path d="M196.813 44.6838C195.313 44.6838 194.096 43.4675 194.096 41.9672C194.096 40.4668 195.313 39.2505 196.813 39.2505C198.313 39.2505 199.53 40.4668 199.53 41.9672C199.53 43.4675 198.313 44.6838 196.813 44.6838Z" fill="#E1E4E5"/>
<path d="M54.1588 78.9545C54.5075 80.2559 53.7352 81.5936 52.4337 81.9424C51.1323 82.2911 49.7946 81.5187 49.4459 80.2173C49.0971 78.9159 49.8695 77.5781 51.1709 77.2294C52.4724 76.8807 53.8101 77.653 54.1588 78.9545Z" fill="#E1E4E5"/>
<path d="M102.626 32.214C102.065 32.214 101.611 31.7595 101.611 31.1988C101.611 30.6381 102.065 30.1836 102.626 30.1836C103.187 30.1836 103.641 30.6381 103.641 31.1988C103.641 31.7595 103.187 32.214 102.626 32.214Z" fill="#E1E4E5"/>
<path d="M200.707 109.021C199.328 109.021 198.21 108.127 198.21 107.024C198.21 105.921 199.328 105.027 200.707 105.027C202.085 105.027 203.203 105.921 203.203 107.024C203.203 108.127 202.085 109.021 200.707 109.021Z" fill="#E1E4E5"/>
<path d="M147.543 31.5993C147.795 32.5414 147.236 33.5098 146.294 33.7623C145.352 34.0147 144.383 33.4556 144.131 32.5135C143.878 31.5714 144.438 30.603 145.38 30.3505C146.322 30.0981 147.29 30.6572 147.543 31.5993Z" fill="#E1E4E5"/>
<path d="M72.4195 47.8789H72.4552C72.6657 50.8626 74.8847 50.9084 74.8847 50.9084C74.8847 50.9084 72.4376 50.9563 72.4376 54.4039C72.4376 50.9563 69.9908 50.9084 69.9908 50.9084C69.9908 50.9084 72.209 50.8626 72.4195 47.8789ZM70.8723 135.486H70.9063C71.1084 138.461 73.2389 138.506 73.2389 138.506C73.2389 138.506 70.8896 138.554 70.8896 141.991C70.8896 138.554 68.5405 138.506 68.5405 138.506C68.5405 138.506 70.6699 138.461 70.8723 135.486Z" fill="#E1E4E5"/>
<path opacity="0.15" d="M189.884 81.9975C184.891 88.2255 176.303 87.7648 163.016 84.2088C153.022 81.5327 143.887 79.2281 134.652 71.9973C128.188 66.939 123.433 60.7606 120.174 54.9859C116.641 48.7299 111.477 41.4016 115.565 35.6569C121.182 27.7658 146.591 24.5656 168.124 40.3112C191.777 57.6114 194.769 75.9111 189.884 81.9975Z" fill="#FFC21A"/>
<path opacity="0.15" d="M174.784 123.2C172.378 136.874 139.596 158.196 109.418 140.47C95.3827 132.225 98.4881 124.677 89.3837 111.662C83.9567 103.905 75.1841 96.9534 74.525 87.358C73.9541 79.0753 77.338 71.1017 82.6998 66.6499C94.7585 56.6384 115.333 52.6455 129.247 76.0694C143.16 99.4933 180.985 87.9335 174.784 123.2Z" fill="#FFC21A"/>
<path d="M163.351 146.975H106.79V144.544C106.79 143.081 107.977 141.894 109.443 141.894H160.808C162.212 141.894 163.351 143.032 163.351 144.435V146.975Z" fill="#E1E4E5"/>
<path d="M150.485 46.6528H119.026C100.772 46.6528 99.3642 63.0607 109.22 71.993L160.292 118.401C170.147 127.333 168.739 143.741 150.485 143.741H119.026C100.772 143.741 99.3642 127.333 109.22 118.401L160.292 71.993C170.147 63.0607 168.739 46.6528 150.485 46.6528Z" fill="white" stroke="#E1E4E5" stroke-width="1.19311"/>
<path fill-rule="evenodd" clip-rule="evenodd" d="M139.482 66.9571V54.3684C139.483 52.2875 140.029 50.2431 141.066 48.4391C142.103 46.6351 143.595 45.1347 145.394 44.0876L157.29 37.1642C159.107 36.1071 161.171 35.5503 163.273 35.5503C165.376 35.5503 167.44 36.1071 169.257 37.1642L181.153 44.0876C182.952 45.1342 184.445 46.6344 185.483 48.4385C186.52 50.2425 187.066 52.2872 187.067 54.3684V66.9571C187.066 69.038 186.521 71.0825 185.483 72.8865C184.446 74.6905 182.954 76.191 181.156 77.2382L169.26 84.1616C167.443 85.2186 165.378 85.7755 163.276 85.7755C161.174 85.7755 159.109 85.2186 157.292 84.1616L145.396 77.2382C143.597 76.1916 142.104 74.6913 141.067 72.8872C140.029 71.0831 139.483 69.0383 139.482 66.9571Z" fill="#FFC21A"/>
<path d="M163.272 69.9153C163.185 69.9152 163.099 69.9322 163.019 69.9654C162.939 69.9986 162.866 70.0473 162.805 70.1087C162.744 70.1702 162.695 70.2431 162.662 70.3233C162.63 70.4035 162.613 70.4894 162.613 70.5761C162.617 70.7491 162.688 70.9137 162.812 71.0347C162.935 71.1557 163.101 71.2235 163.274 71.2235C163.447 71.2235 163.613 71.1557 163.737 71.0347C163.86 70.9137 163.932 70.7491 163.935 70.5761C163.935 70.4891 163.918 70.403 163.884 70.3227C163.851 70.2424 163.802 70.1695 163.74 70.1081C163.679 70.0467 163.606 69.9981 163.525 69.965C163.445 69.9319 163.359 69.915 163.272 69.9153M163.274 60.6627V48.7666V60.6627Z" stroke="white" stroke-width="4.49454" stroke-linecap="round" stroke-linejoin="round"/>
</g>
<defs>
<linearGradient id="paint0_linear_672_16877" x1="184.326" y1="79.8342" x2="167.024" y2="2.08478" gradientUnits="userSpaceOnUse">
<stop stop-color="white"/>
<stop offset="1" stop-color="#EEEEEE"/>
</linearGradient>
<linearGradient id="paint1_linear_672_16877" x1="200.672" y1="82.6063" x2="236.525" y2="54.2467" gradientUnits="userSpaceOnUse">
<stop stop-color="white"/>
<stop offset="1" stop-color="#EEEEEE"/>
</linearGradient>
<linearGradient id="paint2_linear_672_16877" x1="61.6379" y1="112.412" x2="22.8352" y2="76.3595" gradientUnits="userSpaceOnUse">
<stop stop-color="white"/>
<stop offset="1" stop-color="#EEEEEE"/>
</linearGradient>
<clipPath id="clip0_672_16877">
<rect width="259.5" height="173" fill="white"/>
</clipPath>
</defs>
</svg>
