<svg width="260" height="173" viewBox="0 0 260 173" fill="none" xmlns="http://www.w3.org/2000/svg">
  <g clip-path="url(#clip0_301_10940)">
    <path d="M0 0H260V173H0V0Z" fill="white"/>
    <path opacity="0.15" d="M188.363 102.321C189.282 119.217 156.186 153.572 115.393 140.856C96.4202 134.942 98.0273 125.125 83.6005 112.187C75.0014 104.475 62.6462 98.6445 59.2099 87.4355C56.2412 77.7608 58.0615 67.3617 63.2084 60.5977C74.783 45.3861 98.1498 34.9698 121.174 58.9369C144.197 82.9041 185.989 58.7458 188.363 102.321Z" fill="#3B82F6"/>
    <path opacity="0.15" d="M167.933 53.7375C165.191 58.6207 159.187 59.2917 149.569 58.3636C142.335 57.6643 135.738 57.1234 128.503 53.1865C123.44 50.4329 119.431 46.7077 116.506 43.0894C113.336 39.1695 108.911 34.696 111.08 30.2516C114.061 24.1465 131.3 19.0046 148.039 27.4133C166.428 36.6529 170.614 48.9647 167.933 53.7375Z" fill="#3B82F6"/>
    <path fill-rule="evenodd" clip-rule="evenodd" d="M149.876 131.974H106.582C101.108 131.974 96.5585 127.758 96.1506 122.304L91.4604 58.9126H164.841L160.307 122.278C159.915 127.742 155.361 131.974 149.876 131.974Z" fill="#3B82F6" stroke="#3B82F6" stroke-width="7.05004" stroke-linecap="round" stroke-linejoin="round"/>
    <path d="M128.239 79.7871V111.099" stroke="white" stroke-width="7.05004" stroke-linecap="round" stroke-linejoin="round"/>
    <path d="M154.383 58.9128L149.086 44.8119C148.339 42.822 147.001 41.1072 145.251 39.8967C143.5 38.6863 141.422 38.0378 139.293 38.0381H117.186C115.056 38.0378 112.978 38.6863 111.228 39.8967C109.478 41.1072 108.139 42.822 107.392 44.8119L102.095 58.9128M86.4092 58.9128H170.069H86.4092Z" stroke="#3B82F6" stroke-width="7.05004" stroke-linecap="round" stroke-linejoin="round"/>
    <path d="M110.305 79.7871L112.553 111.099M146.174 79.7871L143.926 111.099L146.174 79.7871Z" stroke="white" stroke-width="7.05004" stroke-linecap="round" stroke-linejoin="round"/>
    <path d="M45.1832 98.0993C47.0576 101.617 52.2446 102.525 52.2446 102.525C52.2446 102.525 54.3896 97.7282 52.5124 94.2112C50.638 90.6932 45.4539 89.7847 45.4539 89.7847C45.4539 89.7847 43.3089 94.5814 45.1832 98.0993Z" fill="url(#paint0_linear_301_10940)"/>
    <path d="M179.345 40.3894C180.782 38.2762 179.746 35.0693 179.746 35.0693C179.746 35.0693 176.379 35.2911 174.943 37.4057C173.506 39.5192 174.541 42.7246 174.541 42.7246C174.541 42.7246 177.907 42.5029 179.345 40.3894Z" fill="url(#paint1_linear_301_10940)"/>
    <path d="M185.429 70.5692C181.204 69.7166 178.665 64.6385 178.665 64.6385C178.665 64.6385 182.978 60.9453 187.203 61.801C191.429 62.6536 193.968 67.7286 193.968 67.7286C193.968 67.7286 189.654 71.4218 185.429 70.5692Z" fill="url(#paint2_linear_301_10940)"/>
    <path d="M181.882 51.8985C183.694 51.8985 185.162 50.4329 185.162 48.625C185.162 46.8171 183.694 45.3516 181.882 45.3516C180.071 45.3516 178.603 46.8171 178.603 48.625C178.603 50.4329 180.071 51.8985 181.882 51.8985Z" fill="#3B82F6"/>
    <path d="M193.47 82.2383C194.94 82.2383 196.131 81.0494 196.131 79.5828C196.131 78.1162 194.94 76.9272 193.47 76.9272C192.001 76.9272 190.81 78.1162 190.81 79.5828C190.81 81.0494 192.001 82.2383 193.47 82.2383Z" fill="#E1E4E5"/>
    <path d="M98.0099 33.1837C99.6566 33.1837 100.992 31.8514 100.992 30.2078C100.992 28.5643 99.6566 27.2319 98.0099 27.2319C96.3632 27.2319 95.0283 28.5643 95.0283 30.2078C95.0283 31.8514 96.3632 33.1837 98.0099 33.1837Z" fill="#E1E4E5"/>
    <path d="M188.619 136.319C188.619 137.557 189.625 138.562 190.866 138.562C192.107 138.562 193.113 137.557 193.113 136.319C193.113 135.08 192.107 134.076 190.866 134.076C189.625 134.076 188.619 135.08 188.619 136.319Z" fill="#E1E4E5"/>
    <path d="M68.2739 39.5508C67.837 41.1783 68.8047 42.8512 70.4354 43.2873C72.066 43.7234 73.7421 42.7575 74.1791 41.13C74.616 39.5025 73.6483 37.8296 72.0176 37.3935C70.387 36.9574 68.7109 37.9232 68.2739 39.5508Z" fill="#E1E4E5"/>
  </g>
  <defs>
    <linearGradient id="paint0_linear_301_10940" x1="53.1257" y1="110.571" x2="42.7689" y2="74.4852" gradientUnits="userSpaceOnUse">
      <stop stop-color="white"/>
      <stop offset="1" stop-color="#EEEEEE"/>
    </linearGradient>
    <linearGradient id="paint1_linear_301_10940" x1="184.053" y1="32.1632" x2="166.703" y2="48.8729" gradientUnits="userSpaceOnUse">
      <stop stop-color="white"/>
      <stop offset="1" stop-color="#EEEEEE"/>
    </linearGradient>
    <linearGradient id="paint2_linear_301_10940" x1="170.051" y1="66.2068" x2="210.659" y2="65.8293" gradientUnits="userSpaceOnUse">
      <stop stop-color="white"/>
      <stop offset="1" stop-color="#EEEEEE"/>
    </linearGradient>
    <clipPath id="clip0_301_10940">
      <rect width="260" height="173" fill="white"/>
    </clipPath>
  </defs>
</svg>
