<svg width="721" height="481" viewBox="0 0 721 481" fill="none" xmlns="http://www.w3.org/2000/svg">
<g clip-path="url(#clip0_195_55326)">
<path d="M506.366 287.417C499.529 290.808 490.454 286.447 490.454 286.447C490.454 286.447 492.471 276.59 499.312 273.203C506.149 269.811 515.219 274.168 515.219 274.168C515.219 274.168 513.203 284.025 506.366 287.417Z" fill="url(#paint0_linear_195_55326)"/>
<path d="M198.119 281.939C209.306 288.644 225.358 282.445 225.358 282.445C225.358 282.445 223.259 265.378 212.064 258.68C200.877 251.975 184.832 258.166 184.832 258.166C184.832 258.166 186.931 275.233 198.119 281.939Z" fill="url(#paint1_linear_195_55326)"/>
<path d="M200.977 462.078C198.715 462.078 196.881 460.244 196.881 457.982C196.881 455.72 198.715 453.886 200.977 453.886C203.239 453.886 205.073 455.72 205.073 457.982C205.073 460.244 203.239 462.078 200.977 462.078Z" fill="#E1E4E5"/>
<path d="M502.745 468.398C499.141 468.398 496.22 465.477 496.22 461.874C496.22 458.27 499.141 455.349 502.745 455.349C506.349 455.349 509.27 458.27 509.27 461.874C509.27 465.477 506.349 468.398 502.745 468.398Z" fill="#E1E4E5"/>
<path d="M469.614 247.131C465.608 247.131 462.36 243.883 462.36 239.877C462.36 235.871 465.608 232.623 469.614 232.623C473.621 232.623 476.868 235.871 476.868 239.877C476.868 243.883 473.621 247.131 469.614 247.131Z" fill="#E1E4E5"/>
<path d="M148.56 298.359C149.491 301.834 147.429 305.405 143.954 306.337C140.479 307.268 136.907 305.205 135.976 301.731C135.045 298.256 137.107 294.684 140.582 293.753C144.057 292.821 147.629 294.884 148.56 298.359Z" fill="#E1E4E5"/>
<path d="M261.092 243.935C256.306 243.935 252.426 240.055 252.426 235.269C252.426 230.483 256.306 226.604 261.092 226.604C265.878 226.604 269.757 230.483 269.757 235.269C269.757 240.055 265.878 243.935 261.092 243.935Z" fill="#E1E4E5"/>
<path d="M579.334 420.505C575.652 420.505 572.667 418.117 572.667 415.172C572.667 412.227 575.652 409.839 579.334 409.839C583.015 409.839 586 412.227 586 415.172C586 418.117 583.015 420.505 579.334 420.505Z" fill="#E1E4E5"/>
<path d="M140.869 447.314H140.96C141.5 455.258 147.189 455.38 147.189 455.38C147.189 455.38 140.916 455.507 140.916 464.686C140.916 455.507 134.643 455.38 134.643 455.38C134.643 455.38 140.329 455.258 140.869 447.314Z" fill="#E1E4E5"/>
<path fill-rule="evenodd" clip-rule="evenodd" d="M248.663 311.289V437.701C248.663 459.523 298.185 477.204 359.274 477.204C420.363 477.204 469.884 459.523 469.884 437.701V311.289C469.884 289.467 420.363 271.785 359.274 271.785C298.185 271.785 248.663 289.467 248.663 311.289Z" fill="white" stroke="#E1E4E5" stroke-width="2.73066"/>
<path fill-rule="evenodd" clip-rule="evenodd" d="M469.884 311.288C469.884 333.11 420.363 350.792 359.274 350.792C298.185 350.792 248.663 333.11 248.663 311.288" fill="white"/>
<path d="M469.884 311.288C469.884 333.11 420.363 350.792 359.274 350.792C298.185 350.792 248.663 333.11 248.663 311.288" stroke="#E1E4E5" stroke-width="2.73066"/>
<path fill-rule="evenodd" clip-rule="evenodd" d="M469.884 374.495C469.884 396.316 420.363 413.998 359.274 413.998C298.185 413.998 248.663 396.316 248.663 374.495" fill="white"/>
<path d="M469.884 374.495C469.884 396.316 420.363 413.998 359.274 413.998C298.185 413.998 248.663 396.316 248.663 374.495" stroke="#E1E4E5" stroke-width="2.73066"/>
<path d="M279.137 378.6C284.332 378.6 288.543 374.388 288.543 369.194C288.543 363.999 284.332 359.788 279.137 359.788C273.943 359.788 269.732 363.999 269.732 369.194C269.732 374.388 273.943 378.6 279.137 378.6Z" fill="#0071EB"/>
<path d="M279.137 440.3C284.332 440.3 288.543 436.089 288.543 430.894C288.543 425.699 284.332 421.488 279.137 421.488C273.943 421.488 269.732 425.699 269.732 430.894C269.732 436.089 273.943 440.3 279.137 440.3Z" fill="#0071EB"/>
<path opacity="0.3" d="M200.122 432.171H193.038M561.3 364.45H518.794H561.3ZM561.3 389.666H518.794H561.3ZM518.794 343.198H547.132H518.794ZM518.794 410.918H547.131H518.794ZM518.794 321.944H525.879H518.794ZM518.794 432.171H525.878H518.794ZM157.616 364.45H200.122H157.616ZM157.616 389.666H200.122H157.616ZM200.122 343.198H171.784H200.122ZM200.122 410.919H171.784H200.122ZM200.122 321.945H193.038H200.122Z" stroke="#DEDEDE" stroke-width="8.83709" stroke-linecap="round" stroke-linejoin="round"/>
<path d="M461.679 92.1222C458.089 98.5284 450.228 99.4087 437.632 98.1914C428.16 97.2741 419.522 96.5643 410.049 91.3994C403.418 87.7867 398.17 82.8992 394.339 78.1523C390.188 73.0094 384.394 67.1406 387.234 61.3099C391.138 53.3001 413.711 46.5541 435.63 57.5857C459.709 69.7081 465.191 85.8606 461.679 92.1222Z" fill="url(#paint2_linear_195_55326)"/>
<path d="M498.591 126.331C490.553 130.319 479.884 125.192 479.884 125.192C479.884 125.192 482.255 113.602 490.298 109.62C498.335 105.633 509 110.755 509 110.755C509 110.755 506.629 122.344 498.591 126.331Z" fill="url(#paint3_linear_195_55326)"/>
<path d="M176.113 176.682C185.031 182.026 197.825 177.086 197.825 177.086C197.825 177.086 196.152 163.481 187.229 158.143C178.311 152.798 165.523 157.733 165.523 157.733C165.523 157.733 167.196 171.337 176.113 176.682Z" fill="url(#paint4_linear_195_55326)"/>
<path d="M457.605 105.664C453.57 105.664 450.299 108.935 450.299 112.97C450.299 117.006 453.57 120.277 457.605 120.277C461.641 120.277 464.912 117.006 464.912 112.97C464.912 108.935 461.641 105.664 457.605 105.664Z" fill="#0071EB"/>
<path d="M408.977 202.995C402.643 202.995 397.509 208.13 397.509 214.464C397.509 220.797 402.643 225.932 408.977 225.932C415.311 225.932 420.446 220.797 420.446 214.464C420.446 208.13 415.311 202.995 408.977 202.995Z" fill="#0071EB"/>
<path d="M272.316 82.0599C268.994 82.0599 266.3 84.753 266.3 88.0751C266.3 91.3972 268.994 94.0903 272.316 94.0903C275.638 94.0903 278.331 91.3972 278.331 88.0751C278.331 84.753 275.638 82.0599 272.316 82.0599Z" fill="#0071EB"/>
<path d="M218.971 202.512C215.188 202.512 212.121 199.445 212.121 195.662C212.121 191.879 215.188 188.812 218.971 188.812C222.754 188.812 225.821 191.879 225.821 195.662C225.821 199.445 222.754 202.512 218.971 202.512Z" fill="#0071EB"/>
<path d="M479.245 154.972C477.479 154.972 476.048 153.54 476.048 151.775C476.048 150.009 477.479 148.578 479.245 148.578C481.01 148.578 482.442 150.009 482.442 151.775C482.442 153.54 481.01 154.972 479.245 154.972Z" fill="#0071EB"/>
<path d="M496.789 248.53C494.519 248.53 492.679 246.69 492.679 244.42C492.679 242.15 494.519 240.31 496.789 240.31C499.059 240.31 500.899 242.15 500.899 244.42C500.899 246.69 499.059 248.53 496.789 248.53Z" fill="#E1E4E5"/>
<path d="M195.527 215.705C192.248 215.705 189.59 213.048 189.59 209.769C189.59 206.49 192.248 203.832 195.527 203.832C198.806 203.832 201.464 206.49 201.464 209.769C201.464 213.048 198.806 215.705 195.527 215.705Z" fill="#E1E4E5"/>
<path d="M496.122 210.723C493.627 210.723 491.604 208.7 491.604 206.205C491.604 203.709 493.627 201.686 496.122 201.686C498.618 201.686 500.641 203.709 500.641 206.205C500.641 208.7 498.618 210.723 496.122 210.723Z" fill="#E1E4E5"/>
<path d="M460.59 68.642C457.815 68.642 455.566 66.393 455.566 63.6186C455.566 60.8443 457.815 58.5952 460.59 58.5952C463.364 58.5952 465.613 60.8443 465.613 63.6186C465.613 66.393 463.364 68.642 460.59 68.642Z" fill="#E1E4E5"/>
<path d="M196.791 132.015C197.436 134.422 196.008 136.895 193.601 137.54C191.195 138.185 188.721 136.757 188.076 134.35C187.432 131.944 188.86 129.47 191.266 128.826C193.673 128.181 196.146 129.609 196.791 132.015Z" fill="#E1E4E5"/>
<path d="M286.417 45.5828C285.38 45.5828 284.54 44.7422 284.54 43.7052C284.54 42.6683 285.38 41.8276 286.417 41.8276C287.454 41.8276 288.295 42.6683 288.295 43.7052C288.295 44.7422 287.454 45.5828 286.417 45.5828Z" fill="#E1E4E5"/>
<path d="M467.79 187.614C465.24 187.614 463.173 185.961 463.173 183.921C463.173 181.882 465.24 180.228 467.79 180.228C470.339 180.228 472.406 181.882 472.406 183.921C472.406 185.961 470.339 187.614 467.79 187.614Z" fill="#E1E4E5"/>
<path d="M369.477 44.4455C369.944 46.1877 368.91 47.9784 367.168 48.4452C365.426 48.912 363.635 47.8782 363.168 46.136C362.701 44.3938 363.735 42.603 365.477 42.1362C367.219 41.6694 369.01 42.7033 369.477 44.4455Z" fill="#E1E4E5"/>
<path d="M230.559 74.5503H230.625C231.014 80.0676 235.117 80.1526 235.117 80.1526C235.117 80.1526 230.593 80.2411 230.593 86.6162C230.593 80.2411 226.068 80.1526 226.068 80.1526C226.068 80.1526 230.17 80.0676 230.559 74.5503ZM227.698 236.554H227.761C228.134 242.055 232.074 242.14 232.074 242.14C232.074 242.14 227.73 242.228 227.73 248.584C227.73 242.228 223.386 242.14 223.386 242.14C223.386 242.14 227.324 242.055 227.698 236.554Z" fill="#E1E4E5"/>
<path d="M429.217 130.615V118.857C429.217 105.865 418.694 95.3408 405.702 95.3408H353.201C351.266 95.3411 349.361 94.8637 347.654 93.9509C345.948 93.0382 344.493 91.7183 343.419 90.1084L326.887 65.3103C325.814 63.6981 324.36 62.3759 322.653 61.4611C320.947 60.5462 319.041 60.0672 317.104 60.0664H264.604C251.611 60.0664 241.088 70.5901 241.088 83.5828V234.71C241.088 242.165 247.12 248.196 254.574 248.196C260.524 248.196 265.78 244.293 267.485 238.59L294.846 147.382C297.832 137.423 306.992 130.615 317.374 130.615H433.086C448.783 130.615 460.071 145.689 455.65 160.751L434.944 231.3C432.004 241.318 422.821 248.196 412.38 248.196H254.574" stroke="white" stroke-width="1.99957" stroke-linecap="round" stroke-linejoin="round"/>
<path fill-rule="evenodd" clip-rule="evenodd" d="M269.616 108.974L257.042 96.4557C255.372 94.7946 253.112 93.8622 250.756 93.8623H218.868C213.955 93.8623 209.976 97.8234 209.976 102.715V164.684C209.976 169.574 213.955 173.536 218.868 173.536H263.329C268.242 173.536 272.222 169.574 272.222 164.684V115.232C272.222 112.887 271.283 110.634 269.616 108.974Z" fill="white" stroke="#E1E4E5" stroke-width="1.99957"/>
<path d="M251.355 112.536H229.182C222.471 112.536 217.031 117.976 217.031 124.688V146.86C217.031 153.572 222.471 159.012 229.182 159.012H251.355C258.066 159.012 263.507 153.572 263.507 146.86V124.688C263.507 117.976 258.066 112.536 251.355 112.536Z" fill="#0071EB" stroke="white" stroke-width="6.07619" stroke-linecap="round" stroke-linejoin="round"/>
<path d="M263.506 130.895C259.976 130.354 256.372 130.586 252.941 131.575C249.51 132.564 246.334 134.286 243.634 136.622C240.933 138.958 238.772 141.852 237.299 145.105C235.827 148.358 235.078 151.892 235.104 155.462C235.112 156.651 235.207 157.838 235.388 159.013M232.79 126.482C232.972 126.662 233.096 126.893 233.147 127.144C233.198 127.394 233.173 127.655 233.076 127.892C232.978 128.129 232.813 128.331 232.6 128.474C232.387 128.616 232.137 128.692 231.881 128.692C231.625 128.692 231.375 128.616 231.162 128.474C230.949 128.331 230.784 128.129 230.686 127.892C230.589 127.655 230.564 127.394 230.615 127.144C230.666 126.893 230.791 126.662 230.973 126.482C231.215 126.241 231.544 126.106 231.886 126.106C232.228 126.106 232.556 126.241 232.799 126.482H232.79Z" stroke="white" stroke-width="6.07619" stroke-linecap="round" stroke-linejoin="round"/>
<path fill-rule="evenodd" clip-rule="evenodd" d="M351.823 51.3299L339.9 39.4595C338.316 37.884 336.172 36.9998 333.938 37H303.7C299.041 37 295.267 40.7567 295.267 45.3947V104.159C295.267 108.797 299.041 112.554 303.7 112.554H345.862C350.521 112.554 354.294 108.797 354.294 104.159V57.2651C354.294 55.0406 353.404 52.9041 351.823 51.3299Z" fill="white" stroke="#E1E4E5" stroke-width="1.99957"/>
<path fill-rule="evenodd" clip-rule="evenodd" d="M336.411 81.1306L321.037 89.8307C317.252 91.9703 312.569 89.2204 312.569 84.8528V67.4561C312.569 63.085 317.244 60.3386 321.037 62.4781L336.411 71.1783C340.273 73.3563 340.273 78.9451 336.411 81.1306Z" fill="#0071EB"/>
<path fill-rule="evenodd" clip-rule="evenodd" d="M434.059 58.8661L423.006 47.8625C421.538 46.4023 419.551 45.5828 417.48 45.583H389.45C385.132 45.583 381.634 49.0648 381.634 53.3643V107.836C381.634 112.136 385.132 115.618 389.45 115.618H428.533C432.851 115.618 436.349 112.136 436.349 107.836V64.3675C436.349 62.3054 435.525 60.3248 434.059 58.8661Z" fill="white" stroke="#E1E4E5" stroke-width="1.99957"/>
<path d="M425.346 71.2581H408.224H425.346ZM425.346 81.6388H408.224H425.346ZM425.346 92.0191H408.224H425.346ZM396.96 70.8267C396.841 70.8267 396.726 70.8741 396.642 70.9587C396.557 71.0432 396.51 71.1578 396.51 71.2773C396.51 71.3968 396.557 71.5115 396.642 71.596C396.726 71.6805 396.841 71.728 396.96 71.728C397.08 71.728 397.195 71.6805 397.279 71.596C397.364 71.5115 397.411 71.3968 397.411 71.2773C397.411 71.1578 397.364 71.0432 397.279 70.9587C397.195 70.8741 397.08 70.8267 396.96 70.8267ZM396.96 81.1884C396.901 81.1884 396.843 81.2 396.788 81.2226C396.733 81.2452 396.684 81.2783 396.642 81.3201C396.6 81.3619 396.567 81.4115 396.544 81.4661C396.522 81.5207 396.51 81.5792 396.51 81.6383C396.51 81.6974 396.522 81.756 396.544 81.8106C396.567 81.8652 396.6 81.9149 396.642 81.9567C396.683 81.9985 396.733 82.0317 396.788 82.0544C396.842 82.077 396.901 82.0887 396.96 82.0887C397.079 82.0888 397.194 82.0414 397.278 81.9571C397.363 81.8727 397.41 81.7582 397.41 81.6388C397.41 81.5194 397.363 81.4049 397.279 81.3204C397.194 81.236 397.08 81.1885 396.96 81.1884V81.1884ZM396.96 91.5512C396.841 91.5512 396.726 91.5986 396.642 91.6831C396.557 91.7676 396.51 91.8821 396.51 92.0016C396.51 92.121 396.557 92.2356 396.642 92.3201C396.726 92.4045 396.841 92.452 396.96 92.452C397.08 92.452 397.194 92.4045 397.279 92.3201C397.363 92.2356 397.411 92.121 397.411 92.0016C397.411 91.8821 397.363 91.7676 397.279 91.6831C397.194 91.5986 397.08 91.5512 396.96 91.5512Z" stroke="#0071EB" stroke-width="4.71398" stroke-linecap="round" stroke-linejoin="round"/>
<path fill-rule="evenodd" clip-rule="evenodd" d="M355.453 182.256C336.799 184.729 322.382 200.096 322.382 218.886C322.382 239.392 339.507 256.021 360.623 256.021H444.755C461.651 256.021 475.349 242.719 475.349 226.313C475.349 209.907 461.651 196.605 444.755 196.605C444.755 171.992 424.212 152.043 398.865 152.043C378.697 152.043 361.61 164.692 355.453 182.256Z" fill="#0071EB"/>
<path d="M407.114 221.026V182.035M388.868 198.531L407.114 180.035L425.36 198.531H388.868Z" stroke="white" stroke-width="7.99827" stroke-linecap="round" stroke-linejoin="round"/>
<path d="M377.246 200.035L377.246 239.027M395.492 222.53L377.246 241.026L359 222.53L395.492 222.53Z" stroke="white" stroke-width="7.99827" stroke-linecap="round" stroke-linejoin="round"/>
</g>
<defs>
<linearGradient id="paint0_linear_195_55326" x1="480.111" y1="297.995" x2="536.502" y2="253.39" gradientUnits="userSpaceOnUse">
<stop stop-color="white"/>
<stop offset="1" stop-color="#EEEEEE"/>
</linearGradient>
<linearGradient id="paint1_linear_195_55326" x1="241.413" y1="303.523" x2="151.392" y2="219.881" gradientUnits="userSpaceOnUse">
<stop stop-color="white"/>
<stop offset="1" stop-color="#EEEEEE"/>
</linearGradient>
<linearGradient id="paint2_linear_195_55326" x1="437.497" y1="133.642" x2="405.501" y2="-10.1327" gradientUnits="userSpaceOnUse">
<stop stop-color="white"/>
<stop offset="1" stop-color="#EEEEEE"/>
</linearGradient>
<linearGradient id="paint3_linear_195_55326" x1="467.724" y1="138.769" x2="534.023" y2="86.3264" gradientUnits="userSpaceOnUse">
<stop stop-color="white"/>
<stop offset="1" stop-color="#EEEEEE"/>
</linearGradient>
<linearGradient id="paint4_linear_195_55326" x1="210.622" y1="193.886" x2="138.868" y2="127.217" gradientUnits="userSpaceOnUse">
<stop stop-color="white"/>
<stop offset="1" stop-color="#EEEEEE"/>
</linearGradient>
<clipPath id="clip0_195_55326">
<rect width="720.038" height="480.025" fill="white"/>
</clipPath>
</defs>
</svg>
