<svg width="260" height="173" viewBox="0 0 260 173" fill="none" xmlns="http://www.w3.org/2000/svg">
<g clip-path="url(#clip0_300_10866)">
<path d="M0 0H260V173H0V0Z" fill="white"/>
<path opacity="0.15" d="M208.511 62.9393C204.646 43.349 152.399 12.8019 104.399 38.1977C82.0748 50.0098 87.0387 60.8238 72.5772 79.4703C63.9574 90.5838 50.009 100.543 48.9846 114.29C48.0974 126.157 53.5057 137.58 62.0536 143.958C81.278 158.302 114.045 164.022 136.135 130.463C158.226 96.9038 218.475 113.465 208.511 62.9393Z" fill="#FFC21A"/>
<path fill-rule="evenodd" clip-rule="evenodd" d="M181.885 59.7734V45.0243C181.885 36.8783 175.269 30.2749 167.107 30.2749H93.2192C85.0578 30.2749 78.4414 36.8783 78.4414 45.0243V81.8972" fill="white"/>
<path d="M181.885 59.7734V45.0243C181.885 36.8783 175.269 30.2749 167.107 30.2749H93.2189C85.0575 30.2749 78.4414 36.8783 78.4414 45.0243V81.8972" stroke="#E1E4E5" stroke-width="1.19311"/>
<path fill-rule="evenodd" clip-rule="evenodd" d="M78.4414 62.3524H126.21C127.426 62.3525 128.624 62.053 129.696 61.4806C130.768 60.9081 131.683 60.0803 132.358 59.0705L142.724 43.5176C143.4 42.5033 144.318 41.6721 145.394 41.0982C146.471 40.5242 147.673 40.2254 148.894 40.2285H181.885C190.046 40.2285 196.663 46.832 196.663 54.9777V128.724C196.663 136.87 190.046 143.473 181.885 143.473H78.4414C70.28 143.473 63.6636 136.87 63.6636 128.724V77.1015C63.6636 68.9558 70.28 62.3524 78.4414 62.3524Z" fill="white" stroke="#E1E4E5" stroke-width="1.19311"/>
<path d="M204.244 142.436C202.649 142.436 201.356 141.21 201.356 139.697C201.356 138.184 202.649 136.958 204.244 136.958C205.84 136.958 207.133 138.184 207.133 139.697C207.133 141.21 205.84 142.436 204.244 142.436Z" fill="#E1E4E5"/>
<path d="M187.096 34.3915C186.355 34.3915 185.755 33.7926 185.755 33.0539C185.755 32.3152 186.355 31.7163 187.096 31.7163C187.836 31.7163 188.436 32.3152 188.436 33.0539C188.436 33.7926 187.836 34.3915 187.096 34.3915Z" fill="#E1E4E5"/>
<path opacity="0.2" d="M164.522 62.2799C163.006 62.2799 161.778 60.9889 161.778 59.3965C161.778 57.8041 163.006 56.5132 164.522 56.5132C166.038 56.5132 167.267 57.8041 167.267 59.3965C167.267 60.9889 166.038 62.2799 164.522 62.2799Z" fill="#FFC21A"/>
<path d="M73.7205 45.9191C73.9879 46.9152 73.3956 47.9391 72.3976 48.206C71.3996 48.4729 70.3737 47.8818 70.1063 46.8857C69.8389 45.8895 70.4311 44.8657 71.4292 44.5988C72.4272 44.3318 73.4531 44.923 73.7205 45.9191Z" fill="#0071EB"/>
<path d="M203.526 68.8583C202.469 68.8583 201.611 68.1738 201.611 67.3295C201.611 66.4852 202.469 65.8008 203.526 65.8008C204.583 65.8008 205.44 66.4852 205.44 67.3295C205.44 68.1738 204.583 68.8583 203.526 68.8583Z" fill="#E1E4E5"/>
<path d="M54.5537 128.885H54.6037C54.9004 133.079 58.0253 133.144 58.0253 133.144C58.0253 133.144 54.5795 133.211 54.5795 138.057C54.5795 133.211 51.1333 133.144 51.1333 133.144C51.1333 133.144 54.2571 133.079 54.5537 128.885ZM219.703 83.7056H219.755C220.063 88.1344 223.311 88.2024 223.311 88.2024C223.311 88.2024 219.73 88.2733 219.73 93.3907C219.73 88.2733 216.149 88.2024 216.149 88.2024C216.149 88.2024 219.395 88.1344 219.703 83.7056Z" fill="#E1E4E5"/>
<path fill-rule="evenodd" clip-rule="evenodd" d="M139.735 124.271H121.131C113.425 124.271 107.178 118.036 107.178 110.345V91.7763C107.178 84.085 113.425 77.8501 121.131 77.8501H139.735C147.441 77.8501 153.688 84.085 153.688 91.7763V110.345C153.688 118.036 147.441 124.271 139.735 124.271Z" fill="#FFC21A" stroke="#FFC21A" stroke-width="6.97349" stroke-linecap="round" stroke-linejoin="round"/>
<path d="M130.433 100.198V91.6797" stroke="white" stroke-width="6.97349" stroke-linecap="round" stroke-linejoin="round"/>
<path fill-rule="evenodd" clip-rule="evenodd" d="M130.433 109.597C130.377 109.597 130.323 109.608 130.272 109.629C130.22 109.65 130.174 109.681 130.135 109.721C130.096 109.76 130.065 109.807 130.045 109.858C130.024 109.909 130.014 109.964 130.014 110.019C130.014 110.103 130.039 110.185 130.086 110.255C130.133 110.324 130.199 110.378 130.277 110.41C130.354 110.442 130.44 110.45 130.522 110.434C130.604 110.417 130.68 110.376 130.739 110.317C130.798 110.257 130.838 110.181 130.854 110.099C130.869 110.017 130.86 109.931 130.828 109.854C130.795 109.777 130.74 109.711 130.669 109.666C130.599 109.62 130.517 109.596 130.433 109.597Z" fill="white"/>
<path d="M130.433 109.597C130.377 109.597 130.323 109.608 130.272 109.629C130.22 109.65 130.174 109.681 130.135 109.721C130.096 109.76 130.065 109.807 130.045 109.858C130.024 109.909 130.014 109.964 130.014 110.019C130.014 110.103 130.039 110.185 130.086 110.255C130.133 110.324 130.199 110.378 130.277 110.41C130.354 110.442 130.44 110.45 130.522 110.434C130.604 110.417 130.68 110.376 130.739 110.317C130.798 110.257 130.838 110.181 130.854 110.099C130.869 110.017 130.86 109.931 130.828 109.854C130.795 109.777 130.74 109.711 130.669 109.666C130.599 109.62 130.517 109.596 130.433 109.597" stroke="white" stroke-width="6.97349" stroke-linecap="round" stroke-linejoin="round"/>
<path fill-rule="evenodd" clip-rule="evenodd" d="M91.8731 128.601V129.746H93.0182C93.2489 129.747 93.4699 129.839 93.6329 130.001C93.796 130.164 93.888 130.385 93.8889 130.615C93.888 130.845 93.796 131.066 93.6329 131.229C93.4699 131.392 93.2489 131.484 93.0182 131.485H91.8731V132.629C91.8722 132.859 91.7801 133.08 91.6171 133.243C91.454 133.405 91.233 133.497 91.0023 133.498C90.7717 133.497 90.5508 133.405 90.3877 133.242C90.2247 133.08 90.1326 132.859 90.1316 132.629V131.49H88.9819C88.7511 131.488 88.5302 131.396 88.3671 131.234C88.2041 131.071 88.1121 130.85 88.1111 130.62C88.1121 130.389 88.2042 130.169 88.3672 130.006C88.5303 129.843 88.7512 129.751 88.9819 129.75H90.127V128.601C90.1282 128.37 90.2209 128.149 90.3849 127.986C90.5489 127.823 90.7709 127.732 91.0023 127.732C91.233 127.733 91.454 127.825 91.6171 127.988C91.7801 128.151 91.8722 128.371 91.8731 128.601ZM82.2993 120.588V122.189H83.9598C84.6529 122.189 85.2223 122.738 85.2223 123.407C85.2223 124.075 84.6529 124.624 83.9598 124.624H82.2993V126.226C82.2993 126.894 81.7299 127.443 81.0368 127.443C80.3438 127.443 79.7744 126.894 79.7744 126.226V124.631H78.1069C77.4139 124.631 76.8445 124.082 76.8445 123.413C76.8445 122.745 77.4139 122.196 78.1069 122.196H79.7675V120.588C79.7675 119.919 80.3369 119.37 81.0368 119.37C81.7299 119.37 82.2993 119.919 82.2993 120.588Z" fill="#FFC21A"/>
</g>
<defs>
<clipPath id="clip0_300_10866">
<rect width="260" height="173" fill="white"/>
</clipPath>
</defs>
</svg>
