<svg width="14" height="16" viewBox="0 0 14 16" fill="none" xmlns="http://www.w3.org/2000/svg">
<path d="M8.86828 10.625H8.875M5.125 10.625H5.13172" stroke="#03111E" stroke-width="1.5" stroke-linecap="round" stroke-linejoin="round"/>
<path d="M1.20086 13.1336C1.36952 14.3862 2.4071 15.3676 3.66974 15.4257C4.73221 15.4745 5.81148 15.5 7 15.5C8.18852 15.5 9.2678 15.4745 10.3303 15.4257C11.5929 15.3676 12.6305 14.3862 12.7991 13.1336C12.9092 12.316 13 11.4782 13 10.625C13 9.77178 12.9092 8.93399 12.7991 8.11644C12.6305 6.86377 11.5929 5.88237 10.3303 5.82432C9.2678 5.77548 8.18852 5.75 7 5.75C5.81148 5.75 4.73221 5.77548 3.66974 5.82432C2.4071 5.88237 1.36952 6.86377 1.20086 8.11644C1.09078 8.93399 1 9.77178 1 10.625C1 11.4782 1.09078 12.316 1.20086 13.1336Z" stroke="#03111E"/>
<path d="M3.625 5.75V3.875C3.625 2.01104 5.13604 0.5 7 0.5C8.86396 0.5 10.375 2.01104 10.375 3.875V5.75" stroke="#03111E" stroke-linecap="round" stroke-linejoin="round"/>
</svg>
