<svg width="16" height="16" viewBox="0 0 16 16" fill="none" xmlns="http://www.w3.org/2000/svg">
<path d="M2.88505 10.4723C1.94187 11.0251 -0.53109 12.154 0.975108 13.5665C1.71087 14.2565 2.53033 14.75 3.56058 14.75H9.43942C10.4697 14.75 11.2891 14.2565 12.0249 13.5665C13.5311 12.154 11.0581 11.0251 10.115 10.4723C7.90321 9.1759 5.09679 9.1759 2.88505 10.4723Z" stroke="#03111E" stroke-linecap="round" stroke-linejoin="round"/>
<path d="M9.5 4.25C9.5 5.90685 8.15685 7.25 6.5 7.25C4.84315 7.25 3.5 5.90685 3.5 4.25C3.5 2.59315 4.84315 1.25 6.5 1.25C8.15685 1.25 9.5 2.59315 9.5 4.25Z" stroke="#03111E"/>
<path d="M13.7166 2.42423C13.8843 2.24257 13.9681 2.15174 14.0572 2.09876C14.2721 1.97092 14.5368 1.96695 14.7553 2.08827C14.8459 2.13855 14.9323 2.22683 15.1051 2.40337C15.278 2.57992 15.3644 2.66819 15.4136 2.76071C15.5324 2.98395 15.5285 3.25433 15.4033 3.47391C15.3515 3.56491 15.2625 3.65055 15.0847 3.82183L12.9689 5.85972C12.6319 6.1843 12.4634 6.34659 12.2528 6.42884C12.0422 6.51109 11.8107 6.50504 11.3477 6.49293L11.2847 6.49128C11.1438 6.4876 11.0733 6.48575 11.0323 6.43926C10.9913 6.39277 10.9969 6.32097 11.0081 6.17739L11.0142 6.09942C11.0457 5.6953 11.0614 5.49324 11.1403 5.3116C11.2192 5.12996 11.3554 4.98248 11.6276 4.68751L13.7166 2.42423Z" stroke="#03111E" stroke-linejoin="round"/>
</svg>
