<svg width="24" height="24" viewBox="0 0 24 24" fill="none" xmlns="http://www.w3.org/2000/svg">
<path d="M2 12.4C2 9.38301 2 7.87452 2.94627 6.93726C3.89254 6 5.41554 6 8.46154 6H9.53846C12.5845 6 14.1075 6 15.0537 6.93726C16 7.87452 16 9.38301 16 12.4V15.6C16 18.617 16 20.1255 15.0537 21.0627C14.1075 22 12.5845 22 9.53846 22H8.46154C5.41554 22 3.89254 22 2.94627 21.0627C2 20.1255 2 18.617 2 15.6V12.4Z" stroke="white" stroke-width="1.5" stroke-linejoin="round"/>
<path d="M15.5376 16H16.4608C19.072 16 20.3776 16 21.1888 15.1799C22 14.3598 22 13.0399 22 10.4V7.6C22 4.96013 22 3.6402 21.1888 2.8201C20.3776 2 19.072 2 16.4608 2H15.5376C12.9264 2 11.6208 2 10.8096 2.8201C10.1002 3.53726 10.0112 4.63664 10 6.66667" stroke="white" stroke-width="1.5" stroke-linejoin="round"/>
<path d="M6 11.25C5.58579 11.25 5.25 11.5858 5.25 12C5.25 12.4142 5.58579 12.75 6 12.75V11.25ZM9 12.75C9.41421 12.75 9.75 12.4142 9.75 12C9.75 11.5858 9.41421 11.25 9 11.25V12.75ZM6 16.25C5.58579 16.25 5.25 16.5858 5.25 17C5.25 17.4142 5.58579 17.75 6 17.75V16.25ZM11 17.75C11.4142 17.75 11.75 17.4142 11.75 17C11.75 16.5858 11.4142 16.25 11 16.25V17.75ZM6 12.75H9V11.25H6V12.75ZM6 17.75H11V16.25H6V17.75Z" fill="white"/>
<path d="M10.5 3L14.5 6.5" stroke="white" stroke-width="1.5" stroke-linejoin="round"/>
</svg>
