<svg width="24" height="24" viewBox="0 0 24 24" fill="none" xmlns="http://www.w3.org/2000/svg">
<path d="M19.5308 5.53033C19.8237 5.23744 19.8237 4.76256 19.5308 4.46967C19.2379 4.17678 18.7631 4.17678 18.4702 4.46967L19.5308 5.53033ZM4.47016 18.4697C4.17726 18.7626 4.17726 19.2374 4.47016 19.5303C4.76305 19.8232 5.23793 19.8232 5.53082 19.5303L4.47016 18.4697ZM5.53082 4.46967C5.23793 4.17678 4.76305 4.17678 4.47016 4.46967C4.17726 4.76256 4.17726 5.23744 4.47016 5.53033L5.53082 4.46967ZM18.4702 19.5303C18.7631 19.8232 19.2379 19.8232 19.5308 19.5303C19.8237 19.2374 19.8237 18.7626 19.5308 18.4697L18.4702 19.5303ZM18.4702 4.46967L4.47016 18.4697L5.53082 19.5303L19.5308 5.53033L18.4702 4.46967ZM4.47016 5.53033L18.4702 19.5303L19.5308 18.4697L5.53082 4.46967L4.47016 5.53033Z" fill="#03111E"/>
</svg>
