<svg width="16" height="16" viewBox="0 0 16 16" fill="none" xmlns="http://www.w3.org/2000/svg">
<path d="M13.1973 3.86358C13.4902 3.57069 13.4902 3.09582 13.1973 2.80292C12.9044 2.51003 12.4295 2.51003 12.1366 2.80292L13.1973 3.86358ZM2.80329 12.1363C2.51039 12.4291 2.51039 12.904 2.80329 13.1969C3.09618 13.4898 3.57106 13.4898 3.86395 13.1969L2.80329 12.1363ZM3.86395 2.80292C3.57106 2.51003 3.09618 2.51003 2.80329 2.80292C2.51039 3.09582 2.51039 3.57069 2.80329 3.86358L3.86395 2.80292ZM12.1366 13.1969C12.4295 13.4898 12.9044 13.4898 13.1973 13.1969C13.4902 12.904 13.4902 12.4291 13.1973 12.1363L12.1366 13.1969ZM12.1366 2.80292L2.80329 12.1363L3.86395 13.1969L13.1973 3.86358L12.1366 2.80292ZM2.80329 3.86358L12.1366 13.1969L13.1973 12.1363L3.86395 2.80292L2.80329 3.86358Z" fill="#03111E"/>
</svg>
