<svg width="20" height="20" viewBox="0 0 24 24" fill="none" xmlns="http://www.w3.org/2000/svg">
<path d="M15.4609 17.5918C15.7878 17.3374 15.8465 16.8662 15.5921 16.5393C15.3376 16.2124 14.8664 16.1537 14.5396 16.4082L15.4609 17.5918ZM9.46094 16.4082C9.13408 16.1537 8.66285 16.2124 8.40841 16.5393C8.15398 16.8662 8.21269 17.3374 8.53955 17.5918L9.46094 16.4082ZM14.5396 16.4082C13.8741 16.9262 12.9866 17.25 12.0002 17.25V18.75C13.3143 18.75 14.5273 18.3186 15.4609 17.5918L14.5396 16.4082ZM12.0002 17.25C11.0139 17.25 10.1264 16.9262 9.46094 16.4082L8.53955 17.5918C9.47314 18.3186 10.6862 18.75 12.0002 18.75V17.25Z" fill="white"/>
<path d="M2.35164 13.2135C1.99862 10.9162 1.82211 9.76763 2.25641 8.74938C2.69071 7.73112 3.65427 7.03443 5.58138 5.64106L7.02123 4.6C9.41853 2.86667 10.6172 2 12.0002 2C13.3833 2 14.582 2.86667 16.9793 4.6L18.4191 5.64106C20.3462 7.03443 21.3098 7.73112 21.7441 8.74938C22.1784 9.76763 22.0019 10.9162 21.6489 13.2135L21.3478 15.1724C20.8474 18.4289 20.5972 20.0572 19.4292 21.0286C18.2613 22 16.5539 22 13.1391 22H10.8614C7.44658 22 5.73915 22 4.57124 21.0286C3.40333 20.0572 3.15311 18.4289 2.65267 15.1724L2.35164 13.2135Z" stroke="white" stroke-width="1.5" stroke-linejoin="round"/>
</svg>
