<svg width="16" height="16" viewBox="0 0 16 16" fill="none" xmlns="http://www.w3.org/2000/svg">
<path d="M8.33325 1.33301H8.51507C10.6892 1.33301 11.7763 1.33301 12.5312 1.8649C12.7475 2.01729 12.9395 2.19802 13.1015 2.4016C13.6666 3.11212 13.6666 4.13525 13.6666 6.18149V7.87846C13.6666 9.85391 13.6666 10.8416 13.354 11.6305C12.8514 12.8987 11.7885 13.8991 10.441 14.3721C9.60283 14.6663 8.55338 14.6663 6.45446 14.6663C5.25509 14.6663 4.6554 14.6663 4.17644 14.4982C3.40645 14.2279 2.79909 13.6563 2.51189 12.9316C2.33325 12.4808 2.33325 11.9164 2.33325 10.7876V7.99967" stroke="#03111E" stroke-linecap="round" stroke-linejoin="round"/>
<path d="M13.6667 8C13.6667 9.2273 12.6717 10.2222 11.4444 10.2222C11.0006 10.2222 10.4773 10.1444 10.0458 10.2601C9.66232 10.3628 9.36282 10.6623 9.26008 11.0458C9.14445 11.4773 9.22222 12.0006 9.22222 12.4444C9.22222 13.6717 8.2273 14.6667 7 14.6667" stroke="#03111E" stroke-linecap="round" stroke-linejoin="round"/>
<path d="M3 2.99967C3.32769 2.66254 4.19985 1.33301 4.66667 1.33301M6.33333 2.99967C6.00565 2.66254 5.13349 1.33301 4.66667 1.33301M4.66667 1.33301L4.66667 6.66634" stroke="#03111E" stroke-linecap="round" stroke-linejoin="round"/>
</svg>
