<svg width="16" height="16" viewBox="0 0 16 16" fill="none" xmlns="http://www.w3.org/2000/svg">
<path d="M2.33337 6.66659C2.33337 4.15243 2.33337 2.89535 3.16324 2.1143C3.9931 1.33325 5.32875 1.33325 8.00004 1.33325H8.51519C10.6893 1.33325 11.7764 1.33325 12.5313 1.86514C12.7476 2.01754 12.9397 2.19827 13.1016 2.40184C13.6667 3.11237 13.6667 4.13549 13.6667 6.18174V7.87871C13.6667 9.85415 13.6667 10.8419 13.3541 11.6308C12.8515 12.899 11.7886 13.8993 10.4411 14.3724C9.60296 14.6666 8.5535 14.6666 6.45459 14.6666C5.25521 14.6666 4.65552 14.6666 4.17656 14.4985C3.40657 14.2282 2.79921 13.6565 2.51202 12.9318C2.33337 12.481 2.33337 11.9166 2.33337 10.7878V6.66659Z" stroke="#03111E" stroke-linejoin="round"/>
<path d="M13.6667 8C13.6667 9.2273 12.6717 10.2222 11.4444 10.2222C11.0006 10.2222 10.4773 10.1444 10.0458 10.2601C9.66232 10.3628 9.36282 10.6623 9.26008 11.0458C9.14445 11.4773 9.22222 12.0006 9.22222 12.4444C9.22222 13.6717 8.2273 14.6667 7 14.6667" stroke="#03111E" stroke-linecap="round" stroke-linejoin="round"/>
<path d="M5.33337 4.6665H10" stroke="#03111E" stroke-linecap="round" stroke-linejoin="round"/>
<path d="M5.33337 7.33325H7.33337" stroke="#03111E" stroke-linecap="round" stroke-linejoin="round"/>
</svg>
