<svg width="16" height="16" viewBox="0 0 16 16" fill="none" xmlns="http://www.w3.org/2000/svg">
<path d="M4.66659 4.33366H11.1666C12.571 4.33366 13.2733 4.33366 13.7777 4.67072C13.9961 4.81664 14.1836 5.00414 14.3295 5.22252C14.6385 5.68495 14.6642 6.17353 14.6664 7.33366M7.99992 4.33366L7.57763 3.48908C7.22778 2.78938 6.90807 2.08507 6.13276 1.79433C5.79318 1.66699 5.40527 1.66699 4.62943 1.66699C3.41845 1.66699 2.81296 1.66699 2.35863 1.92054C2.03476 2.10127 1.76753 2.3685 1.5868 2.69237C1.33325 3.1467 1.33325 3.75219 1.33325 4.96317V7.00033C1.33325 10.143 1.33325 11.7144 2.30956 12.6907C3.21425 13.5954 4.62987 13.6617 7.33325 13.6666H8.66659" stroke="#03111E" stroke-linecap="round"/>
<path d="M12.3332 9.00065L12.3332 14.334M12.3332 9.00065C11.8664 9.00065 10.9942 10.3302 10.6665 10.6673M12.3332 9.00065C12.8 9.00065 13.6722 10.3302 13.9998 10.6673" stroke="#03111E" stroke-linecap="round" stroke-linejoin="round"/>
</svg>
