<svg width="15" height="14" viewBox="0 0 15 14" fill="none" xmlns="http://www.w3.org/2000/svg">
<path d="M4.34058 3.66649H10.855C12.2626 3.66649 12.9664 3.66649 13.472 4.00359C13.6908 4.14952 13.8787 4.33704 14.025 4.55545C14.2127 4.83585 14.2961 5.17735 14.3332 5.66657M7.68132 3.66649L7.25809 2.82181C6.90746 2.12202 6.58705 1.41764 5.81001 1.12687C5.46968 0.999512 5.0809 0.999512 4.30335 0.999512C3.08968 0.999512 2.48284 0.999512 2.0275 1.25309C1.70292 1.43384 1.43509 1.7011 1.25395 2.02501C0.999847 2.47939 0.999847 3.08495 0.999847 4.29607V6.33346C0.999847 9.47652 0.999847 11.0481 1.97833 12.0245C2.84682 12.8911 4.17412 12.9886 6.66651 12.9995H6.99985" stroke="#03111E" stroke-linecap="round"/>
<g clip-path="url(#clip0_753_53)">
<path d="M12.8598 9.23623C12.692 9.19056 12.5154 9.16618 12.3332 9.16618C11.4888 9.16618 10.7666 9.68947 10.4732 10.4295M12.8598 9.23623C13.7089 9.46737 14.3332 10.2439 14.3332 11.1662C14.3332 12.2707 13.4377 13.1662 12.3332 13.1662C11.8209 13.1662 11.3537 12.9736 10.9998 12.6569M12.8598 9.23623C12.9502 9.00824 12.9998 8.75968 12.9998 8.49951C12.9998 7.39494 12.1044 6.49951 10.9998 6.49951C9.89527 6.49951 8.99984 7.39494 8.99984 8.49951C8.99984 8.75968 9.04951 9.00824 9.1399 9.23623M10.4732 10.4295C10.3828 10.6575 10.3332 10.906 10.3332 11.1662C10.3332 11.7585 10.5907 12.2907 10.9998 12.6569M10.4732 10.4295C9.86366 10.2635 9.36993 9.8165 9.1399 9.23623M9.1399 9.23623C8.29082 9.46737 7.6665 10.2439 7.6665 11.1662C7.6665 12.2707 8.56193 13.1662 9.6665 13.1662C10.1787 13.1662 10.646 12.9736 10.9998 12.6569" stroke="#03111E" stroke-linecap="round"/>
</g>
<defs>
<clipPath id="clip0_753_53">
<rect width="8" height="8" fill="white" transform="translate(6.99985 5.99951)"/>
</clipPath>
</defs>
</svg>
