<svg width="16" height="16" viewBox="0 0 16 16" fill="none" xmlns="http://www.w3.org/2000/svg">
<path d="M12.4999 9C12.4999 8.72386 12.2761 8.5 11.9999 8.5C11.7238 8.5 11.4999 8.72386 11.4999 9H12.4999ZM11.4999 14.3333C11.4999 14.6095 11.7238 14.8333 11.9999 14.8333C12.2761 14.8333 12.4999 14.6095 12.4999 14.3333H11.4999ZM14.6666 12.1667C14.9427 12.1667 15.1666 11.9428 15.1666 11.6667C15.1666 11.3905 14.9427 11.1667 14.6666 11.1667V12.1667ZM9.33325 11.1667C9.05711 11.1667 8.83325 11.3905 8.83325 11.6667C8.83325 11.9428 9.05711 12.1667 9.33325 12.1667L9.33325 11.1667ZM11.4999 9V14.3333H12.4999V9H11.4999ZM14.6666 11.1667L9.33325 11.1667L9.33325 12.1667L14.6666 12.1667V11.1667Z" fill="#03111E"/>
<path d="M4.66659 4.33366H11.1666C12.571 4.33366 13.2733 4.33366 13.7777 4.67072C13.9961 4.81664 14.1836 5.00414 14.3295 5.22252C14.6391 5.68579 14.6641 6.45643 14.6662 7.66699M7.99992 4.33366L7.57763 3.48908C7.22778 2.78938 6.90807 2.08507 6.13276 1.79433C5.79318 1.66699 5.40527 1.66699 4.62943 1.66699C3.41845 1.66699 2.81296 1.66699 2.35863 1.92054C2.03476 2.10127 1.76753 2.3685 1.5868 2.69237C1.33325 3.1467 1.33325 3.75219 1.33325 4.96317V7.00033C1.33325 10.143 1.33325 11.7144 2.30956 12.6907C3.21425 13.5954 4.62987 13.6617 7.33325 13.6666" stroke="#03111E" stroke-linecap="round"/>
</svg>
