<svg width="16" height="16" viewBox="0 0 16 16" fill="none" xmlns="http://www.w3.org/2000/svg">
<path d="M7.40016 2C4.96705 2.00438 3.69295 2.06411 2.87871 2.87836C2 3.75706 2 5.17132 2 7.99983C2 10.8283 2 12.2426 2.8787 13.1213C3.75741 14 5.17166 14 8.00017 14C10.8287 14 12.2429 14 13.1216 13.1213C13.9359 12.3071 13.9956 11.033 14 8.59984" stroke="#03111E" stroke-linecap="round" stroke-linejoin="round"/>
<path d="M14.047 2.68823C14.243 2.49372 14.2442 2.17714 14.0497 1.98113C13.8552 1.78513 13.5386 1.78392 13.3426 1.97843L14.047 2.68823ZM9.6478 5.6451C9.45179 5.83962 9.45058 6.1562 9.6451 6.3522C9.83961 6.54821 10.1562 6.54942 10.3522 6.3549L9.6478 5.6451ZM13.3523 2.15138L13.2651 2.64371H13.2651L13.3523 2.15138ZM10.6666 1.5C10.3905 1.50002 10.1666 1.7239 10.1667 2.00004C10.1667 2.27619 10.3906 2.50002 10.6667 2.5L10.6666 1.5ZM13.5 5.33333C13.5 5.60948 13.7239 5.83333 14 5.83333C14.2761 5.83333 14.5 5.60948 14.5 5.33333H13.5ZM13.8486 2.64783L14.341 2.56073V2.56073L13.8486 2.64783ZM13.3426 1.97843L9.6478 5.6451L10.3522 6.3549L14.047 2.68823L13.3426 1.97843ZM13.4395 1.65904C12.9723 1.57629 12.2677 1.53797 11.7054 1.51914C11.4188 1.50955 11.1597 1.50477 10.9723 1.50238C10.8786 1.50119 10.8025 1.50059 10.7498 1.5003C10.7234 1.50015 10.7028 1.50007 10.6887 1.50004C10.6817 1.50002 10.6763 1.50001 10.6726 1.5C10.6707 1.5 10.6693 1.5 10.6683 1.5C10.6678 1.5 10.6674 1.5 10.6671 1.5C10.667 1.5 10.6669 1.5 10.6668 1.5C10.6667 1.5 10.6667 1.5 10.6667 1.5C10.6667 1.5 10.6666 1.5 10.6667 2C10.6667 2.5 10.6667 2.5 10.6667 2.5C10.6667 2.5 10.6667 2.5 10.6667 2.5C10.6667 2.5 10.6668 2.5 10.6669 2.5C10.667 2.5 10.6673 2.5 10.6677 2.5C10.6685 2.5 10.6697 2.5 10.6713 2.5C10.6746 2.50001 10.6795 2.50002 10.6861 2.50003C10.6992 2.50007 10.7188 2.50014 10.7442 2.50028C10.7948 2.50057 10.8685 2.50114 10.9596 2.5023C11.1421 2.50462 11.394 2.50928 11.6719 2.51858C12.2385 2.53756 12.8767 2.57493 13.2651 2.64371L13.4395 1.65904ZM14 5.33333C14.5 5.33333 14.5 5.33331 14.5 5.33327C14.5 5.33325 14.5 5.33321 14.5 5.33317C14.5 5.33309 14.5 5.33298 14.5 5.33284C14.5 5.33256 14.5 5.33217 14.5 5.33168C14.5 5.33068 14.5 5.32925 14.5 5.3274C14.5 5.32368 14.5 5.31826 14.5 5.31122C14.4999 5.29713 14.4998 5.27656 14.4997 5.25018C14.4994 5.19743 14.4988 5.12142 14.4976 5.02765C14.4952 4.84027 14.4904 4.58121 14.4808 4.29469C14.4619 3.73238 14.4236 3.02791 14.341 2.56073L13.3563 2.73494C13.425 3.12337 13.4624 3.76165 13.4814 4.32819C13.4907 4.60609 13.4953 4.85798 13.4977 5.04044C13.4988 5.13159 13.4994 5.20523 13.4997 5.25589C13.4999 5.28122 13.4999 5.30079 13.5 5.31393C13.5 5.3205 13.5 5.32546 13.5 5.32872C13.5 5.33035 13.5 5.33156 13.5 5.33233C13.5 5.33272 13.5 5.33299 13.5 5.33316C13.5 5.33325 13.5 5.3333 13.5 5.33333C13.5 5.33335 13.5 5.33335 13.5 5.33335C13.5 5.33335 13.5 5.33333 14 5.33333ZM13.2651 2.64371C13.2988 2.64968 13.3171 2.66228 13.3274 2.67258C13.3377 2.68288 13.3503 2.70121 13.3563 2.73494L14.341 2.56073C14.2583 2.09315 13.9072 1.74187 13.4395 1.65904L13.2651 2.64371Z" fill="#03111E"/>
</svg>
