<svg width="18" height="18" viewBox="0 0 20 18" fill="none" xmlns="http://www.w3.org/2000/svg">
<path d="M5.83366 4.83333H13.9587C15.7142 4.83333 16.592 4.83333 17.2226 5.25466C17.4956 5.43706 17.7299 5.67143 17.9123 5.94441C18.3337 6.57497 18.3337 7.45276 18.3337 9.20833C18.3337 12.1343 18.3337 13.5973 17.6315 14.6482C17.3275 15.1032 16.9368 15.4938 16.4819 15.7978C15.4309 16.5 13.968 16.5 11.042 16.5H10.0003C6.07195 16.5 4.10777 16.5 2.88738 15.2796C1.66699 14.0592 1.66699 12.095 1.66699 8.16667V5.62023C1.66699 4.1065 1.66699 3.34964 1.98392 2.78172C2.20984 2.37689 2.54388 2.04285 2.94871 1.81693C3.51663 1.5 4.27349 1.5 5.78722 1.5C6.75701 1.5 7.24191 1.5 7.66637 1.65917C8.63551 2.0226 9.03515 2.90298 9.47246 3.7776L10.0003 4.83333" stroke="white" stroke-width="1.5" stroke-linecap="round"/>
</svg>
