<svg width="16" height="16" viewBox="0 0 16 16" fill="none" xmlns="http://www.w3.org/2000/svg">
<rect width="16" height="16" rx="2" fill="#FF6B50"/>
<path d="M5.5 11V9.75M5.5 9.75V9C5.5 8.7643 5.5 8.64645 5.57688 8.57322C5.65377 8.5 5.77751 8.5 6.025 8.5H6.375C6.73744 8.5 7.03125 8.77982 7.03125 9.125C7.03125 9.47018 6.73744 9.75 6.375 9.75H5.5ZM12.5 8.5H11.8438C11.4313 8.5 11.225 8.5 11.0969 8.62204C10.9688 8.74408 10.9688 8.9405 10.9688 9.33333V9.75M10.9688 11V9.75M10.9688 9.75H12.0625M9.875 9.75C9.875 10.4404 9.28737 11 8.5625 11C8.39894 11 8.31716 11 8.25625 10.9665C8.11041 10.8863 8.125 10.724 8.125 10.5833V8.91667C8.125 8.77602 8.11041 8.61368 8.25625 8.53349C8.31716 8.5 8.39894 8.5 8.5625 8.5C9.28737 8.5 9.875 9.05964 9.875 9.75Z" stroke="white" stroke-width="0.8" stroke-linecap="round" stroke-linejoin="round"/>
<path d="M9.5 13H7.36364C5.73303 13 4.91773 13 4.35153 12.6011C4.18931 12.4868 4.04529 12.3512 3.92385 12.1986C3.5 11.6657 3.5 10.8983 3.5 9.36364V8.09091C3.5 6.60932 3.5 5.86853 3.73447 5.27688C4.11141 4.32571 4.90857 3.57544 5.91918 3.22068C6.54781 3 7.33491 3 8.90909 3C9.80863 3 10.2584 3 10.6176 3.1261C11.1951 3.32882 11.6506 3.75755 11.866 4.30107C12 4.63916 12 5.06247 12 5.90909V7" stroke="white" stroke-width="0.8" stroke-linecap="round" stroke-linejoin="round"/>
<path d="M3.5 8C3.5 7.07953 4.24619 6.33333 5.16667 6.33333C5.49956 6.33333 5.89202 6.39166 6.21568 6.30494C6.50326 6.22788 6.72788 6.00326 6.80494 5.71568C6.89166 5.39202 6.83333 4.99956 6.83333 4.66667C6.83333 3.74619 7.57953 3 8.5 3" stroke="white" stroke-width="0.8" stroke-linecap="round" stroke-linejoin="round"/>
</svg>
