<svg width="17" height="17" viewBox="0 0 20 20" fill="none" xmlns="http://www.w3.org/2000/svg">
<g clip-path="url(#clip0_103_4511)">
<path d="M18.0473 12.1613L17.323 11.9666L18.0473 12.1613ZM12.1165 1.95404L12.31 1.22942L12.1165 1.95404ZM7.78949 18.0461L7.98297 17.3215L7.78949 18.0461ZM2.11503 7.04488L2.06946 7.7935C1.83151 7.77901 1.61462 7.65227 1.4852 7.45207C1.35577 7.25188 1.32922 7.00208 1.41368 6.77916L2.11503 7.04488ZM4.25238 6.42361C4.66583 6.44878 4.98059 6.80435 4.95542 7.2178C4.93025 7.63125 4.57468 7.94601 4.16124 7.92084L4.25238 6.42361ZM0.925425 11.3503C0.862888 10.9408 1.14413 10.5582 1.5536 10.4957C1.96306 10.4331 2.3457 10.7144 2.40823 11.1238L0.925425 11.3503ZM17.323 11.9666C18.4092 7.92716 15.9964 3.7663 11.923 2.67865L12.31 1.22942C17.1772 2.52904 20.0751 7.50812 18.7715 12.3561L17.323 11.9666ZM7.98297 17.3215C12.0574 18.4094 16.2366 16.0071 17.323 11.9666L18.7715 12.3561C17.4682 17.2031 12.4623 20.0701 7.59601 18.7707L7.98297 17.3215ZM11.923 2.67865C8.09828 1.6574 4.17964 3.71244 2.81638 7.31061L1.41368 6.77916C3.04922 2.46234 7.74038 0.00928581 12.31 1.22942L11.923 2.67865ZM2.1606 6.29627L4.25238 6.42361L4.16124 7.92084L2.06946 7.7935L2.1606 6.29627ZM2.40823 11.1238C2.84949 14.0131 4.95995 16.5143 7.98297 17.3215L7.59601 18.7707C3.98069 17.8054 1.45403 14.8115 0.925425 11.3503L2.40823 11.1238Z" fill="white"/>
<path d="M10 6.66675V10.0001L11.6667 11.6667" stroke="white" stroke-width="1.5" stroke-linecap="round" stroke-linejoin="round"/>
</g>
<defs>
<clipPath id="clip0_103_4511">
<rect width="20" height="20" fill="white"/>
</clipPath>
</defs>
</svg>
