<svg width="19px" height="19px" viewBox="0 0 24 24" fill="none" xmlns="http://www.w3.org/2000/svg">
<path d="M11 19H5C3.89543 19 3 18.1046 3 17V7C3 5.89543 3.89543 5 5 5H9.58579C9.851 5 10.1054 5.10536 10.2929 5.29289L12 7H19C20.1046 7 21 7.89543 21 9V10" stroke="#000000" stroke-width="2" stroke-linecap="round" stroke-linejoin="round"/>
<path d="M15.0251 14.0251C14.3918 14.6585 14 15.5335 14 16.5C14 18.433 15.567 20 17.5 20C18.4665 20 19.3415 19.6082 19.9749 18.9749M15.0251 14.0251C15.6585 13.3918 16.5335 13 17.5 13C19.433 13 21 14.567 21 16.5C21 17.4665 20.6082 18.3415 19.9749 18.9749M15.0251 14.0251L17.5 16.5L19.9749 18.9749" stroke="#000000" stroke-width="2" stroke-linecap="round"/>
</svg>