<svg width="16" height="14" viewBox="0 0 16 14" fill="none" xmlns="http://www.w3.org/2000/svg">
<path d="M4.66668 3.33317H11.1667C12.5711 3.33317 13.2734 3.33317 13.7778 3.67023C13.9962 3.81615 14.1837 4.00365 14.3296 4.22203C14.6241 4.6627 14.6613 5.25433 14.666 6.33317M8.00001 3.33317L7.57772 2.48859C7.22787 1.78889 6.90816 1.08458 6.13285 0.793843C5.79327 0.666504 5.40536 0.666504 4.62952 0.666504C3.41854 0.666504 2.81305 0.666504 2.35872 0.920048C2.03485 1.10078 1.76762 1.36801 1.58689 1.69188C1.33334 2.14621 1.33334 2.7517 1.33334 3.96269V5.99984C1.33334 9.14253 1.33334 10.7139 2.30965 11.6902C3.17641 12.5569 4.51215 12.6542 7.00001 12.6651H7.33334" stroke="#141B34" stroke-linecap="round"/>
<path d="M10.2318 13.2371L10.1273 12.7482L10.2318 13.2371ZM9.42953 12.4349L9.91848 12.5394L9.42953 12.4349ZM10.0138 10.7411L9.66024 10.3876L10.0138 10.7411ZM14.5308 8.98486L14.9639 8.73486V8.73486L14.5308 8.98486ZM14.5308 9.99872L14.9639 10.2487L14.5308 9.99872ZM13.6818 8.13583L13.9318 7.70282H13.9318L13.6818 8.13583ZM12.219 8.53592L12.5726 8.88947L12.219 8.53592ZM12.668 8.13583L12.418 7.70282H12.418L12.668 8.13583ZM13.7772 10.0941L11.572 12.2993L12.2791 13.0064L14.4843 10.8012L13.7772 10.0941ZM10.3673 11.0947L12.5726 8.88947L11.8655 8.18237L9.66024 10.3876L10.3673 11.0947ZM10.1273 12.7482C10.0103 12.7732 9.91686 12.7932 9.83655 12.8081C9.75552 12.8231 9.7024 12.8303 9.66639 12.8326C9.62941 12.8349 9.63196 12.8305 9.65503 12.8365C9.68642 12.8446 9.7291 12.8648 9.76549 12.9012L9.05839 13.6083C9.27424 13.8241 9.54388 13.8424 9.72985 13.8305C9.90685 13.8193 10.1226 13.7718 10.3364 13.7261L10.1273 12.7482ZM8.94058 12.3303C8.89488 12.5441 8.84739 12.7598 8.83613 12.9368C8.82431 13.1228 8.84253 13.3924 9.05839 13.6083L9.76549 12.9012C9.80188 12.9376 9.82211 12.9803 9.8302 13.0116C9.83615 13.0347 9.83177 13.0373 9.83412 13.0003C9.83641 12.9643 9.84353 12.9112 9.85859 12.8301C9.87352 12.7498 9.89347 12.6564 9.91848 12.5394L8.94058 12.3303ZM13.7772 8.88947C14.0222 9.13447 14.0723 9.19065 14.0978 9.23486L14.9639 8.73486C14.8559 8.54789 14.6838 8.38184 14.4843 8.18237L13.7772 8.88947ZM14.4843 10.8012C14.6838 10.6017 14.8559 10.4357 14.9639 10.2487L14.0978 9.74872C14.0723 9.79293 14.0222 9.84911 13.7772 10.0941L14.4843 10.8012ZM14.0978 9.23486C14.1896 9.39385 14.1896 9.58973 14.0978 9.74872L14.9639 10.2487C15.2343 9.78033 15.2343 9.20325 14.9639 8.73486L14.0978 9.23486ZM14.4843 8.18237C14.2848 7.98289 14.1188 7.81077 13.9318 7.70282L13.4318 8.56884C13.476 8.59437 13.5322 8.64448 13.7772 8.88947L14.4843 8.18237ZM12.5726 8.88947C12.8176 8.64448 12.8737 8.59437 12.918 8.56884L12.418 7.70282C12.231 7.81077 12.0649 7.98289 11.8655 8.18237L12.5726 8.88947ZM13.9318 7.70282C13.4634 7.43239 12.8863 7.43239 12.418 7.70282L12.918 8.56884C13.0769 8.47705 13.2728 8.47705 13.4318 8.56884L13.9318 7.70282ZM11.572 12.2993C11.4416 12.4297 11.2635 12.514 11.0104 12.5786C10.8836 12.611 10.7483 12.636 10.5975 12.662C10.4527 12.6871 10.2869 12.7141 10.1273 12.7482L10.3364 13.7261C10.4709 13.6973 10.6088 13.6749 10.7678 13.6474C10.9209 13.621 11.0897 13.5904 11.2577 13.5475C11.5943 13.4616 11.9689 13.3166 12.2791 13.0064L11.572 12.2993ZM9.91848 12.5394C9.9526 12.3798 9.9796 12.214 10.0046 12.0691C10.0307 11.9184 10.0557 11.7831 10.0881 11.6563C10.1527 11.4032 10.237 11.2251 10.3673 11.0947L9.66024 10.3876C9.35003 10.6978 9.20507 11.0724 9.11916 11.4089C9.07626 11.577 9.04569 11.7458 9.01923 11.8989C8.99175 12.0579 8.96935 12.1958 8.94058 12.3303L9.91848 12.5394Z" fill="#141B34"/>
</svg>
