<svg width="16" height="16" viewBox="0 0 16 16" fill="none" xmlns="http://www.w3.org/2000/svg">
<path d="M13 3.66675L12.6667 7.66675M3 3.66675L3.40307 10.3579C3.5063 12.0716 3.55792 12.9284 3.98579 13.5446C4.19733 13.8492 4.46987 14.1063 4.78604 14.2996C5.17418 14.5368 5.64228 14.6301 6.33333 14.6667" stroke="#03111E" stroke-linecap="round"/>
<path d="M7.33333 10.3334L8.09084 11.3105C8.47202 9.88794 9.93425 9.04372 11.3568 9.4249C12.085 9.62002 12.6617 10.0984 13 10.7097M14 13.6667L13.2424 12.6909C12.8613 14.1135 11.399 14.9577 9.97646 14.5765C9.26517 14.3859 8.69847 13.9251 8.35724 13.334" stroke="#03111E" stroke-linecap="round" stroke-linejoin="round"/>
<path d="M2 3.66671H14M10.7038 3.66671L10.2487 2.72786C9.94638 2.10421 9.79522 1.79239 9.53448 1.59791C9.47664 1.55477 9.4154 1.5164 9.35135 1.48317C9.06261 1.33337 8.71608 1.33337 8.02302 1.33337C7.31255 1.33337 6.95732 1.33337 6.66379 1.48945C6.59873 1.52405 6.53666 1.56397 6.4782 1.60882C6.21443 1.81117 6.06709 2.13441 5.7724 2.78088L5.36862 3.66671" stroke="#03111E" stroke-linecap="round"/>
</svg>
