<svg width="20" height="20" viewBox="0 0 20 20" fill="none" xmlns="http://www.w3.org/2000/svg">
<g clip-path="url(#clip0_35_14288)">
<path d="M15.1137 14.0532C14.8208 13.7603 14.3459 13.7603 14.053 14.0532C13.7602 14.3461 13.7602 14.8209 14.053 15.1138L15.1137 14.0532ZM17.803 18.8638C18.0959 19.1567 18.5708 19.1567 18.8637 18.8638C19.1566 18.5709 19.1566 18.0961 18.8637 17.8032L17.803 18.8638ZM14.053 15.1138L17.803 18.8638L18.8637 17.8032L15.1137 14.0532L14.053 15.1138Z" fill="#9EA6A9"/>
<path d="M17.4167 9.16675C17.4167 4.6104 13.7231 0.916748 9.16675 0.916748V2.41675C12.8947 2.41675 15.9167 5.43883 15.9167 9.16675H17.4167ZM9.16675 0.916748C4.6104 0.916748 0.916748 4.6104 0.916748 9.16675H2.41675C2.41675 5.43883 5.43883 2.41675 9.16675 2.41675V0.916748ZM0.916748 9.16675C0.916748 13.7231 4.6104 17.4167 9.16675 17.4167V15.9167C5.43883 15.9167 2.41675 12.8947 2.41675 9.16675H0.916748ZM9.16675 17.4167C13.7231 17.4167 17.4167 13.7231 17.4167 9.16675H15.9167C15.9167 12.8947 12.8947 15.9167 9.16675 15.9167V17.4167Z" fill="#9EA6A9"/>
</g>
<defs>
<clipPath id="clip0_35_14288">
<rect width="20" height="20" fill="white"/>
</clipPath>
</defs>
</svg>
