<svg width="16" height="16" viewBox="0 0 16 16" fill="none" xmlns="http://www.w3.org/2000/svg">
<g clip-path="url(#clip0_358_13374)">
<path d="M1 3.5L2.5 5L2.93887 4.6099M7 1L4.40159 3.3097" stroke="#03111E" stroke-linecap="round" stroke-linejoin="round"/>
<path d="M3 3.5L4.5 5L9 1" stroke="#03111E" stroke-linecap="round" stroke-linejoin="round"/>
<path d="M13.333 12L13.333 4.66671M4.66634 13.3334H11.9997M11.9997 3.33337H8.99976M3.33301 8.00004V12" stroke="#03111E" stroke-linecap="round" stroke-linejoin="round"/>
<path d="M12 3.33333C12 2.70479 12 2.39052 12.1953 2.19526C12.3905 2 12.7048 2 13.3333 2C13.9619 2 14.2761 2 14.4714 2.19526C14.6667 2.39052 14.6667 2.70479 14.6667 3.33333C14.6667 3.96187 14.6667 4.27614 14.4714 4.4714C14.2761 4.66667 13.9619 4.66667 13.3333 4.66667C12.7048 4.66667 12.3905 4.66667 12.1953 4.4714C12 4.27614 12 3.96187 12 3.33333Z" stroke="#03111E"/>
<path d="M12 13.3333C12 12.7048 12 12.3905 12.1953 12.1953C12.3905 12 12.7048 12 13.3333 12C13.9619 12 14.2761 12 14.4714 12.1953C14.6667 12.3905 14.6667 12.7048 14.6667 13.3333C14.6667 13.9619 14.6667 14.2761 14.4714 14.4714C14.2761 14.6667 13.9619 14.6667 13.3333 14.6667C12.7048 14.6667 12.3905 14.6667 12.1953 14.4714C12 14.2761 12 13.9619 12 13.3333Z" stroke="#03111E"/>
<path d="M2 13.3333C2 12.7048 2 12.3905 2.19526 12.1953C2.39052 12 2.70479 12 3.33333 12C3.96187 12 4.27614 12 4.4714 12.1953C4.66667 12.3905 4.66667 12.7048 4.66667 13.3333C4.66667 13.9619 4.66667 14.2761 4.4714 14.4714C4.27614 14.6667 3.96187 14.6667 3.33333 14.6667C2.70479 14.6667 2.39052 14.6667 2.19526 14.4714C2 14.2761 2 13.9619 2 13.3333Z" stroke="#03111E"/>
</g>
<defs>
<clipPath id="clip0_358_13374">
<rect width="16" height="16" fill="white"/>
</clipPath>
</defs>
</svg>
