<svg width="18" height="18" viewBox="0 0 18 20" fill="none" xmlns="http://www.w3.org/2000/svg">
<path d="M16.7645 5.95108L16.3532 5.23725C16.0421 4.69739 15.8865 4.42746 15.6219 4.31982C15.3573 4.21218 15.0579 4.29712 14.4593 4.46699L13.4425 4.7534C13.0603 4.84153 12.6593 4.79154 12.3104 4.61225L12.0297 4.45027C11.7304 4.25861 11.5003 3.97603 11.3729 3.64387L11.0946 2.81272C10.9116 2.2627 10.8201 1.98769 10.6023 1.83039C10.3845 1.6731 10.0951 1.6731 9.51651 1.6731H8.58753C8.0089 1.6731 7.71958 1.6731 7.50177 1.83039C7.28396 1.98769 7.19247 2.2627 7.00949 2.81272L6.73119 3.64387C6.60379 3.97603 6.37363 4.25861 6.07439 4.45027L5.79366 4.61225C5.4447 4.79154 5.04374 4.84153 4.66157 4.7534L3.64471 4.46699C3.0461 4.29712 2.74679 4.21218 2.48214 4.31982C2.2175 4.42746 2.06196 4.69739 1.75088 5.23725L1.33956 5.95108C1.04797 6.45712 0.902171 6.71014 0.930467 6.97949C0.958764 7.24884 1.15394 7.4659 1.5443 7.90002L2.4035 8.86061C2.6135 9.12646 2.76259 9.58976 2.76259 10.0063C2.76259 10.4231 2.61355 10.8863 2.40352 11.1522L1.54431 12.1128C1.15395 12.5469 0.958765 12.7639 0.930468 13.0333C0.902171 13.3026 1.04797 13.5557 1.33956 14.0617L1.75087 14.7755C2.06194 15.3154 2.2175 15.5853 2.48214 15.693C2.7468 15.8006 3.04611 15.7157 3.64472 15.5458L4.66154 15.2594C5.04377 15.1712 5.44481 15.2212 5.79381 15.4006L6.0745 15.5626C6.37367 15.7542 6.60379 16.0368 6.73117 16.3689L7.00949 17.2001C7.19247 17.7502 7.28396 18.0252 7.50177 18.1825C7.71958 18.3398 8.0089 18.3398 8.58753 18.3398H9.51651C10.0951 18.3398 10.3845 18.3398 10.6023 18.1825C10.8201 18.0252 10.9116 17.7502 11.0946 17.2001L11.3729 16.3689C11.5003 16.0368 11.7304 15.7542 12.0295 15.5626L12.3102 15.4006C12.6592 15.2212 13.0603 15.1712 13.4425 15.2594L14.4593 15.5458C15.0579 15.7157 15.3572 15.8006 15.6219 15.693C15.8865 15.5853 16.0421 15.3154 16.3532 14.7755L16.3532 14.7755L16.7645 14.0617C17.0561 13.5557 17.2019 13.3026 17.1736 13.0333C17.1453 12.7639 16.9501 12.5469 16.5597 12.1128L15.7005 11.1522C15.4905 10.8863 15.3415 10.4231 15.3415 10.0063C15.3415 9.58976 15.4905 9.12646 15.7005 8.86061L16.5597 7.90002C16.9501 7.4659 17.1453 7.24884 17.1736 6.97949C17.2019 6.71014 17.0561 6.45712 16.7645 5.95108Z" stroke="white" stroke-width="1.5" stroke-linecap="round"/>
<path d="M11.9329 9.99992C11.9329 11.6107 10.6271 12.9166 9.01628 12.9166C7.40545 12.9166 6.09961 11.6107 6.09961 9.99992C6.09961 8.38909 7.40545 7.08325 9.01628 7.08325C10.6271 7.08325 11.9329 8.38909 11.9329 9.99992Z" stroke="white" stroke-width="1.5"/>
</svg>
