<svg width="16" height="16" viewBox="0 0 20 20" fill="none" xmlns="http://www.w3.org/2000/svg">
<g clip-path="url(#clip0_103_1215)">
<circle cx="1.25" cy="1.25" r="1.25" transform="matrix(1 0 0 -1 13.3335 6.66699)" stroke="#03111E" stroke-width="1.5" stroke-linecap="round" stroke-linejoin="round"/>
<path d="M2.31194 9.28669C1.47599 10.2203 1.458 11.6289 2.22522 12.6198C3.74768 14.5861 5.41403 16.2525 7.38035 17.7749C8.37125 18.5422 9.77984 18.5242 10.7135 17.6882C13.2483 15.4186 15.5697 13.0466 17.81 10.44C18.0315 10.1823 18.17 9.86648 18.2011 9.52811C18.3386 8.03173 18.6211 3.72064 17.4503 2.54987C16.2795 1.37909 11.9684 1.66155 10.4721 1.79905C10.1337 1.83014 9.81782 1.96869 9.56012 2.19018C6.95352 4.43046 4.58159 6.75184 2.31194 9.28669Z" stroke="#03111E" stroke-width="1.5"/>
<path d="M5.8335 11.667L8.3335 14.167" stroke="#03111E" stroke-width="1.5" stroke-linecap="round" stroke-linejoin="round"/>
</g>
<defs>
<clipPath id="clip0_103_1215">
<rect width="20" height="20" fill="white"/>
</clipPath>
</defs>
</svg>
