<svg width="17" height="17" viewBox="0 0 20 20" fill="none" xmlns="http://www.w3.org/2000/svg">
<path d="M16.25 4.58337L15.7336 12.9376C15.6016 15.0721 15.5356 16.1393 15.0006 16.9066C14.7361 17.286 14.3955 17.6061 14.0006 17.8467C13.2018 18.3334 12.1325 18.3334 9.99395 18.3334C7.8526 18.3334 6.78192 18.3334 5.98254 17.8458C5.58733 17.6048 5.24666 17.284 4.98224 16.9041C4.4474 16.1355 4.38288 15.0668 4.25384 12.9293L3.75 4.58337" stroke="white" stroke-width="1.5" stroke-linecap="round"/>
<path d="M2.5 4.58335H17.5M13.3798 4.58335L12.8109 3.40979C12.433 2.63023 12.244 2.24045 11.9181 1.99736C11.8458 1.94344 11.7692 1.89547 11.6892 1.85394C11.3283 1.66669 10.8951 1.66669 10.0288 1.66669C9.14069 1.66669 8.69665 1.66669 8.32974 1.86179C8.24842 1.90503 8.17082 1.95493 8.09774 2.01099C7.76803 2.26394 7.58386 2.66798 7.2155 3.47607L6.71077 4.58335" stroke="white" stroke-width="1.5" stroke-linecap="round"/>
<path d="M7.91675 13.75L7.91675 8.75" stroke="white" stroke-width="1.5" stroke-linecap="round"/>
<path d="M11.3333 13.75C11.3333 14.1642 11.669 14.5 12.0833 14.5C12.4975 14.5 12.8333 14.1642 12.8333 13.75H11.3333ZM12.8333 8.75C12.8333 8.33579 12.4975 8 12.0833 8C11.669 8 11.3333 8.33579 11.3333 8.75L12.8333 8.75ZM12.8333 13.75L12.8333 8.75L11.3333 8.75L11.3333 13.75H12.8333Z" fill="white"/>
</svg>
