<svg width="151" height="34" viewBox="0 0 151 34" fill="none" xmlns="http://www.w3.org/2000/svg">
<path d="M69.9796 10.7579C69.9796 11.9851 69.7671 13.1269 69.3447 14.1833C68.9222 15.2396 68.3236 16.1587 67.5539 16.9381C66.7843 17.7174 65.8565 18.331 64.7733 18.7737C63.6874 19.2165 62.485 19.4365 61.1633 19.4365C59.8417 19.4365 58.6366 19.2165 57.5482 18.7737C56.4598 18.331 55.5294 17.72 54.7545 16.9381C53.9797 16.1587 53.3837 15.2396 52.9586 14.1833C52.5336 13.1269 52.3237 11.9851 52.3237 10.7579C52.3237 9.53066 52.5362 8.38887 52.9586 7.33252C53.3811 6.27617 53.9797 5.35963 54.7545 4.5829C55.5268 3.80617 56.4598 3.19773 57.5482 2.755C58.6366 2.31226 59.8417 2.0896 61.1633 2.0896C62.485 2.0896 63.6874 2.31226 64.7733 2.76018C65.8565 3.20809 66.7843 3.81912 67.5539 4.59584C68.3236 5.37257 68.9197 6.28911 69.3447 7.34546C69.7671 8.40181 69.9796 9.54101 69.9796 10.7605V10.7579ZM65.9446 10.7579C65.9446 9.91902 65.8358 9.16301 65.6181 8.49243C65.4004 7.82186 65.0868 7.25225 64.68 6.78622C64.2705 6.32018 63.7729 5.96289 63.1821 5.71433C62.5912 5.46578 61.9174 5.3415 61.1633 5.3415C60.4092 5.3415 59.7224 5.46578 59.129 5.71433C58.5355 5.96289 58.0328 6.32018 57.6259 6.78622C57.2165 7.25225 56.9055 7.82186 56.6878 8.49243C56.4701 9.1656 56.3613 9.91902 56.3613 10.7579C56.3613 11.5968 56.4701 12.3631 56.6878 13.0363C56.9055 13.7095 57.2191 14.2765 57.6259 14.7425C58.0328 15.2085 58.5355 15.5632 59.129 15.8092C59.7224 16.0552 60.4014 16.1769 61.1633 16.1769C61.9252 16.1769 62.5886 16.0552 63.1821 15.8092C63.7729 15.5658 64.2731 15.2085 64.68 14.7425C65.0868 14.2765 65.4004 13.7069 65.6181 13.0363C65.8358 12.3657 65.9446 11.6045 65.9446 10.7579Z" fill="#03111E"/>
<path d="M73.9456 1.18032C74.2566 1.66966 74.4872 2.159 74.6401 2.64834C74.793 3.13768 74.8682 3.62443 74.8682 4.10341C74.8682 4.93451 74.6505 5.73195 74.2151 6.49056C73.7798 7.25175 73.1371 7.95599 72.2922 8.60067L71.1494 7.92492C71.0561 7.86278 70.9887 7.79546 70.9447 7.72038C70.9006 7.64529 70.8799 7.57021 70.8799 7.49254C70.8799 7.4071 70.898 7.32684 70.9369 7.24916C70.9758 7.17149 71.0224 7.10676 71.0768 7.0498C71.1624 6.95659 71.2582 6.84267 71.3619 6.70545C71.4681 6.57082 71.5666 6.41288 71.6599 6.23424C71.7532 6.05559 71.8336 5.85364 71.8983 5.62839C71.9631 5.40314 71.9968 5.16235 71.9968 4.90603C71.9968 4.62641 71.9476 4.32607 71.8517 4.00762C71.7532 3.68916 71.5925 3.3474 71.3671 2.98233C71.2893 2.85806 71.2505 2.73378 71.2505 2.6095C71.2505 2.46969 71.2971 2.34542 71.3904 2.23667C71.4837 2.12793 71.6107 2.04249 71.7739 1.98035L73.943 1.17773L73.9456 1.18032Z" fill="#0071EB"/>
<path d="M87.8574 14.859C87.9507 14.859 88.044 14.8771 88.1373 14.9108C88.2306 14.9445 88.3187 15.0066 88.4068 15.092L89.9695 16.7361C89.2853 17.6293 88.4275 18.3025 87.3987 18.7582C86.3673 19.2113 85.1493 19.4391 83.7421 19.4391C82.4516 19.4391 81.2958 19.2191 80.2721 18.7815C79.2485 18.3439 78.3829 17.7355 77.6703 16.964C76.9576 16.1924 76.4134 15.2759 76.0324 14.2143C75.6515 13.1554 75.4597 12.0032 75.4597 10.7605C75.4597 9.51771 75.6774 8.33191 76.1128 7.27038C76.5481 6.20885 77.1571 5.2949 77.9372 4.52594C78.7172 3.75698 79.6528 3.1589 80.7412 2.7317C81.8296 2.30449 83.0295 2.0896 84.3459 2.0896C84.9835 2.0896 85.5847 2.14656 86.147 2.25789C86.7094 2.37181 87.2381 2.52716 87.7278 2.72393C88.2176 2.9207 88.6686 3.1589 89.0806 3.43334C89.4927 3.71037 89.8581 4.0133 90.1768 4.34729L88.8474 6.12859C88.7619 6.23733 88.6608 6.33572 88.5442 6.42633C88.4275 6.51436 88.2643 6.56097 88.0544 6.56097C87.9144 6.56097 87.7823 6.5299 87.6579 6.46776C87.5335 6.40562 87.4013 6.33054 87.2614 6.23992C87.1214 6.1493 86.9685 6.0535 86.8001 5.94994C86.6316 5.84379 86.4347 5.74799 86.2066 5.65996C85.976 5.57193 85.7091 5.49426 85.4007 5.43212C85.0923 5.36998 84.7347 5.33891 84.3226 5.33891C83.6074 5.33891 82.9543 5.46578 82.3634 5.71692C81.7726 5.97065 81.2647 6.33054 80.8422 6.80175C80.4172 7.27297 80.0881 7.83998 79.8497 8.50797C79.6113 9.17595 79.4947 9.92679 79.4947 10.7579C79.4947 11.589 79.6139 12.3994 79.8497 13.0777C80.0881 13.7535 80.4095 14.3231 80.8189 14.7839C81.2258 15.2474 81.7026 15.5969 82.2468 15.8377C82.7911 16.0785 83.3741 16.1976 83.9961 16.1976C84.3537 16.1976 84.6802 16.1795 84.9757 16.1458C85.2711 16.1096 85.5458 16.05 85.7972 15.9646C86.0486 15.8791 86.2896 15.7678 86.5202 15.6332C86.7483 15.4985 86.9815 15.3276 87.2147 15.1257C87.308 15.048 87.4091 14.9833 87.5179 14.9341C87.6268 14.8849 87.7382 14.859 87.8548 14.859H87.8574Z" fill="#03111E"/>
<path d="M100.23 12.7975V19.2521H96.2885V12.7975L90.1311 2.27539H93.6063C93.9484 2.27539 94.2205 2.35565 94.4226 2.51359C94.6248 2.67411 94.788 2.87606 94.9124 3.12461L97.3147 8.06461C97.5091 8.46074 97.6879 8.8258 97.8512 9.15979C98.0144 9.49379 98.1596 9.8226 98.2839 10.1514C98.4006 9.81742 98.5405 9.48343 98.7038 9.14944C98.867 8.81544 99.0433 8.45556 99.2298 8.06461L101.609 3.12461C101.655 3.02364 101.72 2.92266 101.801 2.82169C101.884 2.72071 101.977 2.6301 102.08 2.54725C102.187 2.46698 102.306 2.39967 102.443 2.35047C102.578 2.30128 102.728 2.27539 102.892 2.27539H106.39L100.233 12.7975H100.23Z" fill="#03111E"/>
<path d="M107.554 19.2495V2.27539H113.804C114.978 2.27539 115.976 2.38413 116.803 2.60162C117.627 2.8191 118.298 3.12461 118.822 3.52075C119.342 3.91688 119.721 4.39845 119.959 4.96546C120.195 5.53247 120.314 6.16421 120.314 6.86327C120.314 7.24386 120.26 7.61152 120.151 7.96363C120.042 8.31834 119.871 8.64974 119.638 8.96043C119.405 9.27113 119.107 9.55334 118.741 9.80448C118.376 10.0582 117.938 10.2757 117.425 10.4621C118.544 10.734 119.374 11.1741 119.907 11.7851C120.444 12.3962 120.713 13.1781 120.713 14.1334C120.713 14.8558 120.573 15.5264 120.293 16.1504C120.014 16.7743 119.604 17.3129 119.063 17.7763C118.521 18.2398 117.855 18.5996 117.062 18.8585C116.269 19.12 115.362 19.2495 114.343 19.2495H107.556H107.554ZM111.495 9.41612H113.548C113.983 9.41612 114.375 9.38505 114.724 9.32291C115.074 9.26077 115.372 9.15203 115.616 8.99668C115.862 8.84134 116.049 8.62903 116.176 8.35459C116.305 8.08273 116.367 7.74097 116.367 7.3293C116.367 6.91764 116.316 6.58882 116.217 6.32215C116.116 6.05288 115.961 5.83799 115.751 5.67487C115.541 5.51176 115.274 5.39525 114.952 5.32534C114.628 5.25544 114.248 5.22178 113.804 5.22178H111.495V9.41612ZM111.495 12.0492V16.2772H114.271C114.792 16.2772 115.217 16.2125 115.548 16.0779C115.88 15.9458 116.137 15.7749 116.323 15.5652C116.51 15.3555 116.637 15.1199 116.707 14.8532C116.777 14.5891 116.813 14.3225 116.813 14.048C116.813 13.7373 116.772 13.4577 116.691 13.2091C116.611 12.9606 116.471 12.7509 116.271 12.58C116.075 12.4091 115.81 12.2771 115.484 12.1839C115.157 12.0907 114.745 12.044 114.248 12.044H111.495V12.0492Z" fill="#03111E"/>
<path d="M133.793 2.27539V5.30463H126.819V9.26595H132.16V12.1787H126.819V16.2228H133.793V19.2521H122.854V2.27539H133.793Z" fill="#03111E"/>
<path d="M139.973 12.9709V19.2495H136.031V2.27539H141.559C142.787 2.27539 143.834 2.40226 144.702 2.6534C145.568 2.90713 146.278 3.25666 146.825 3.70716C147.371 4.15766 147.77 4.69102 148.019 5.30463C148.268 5.91825 148.392 6.58623 148.392 7.30859C148.392 7.86007 148.317 8.38048 148.172 8.86982C148.024 9.35916 147.804 9.81225 147.514 10.2265C147.224 10.6433 146.866 11.0136 146.441 11.3398C146.016 11.666 145.529 11.9327 144.977 12.1424C145.241 12.2745 145.487 12.4376 145.718 12.6318C145.949 12.826 146.148 13.0642 146.319 13.3412L149.934 19.2495H146.366C145.705 19.2495 145.231 19.0009 144.943 18.5038L142.121 13.5742C141.997 13.3567 141.851 13.2014 141.683 13.1082C141.515 13.015 141.281 12.9684 140.978 12.9684H139.975L139.973 12.9709ZM139.973 10.255H141.559C142.095 10.255 142.551 10.1877 142.93 10.0504C143.308 9.91581 143.616 9.72681 143.857 9.48602C144.098 9.24524 144.272 8.96302 144.383 8.64198C144.492 8.32093 144.547 7.9714 144.547 7.59857C144.547 6.85291 144.303 6.27036 143.818 5.85093C143.334 5.4315 142.58 5.22178 141.561 5.22178H139.975V10.255H139.973Z" fill="#03111E"/>
<path d="M52.3351 24.6716H53.0659C53.1437 24.6716 53.2084 24.6923 53.2603 24.7312C53.3121 24.77 53.3458 24.8192 53.3639 24.8813L54.7063 29.3941C54.7297 29.477 54.753 29.5624 54.7711 29.6582C54.7918 29.7514 54.81 29.8498 54.8281 29.9534C54.8489 29.8498 54.8696 29.7514 54.8929 29.6556C54.9136 29.5598 54.937 29.4744 54.9655 29.3941L56.4945 24.8813C56.5126 24.8296 56.5489 24.783 56.6007 24.7389C56.6525 24.6949 56.7173 24.6742 56.7925 24.6742H57.0464C57.1242 24.6742 57.189 24.6949 57.2382 24.7338C57.2875 24.7726 57.3237 24.8218 57.3445 24.8839L58.8631 29.3967C58.9175 29.5547 58.9667 29.7333 59.0082 29.9353C59.0263 29.8369 59.0419 29.7411 59.0574 29.6505C59.073 29.5598 59.0911 29.4744 59.1171 29.3967L60.4646 24.8839C60.4802 24.8296 60.5139 24.7804 60.5657 24.7389C60.6175 24.6975 60.6823 24.6742 60.7575 24.6742H61.4416L59.4151 31.1677H58.6273L56.9817 26.2147C56.948 26.1215 56.9169 26.0128 56.891 25.8885C56.8754 25.9481 56.8624 26.0076 56.8469 26.062C56.8314 26.1163 56.8184 26.1681 56.8028 26.2147L55.1469 31.1677H54.3591L52.3325 24.6742L52.3351 24.6716Z" fill="#03111E"/>
<path d="M63.8503 26.5026C64.125 26.5026 64.379 26.5492 64.6122 26.6398C64.8455 26.7304 65.045 26.8651 65.2161 27.0385C65.3871 27.212 65.5167 27.4269 65.6126 27.6806C65.7084 27.9369 65.7551 28.2269 65.7551 28.5532C65.7551 28.68 65.7421 28.7655 65.7136 28.8069C65.6851 28.8483 65.6359 28.869 65.5581 28.869H62.5028C62.508 29.159 62.5468 29.4101 62.622 29.625C62.6945 29.8399 62.7956 30.0186 62.9226 30.161C63.0496 30.3034 63.1999 30.4121 63.3761 30.482C63.5523 30.5519 63.7467 30.5882 63.9644 30.5882C64.1665 30.5882 64.3427 30.5649 64.4879 30.5183C64.6356 30.4717 64.76 30.4199 64.8662 30.3655C64.9725 30.3111 65.0606 30.2594 65.1305 30.2128C65.2005 30.1662 65.2627 30.1429 65.3145 30.1429C65.3819 30.1429 65.4337 30.1687 65.4674 30.2205L65.6955 30.5157C65.597 30.6374 65.4752 30.7409 65.3379 30.8316C65.1979 30.9196 65.0502 30.9947 64.8921 31.0516C64.734 31.1086 64.5682 31.1526 64.3997 31.1811C64.2313 31.2096 64.0628 31.2251 63.897 31.2251C63.5782 31.2251 63.288 31.1707 63.0185 31.0646C62.749 30.9584 62.5209 30.8005 62.324 30.5934C62.1296 30.3862 61.9767 30.1299 61.8679 29.8244C61.759 29.5189 61.7046 29.1694 61.7046 28.7732C61.7046 28.4522 61.7538 28.1544 61.8523 27.8774C61.9508 27.6004 62.0907 27.3596 62.2773 27.155C62.4613 26.9505 62.6868 26.79 62.9537 26.6735C63.2206 26.557 63.5186 26.5 63.8503 26.5V26.5026ZM63.8685 27.0955C63.4798 27.0955 63.1714 27.2068 62.9485 27.4321C62.7256 27.6573 62.5857 27.968 62.5313 28.3667H65.0295C65.0295 28.1803 65.0036 28.0094 64.9517 27.8515C64.8999 27.6962 64.8247 27.5615 64.7237 27.4476C64.6226 27.3337 64.5034 27.2457 64.3583 27.1835C64.2157 27.1214 64.0499 27.0903 63.8659 27.0903L63.8685 27.0955Z" fill="#03111E"/>
<path d="M68.6619 31.1607V24.6672H70.7351C71.1341 24.6672 71.4788 24.7061 71.7665 24.7863C72.0541 24.864 72.2925 24.9753 72.4791 25.1203C72.6657 25.2653 72.8031 25.444 72.8912 25.6537C72.9793 25.8634 73.0259 26.099 73.0259 26.3631C73.0259 26.5236 73 26.6764 72.9508 26.8265C72.9016 26.9741 72.8264 27.1113 72.7227 27.2382C72.6217 27.3651 72.4947 27.479 72.3418 27.5774C72.1889 27.6784 72.0101 27.7586 71.8053 27.8233C72.2796 27.9166 72.6372 28.0874 72.8808 28.336C73.1218 28.5845 73.2436 28.9108 73.2436 29.3147C73.2436 29.5891 73.1918 29.8402 73.0907 30.0655C72.9897 30.2908 72.8419 30.4875 72.6476 30.6506C72.4532 30.8137 72.2148 30.9406 71.9297 31.0286C71.6473 31.1167 71.3233 31.1633 70.9605 31.1633H68.6619V31.1607ZM69.543 27.5774H70.704C70.9527 27.5774 71.1678 27.5515 71.3492 27.4971C71.5306 27.4427 71.681 27.3677 71.8002 27.2693C71.9194 27.1709 72.0075 27.0544 72.0645 26.9172C72.1215 26.7799 72.15 26.6298 72.15 26.4667C72.15 26.0861 72.036 25.8064 71.8053 25.6278C71.5747 25.4491 71.2197 25.3611 70.7351 25.3611H69.543V27.5774ZM69.543 28.2039V30.4642H70.9476C71.1989 30.4642 71.414 30.4357 71.5928 30.3788C71.7717 30.3218 71.922 30.2416 72.0386 30.1354C72.1552 30.0318 72.2407 29.9076 72.2951 29.7652C72.3496 29.6228 72.3781 29.4648 72.3781 29.2914C72.3781 28.9574 72.2589 28.6907 72.023 28.4965C71.7846 28.3023 71.427 28.2039 70.945 28.2039H69.543Z" fill="#03111E"/>
<path d="M75.1018 26.5754V29.5011C75.1018 29.8481 75.1821 30.1173 75.3428 30.3089C75.5034 30.5005 75.7445 30.5937 76.0684 30.5937C76.3042 30.5937 76.5271 30.5368 76.7344 30.4254C76.9443 30.3141 77.1361 30.1587 77.3097 29.9594V26.5754H78.1183V31.1659H77.6362C77.5222 31.1659 77.4497 31.1089 77.4186 30.9976L77.3538 30.5031C77.1542 30.7232 76.9314 30.9018 76.6826 31.0365C76.4338 31.1711 76.1513 31.2384 75.83 31.2384C75.5786 31.2384 75.3583 31.197 75.1665 31.1141C74.9748 31.0313 74.8141 30.9148 74.6845 30.762C74.555 30.6118 74.4565 30.428 74.3917 30.2131C74.3269 29.9982 74.2932 29.7626 74.2932 29.5011V26.5754H75.1018Z" fill="#03111E"/>
<path d="M80.5239 25.132C80.5239 25.2096 80.5084 25.2847 80.4773 25.352C80.4462 25.4193 80.4021 25.4815 80.3503 25.5333C80.2985 25.5876 80.2363 25.6291 80.1663 25.6575C80.0963 25.6886 80.0238 25.7016 79.9434 25.7016C79.8631 25.7016 79.7905 25.686 79.7231 25.6575C79.6558 25.6265 79.5936 25.5851 79.5417 25.5333C79.4873 25.4815 79.4459 25.4193 79.4173 25.352C79.3863 25.2847 79.3733 25.2096 79.3733 25.132C79.3733 25.0543 79.3888 24.9792 79.4173 24.9067C79.4484 24.8368 79.4899 24.7747 79.5417 24.7203C79.5936 24.6685 79.6558 24.6245 79.7231 24.596C79.7905 24.5649 79.8657 24.552 79.9434 24.552C80.0212 24.552 80.0963 24.5675 80.1663 24.596C80.2363 24.6271 80.2959 24.6685 80.3503 24.7203C80.4047 24.7721 80.4462 24.8342 80.4773 24.9067C80.5084 24.9766 80.5239 25.0517 80.5239 25.132ZM80.3425 26.5741V31.1646H79.5366V26.5741H80.3425Z" fill="#03111E"/>
<path d="M82.6651 24.4902V31.1649H81.8591V24.4902H82.6651Z" fill="#03111E"/>
<path d="M87.3225 31.1623C87.2085 31.1623 87.136 31.1054 87.1049 30.994L87.0323 30.4374C86.8353 30.6756 86.6125 30.8672 86.3585 31.0096C86.1071 31.152 85.8169 31.2245 85.4904 31.2245C85.226 31.2245 84.9876 31.1727 84.7725 31.0717C84.5574 30.9707 84.376 30.8206 84.2231 30.6264C84.0728 30.4296 83.9562 30.1862 83.8733 29.8937C83.7929 29.6011 83.7515 29.2645 83.7515 28.8839C83.7515 28.5448 83.7955 28.2315 83.8888 27.9389C83.9795 27.6463 84.1091 27.3952 84.2801 27.1803C84.4512 26.9654 84.6585 26.7971 84.9047 26.6754C85.1509 26.5537 85.4282 26.4916 85.7391 26.4916C86.019 26.4916 86.26 26.5382 86.4596 26.634C86.6591 26.7298 86.8379 26.8618 86.996 27.0353V24.4902H87.8046V31.1649H87.3225V31.1623ZM85.7573 30.572C86.019 30.572 86.2497 30.5125 86.4492 30.3908C86.6462 30.2691 86.8302 30.0982 86.996 29.8781V27.6567C86.8483 27.4573 86.685 27.3175 86.5088 27.2373C86.3326 27.157 86.1356 27.1182 85.9205 27.1182C85.4904 27.1182 85.1612 27.2709 84.9306 27.5764C84.6999 27.882 84.5859 28.3169 84.5859 28.8813C84.5859 29.1817 84.6118 29.4354 84.6637 29.6503C84.7155 29.8626 84.7907 30.0387 84.8917 30.1759C84.9902 30.3131 85.1146 30.4141 85.2597 30.4762C85.4048 30.541 85.5707 30.572 85.7573 30.572Z" fill="#03111E"/>
<path d="M96.6696 27.9184C96.6696 28.4051 96.5919 28.8478 96.439 29.2466C96.2861 29.6453 96.0658 29.987 95.7859 30.2718C95.5061 30.5566 95.1666 30.7767 94.7753 30.9321C94.3814 31.0874 93.946 31.1651 93.4692 31.1651H91.0383V24.6716H93.4692C93.946 24.6716 94.3814 24.7493 94.7753 24.9046C95.1692 25.06 95.5061 25.2801 95.7859 25.5649C96.0658 25.8497 96.2861 26.1914 96.439 26.5901C96.5919 26.9889 96.6696 27.4316 96.6696 27.9184ZM95.7678 27.9184C95.7678 27.5196 95.7134 27.1623 95.6045 26.8491C95.4957 26.5358 95.3402 26.2691 95.1407 26.0516C94.9411 25.8341 94.7001 25.6684 94.415 25.5545C94.13 25.4406 93.8138 25.381 93.4666 25.381H91.9194V30.4505H93.4666C93.8138 30.4505 94.13 30.3935 94.415 30.277C94.7001 30.1605 94.9411 29.9974 95.1407 29.7799C95.3402 29.565 95.4931 29.2983 95.6045 28.9851C95.7134 28.6718 95.7678 28.3145 95.7678 27.9158V27.9184Z" fill="#03111E"/>
<path d="M98.8188 25.132C98.8188 25.2096 98.8033 25.2847 98.7722 25.352C98.7411 25.4193 98.697 25.4815 98.6452 25.5333C98.5934 25.5876 98.5312 25.6291 98.4612 25.6575C98.3912 25.6886 98.3187 25.7016 98.2383 25.7016C98.158 25.7016 98.0854 25.686 98.0181 25.6575C97.9507 25.6265 97.8885 25.5851 97.8367 25.5333C97.7822 25.4815 97.7408 25.4193 97.7123 25.352C97.6812 25.2847 97.6682 25.2096 97.6682 25.132C97.6682 25.0543 97.6838 24.9792 97.7123 24.9067C97.7434 24.8368 97.7848 24.7747 97.8367 24.7203C97.8885 24.6685 97.9507 24.6245 98.0181 24.596C98.0854 24.5649 98.1606 24.552 98.2383 24.552C98.3161 24.552 98.3912 24.5675 98.4612 24.596C98.5312 24.6271 98.5908 24.6685 98.6452 24.7203C98.6996 24.7721 98.7411 24.8342 98.7722 24.9067C98.8033 24.9766 98.8188 25.0517 98.8188 25.132ZM98.6374 26.5741V31.1646H97.8315V26.5741H98.6374Z" fill="#03111E"/>
<path d="M101.606 26.4956C101.806 26.4956 101.992 26.5163 102.166 26.5603C102.34 26.6043 102.498 26.6691 102.64 26.7519H103.887V27.0523C103.887 27.1506 103.822 27.2154 103.695 27.2413L103.174 27.3138C103.278 27.5105 103.33 27.728 103.33 27.9714C103.33 28.1941 103.286 28.3986 103.2 28.5798C103.115 28.7637 102.995 28.919 102.842 29.0485C102.69 29.1779 102.508 29.2789 102.298 29.3488C102.088 29.4187 101.858 29.4524 101.606 29.4524C101.391 29.4524 101.189 29.4265 101 29.3747C100.904 29.4368 100.829 29.5041 100.78 29.5766C100.73 29.6491 100.704 29.719 100.704 29.7863C100.704 29.8977 100.749 29.9831 100.837 30.0427C100.925 30.0996 101.041 30.1411 101.186 30.1669C101.332 30.1928 101.497 30.2032 101.681 30.2032H102.246C102.438 30.2032 102.627 30.2213 102.811 30.255C102.995 30.2886 103.161 30.343 103.306 30.4207C103.451 30.4983 103.568 30.6019 103.656 30.7365C103.744 30.8712 103.788 31.0446 103.788 31.2595C103.788 31.4589 103.739 31.6505 103.641 31.8369C103.542 32.0233 103.402 32.189 103.216 32.334C103.032 32.479 102.806 32.5955 102.539 32.6835C102.272 32.7716 101.972 32.813 101.637 32.813C101.303 32.813 101.008 32.7793 100.756 32.712C100.505 32.6447 100.295 32.5567 100.129 32.4453C99.9633 32.334 99.8389 32.2046 99.756 32.057C99.6731 31.9094 99.6316 31.7566 99.6316 31.5961C99.6316 31.3683 99.7042 31.1767 99.8467 31.0188C99.9892 30.8608 100.189 30.734 100.438 30.6407C100.308 30.5812 100.204 30.5009 100.127 30.4C100.049 30.299 100.01 30.1644 100.01 29.9961C100.01 29.9287 100.023 29.8614 100.046 29.7915C100.07 29.7216 100.108 29.6517 100.158 29.5818C100.207 29.5119 100.269 29.4472 100.342 29.3824C100.414 29.3203 100.5 29.2633 100.596 29.2142C100.368 29.0873 100.191 28.919 100.062 28.7093C99.9322 28.4996 99.87 28.2536 99.87 27.974C99.87 27.7513 99.9141 27.5468 99.9996 27.3655C100.085 27.1817 100.207 27.0264 100.36 26.8995C100.513 26.7701 100.697 26.6717 100.912 26.6018C101.124 26.5319 101.358 26.4982 101.611 26.4982L101.606 26.4956ZM103.039 31.3942C103.039 31.2777 103.008 31.1845 102.944 31.112C102.881 31.0421 102.793 30.9851 102.684 30.9489C102.576 30.91 102.451 30.8815 102.309 30.8634C102.166 30.8453 102.016 30.8349 101.86 30.8349H101.378C101.215 30.8349 101.06 30.8142 100.912 30.7728C100.738 30.8556 100.601 30.954 100.492 31.0731C100.383 31.1922 100.331 31.332 100.331 31.4951C100.331 31.5987 100.357 31.6945 100.412 31.7825C100.466 31.8706 100.546 31.9482 100.655 32.013C100.764 32.0777 100.901 32.1295 101.065 32.1683C101.231 32.2071 101.422 32.2253 101.648 32.2253C101.873 32.2253 102.06 32.2046 102.233 32.1657C102.407 32.1243 102.552 32.0673 102.671 31.9948C102.791 31.9198 102.881 31.8317 102.946 31.7308C103.011 31.6298 103.042 31.5159 103.042 31.3942H103.039ZM101.606 28.919C101.77 28.919 101.915 28.8957 102.039 28.8517C102.163 28.8077 102.27 28.7429 102.355 28.6601C102.441 28.5798 102.503 28.4814 102.544 28.3675C102.586 28.2536 102.609 28.1293 102.609 27.9947C102.609 27.7151 102.524 27.4898 102.353 27.3241C102.182 27.1584 101.933 27.0756 101.606 27.0756C101.28 27.0756 101.036 27.1584 100.865 27.3241C100.694 27.4898 100.609 27.7125 100.609 27.9947C100.609 28.1319 100.629 28.2562 100.673 28.3675C100.717 28.4814 100.782 28.5772 100.865 28.6601C100.951 28.7429 101.054 28.8051 101.179 28.8517C101.303 28.8957 101.446 28.919 101.604 28.919H101.606Z" fill="#03111E"/>
<path d="M105.776 25.132C105.776 25.2096 105.761 25.2847 105.729 25.352C105.698 25.4193 105.654 25.4815 105.602 25.5333C105.551 25.5876 105.488 25.6291 105.418 25.6575C105.349 25.6886 105.276 25.7016 105.196 25.7016C105.115 25.7016 105.043 25.686 104.975 25.6575C104.908 25.6265 104.846 25.5851 104.794 25.5333C104.74 25.4815 104.698 25.4193 104.67 25.352C104.638 25.2847 104.625 25.2096 104.625 25.132C104.625 25.0543 104.641 24.9792 104.67 24.9067C104.701 24.8368 104.742 24.7747 104.794 24.7203C104.846 24.6685 104.908 24.6245 104.975 24.596C105.043 24.5649 105.118 24.552 105.196 24.552C105.273 24.552 105.349 24.5675 105.418 24.596C105.488 24.6271 105.548 24.6685 105.602 24.7203C105.657 24.7721 105.698 24.8342 105.729 24.9067C105.761 24.9766 105.776 25.0517 105.776 25.132ZM105.595 26.5741V31.1646H104.789V26.5741H105.595Z" fill="#03111E"/>
<path d="M108.411 31.2355C108.048 31.2355 107.768 31.1345 107.574 30.9326C107.38 30.7306 107.281 30.438 107.281 30.0574V27.2483H106.726C106.677 27.2483 106.638 27.2353 106.605 27.2043C106.571 27.1758 106.555 27.1318 106.555 27.0696V26.7486L107.31 26.6528L107.496 25.234C107.501 25.1874 107.522 25.1511 107.556 25.1226C107.589 25.0941 107.631 25.0786 107.683 25.0786H108.09V26.6606H109.406V27.2457H108.09V30.0005C108.09 30.1947 108.136 30.3371 108.23 30.4303C108.323 30.5235 108.445 30.5701 108.592 30.5701C108.678 30.5701 108.75 30.5597 108.813 30.5364C108.875 30.5131 108.929 30.4898 108.973 30.4613C109.017 30.4355 109.056 30.4096 109.09 30.3863C109.121 30.363 109.15 30.3526 109.173 30.3526C109.214 30.3526 109.253 30.3785 109.287 30.4303L109.523 30.816C109.383 30.9455 109.217 31.0491 109.02 31.1216C108.823 31.1966 108.621 31.2329 108.414 31.2329L108.411 31.2355Z" fill="#03111E"/>
<path d="M113.778 31.1645H113.42C113.343 31.1645 113.278 31.1516 113.229 31.1283C113.179 31.105 113.148 31.0532 113.133 30.9729L113.042 30.5483C112.92 30.6571 112.804 30.7555 112.687 30.8409C112.573 30.9263 112.451 30.9988 112.324 31.0584C112.197 31.1179 112.062 31.1619 111.917 31.193C111.775 31.2241 111.614 31.237 111.438 31.237C111.262 31.237 111.093 31.2111 110.938 31.1619C110.782 31.1127 110.647 31.0377 110.531 30.9367C110.414 30.8357 110.323 30.7088 110.256 30.5561C110.189 30.4033 110.155 30.2221 110.155 30.0124C110.155 29.8311 110.204 29.6551 110.305 29.4868C110.406 29.3185 110.567 29.1683 110.787 29.0389C111.01 28.9094 111.3 28.8007 111.661 28.7178C112.021 28.635 112.461 28.5936 112.98 28.5936V28.2337C112.98 27.8738 112.905 27.6045 112.752 27.4207C112.599 27.2369 112.373 27.1437 112.073 27.1437C111.876 27.1437 111.71 27.1696 111.575 27.2187C111.44 27.2679 111.324 27.3249 111.225 27.387C111.127 27.4492 111.041 27.5061 110.971 27.5553C110.901 27.6045 110.831 27.6304 110.761 27.6304C110.707 27.6304 110.66 27.6175 110.619 27.5864C110.577 27.5579 110.546 27.5217 110.52 27.4802L110.375 27.2213C110.629 26.9754 110.904 26.7941 111.197 26.6724C111.49 26.5508 111.816 26.4912 112.171 26.4912C112.428 26.4912 112.656 26.5326 112.855 26.6181C113.055 26.7035 113.223 26.82 113.358 26.9728C113.495 27.123 113.597 27.3068 113.666 27.5217C113.736 27.7366 113.77 27.9722 113.77 28.2285V31.1645H113.778ZM111.684 30.67C111.827 30.67 111.956 30.6545 112.073 30.626C112.192 30.5975 112.301 30.5561 112.407 30.5043C112.513 30.4525 112.612 30.3878 112.708 30.3127C112.804 30.2376 112.897 30.1522 112.988 30.0538V29.1062C112.614 29.1062 112.301 29.1295 112.039 29.1761C111.78 29.2227 111.567 29.2848 111.404 29.3599C111.241 29.435 111.122 29.5256 111.049 29.6292C110.974 29.7328 110.938 29.8467 110.938 29.9761C110.938 30.1056 110.958 30.2014 110.997 30.2894C111.036 30.3774 111.091 30.4499 111.155 30.5069C111.22 30.5639 111.3 30.6053 111.391 30.6312C111.482 30.6571 111.58 30.67 111.687 30.67H111.684Z" fill="#03111E"/>
<path d="M115.897 24.4902V31.1649H115.091V24.4902H115.897Z" fill="#03111E"/>
<path d="M120.164 28.7321V31.1607H119.288V24.6672H121.206C121.618 24.6672 121.975 24.7138 122.278 24.8096C122.582 24.9054 122.833 25.0401 123.033 25.2161C123.232 25.3922 123.38 25.6019 123.478 25.8505C123.577 26.099 123.626 26.3735 123.626 26.679C123.626 26.9845 123.574 27.2563 123.468 27.5075C123.362 27.7586 123.206 27.9735 123.004 28.1547C122.802 28.336 122.548 28.4784 122.245 28.5794C121.942 28.6803 121.597 28.7321 121.206 28.7321H120.161H120.164ZM120.164 28.0331H121.208C121.46 28.0331 121.68 27.9994 121.872 27.9347C122.063 27.8674 122.224 27.7742 122.354 27.6551C122.483 27.536 122.582 27.3936 122.649 27.2279C122.716 27.0621 122.747 26.8783 122.747 26.679C122.747 26.2647 122.621 25.9411 122.364 25.7081C122.107 25.475 121.721 25.3585 121.206 25.3585H120.161V28.0331H120.164Z" fill="#03111E"/>
<path d="M124.614 31.1645V26.5741H125.077C125.166 26.5741 125.225 26.5896 125.259 26.6233C125.292 26.6569 125.316 26.7139 125.326 26.7967L125.381 27.5113C125.539 27.1903 125.733 26.9417 125.964 26.7605C126.194 26.5818 126.466 26.4912 126.777 26.4912C126.904 26.4912 127.018 26.5067 127.122 26.5352C127.226 26.5637 127.319 26.6051 127.407 26.6543L127.303 27.2576C127.283 27.3327 127.236 27.3715 127.164 27.3715C127.122 27.3715 127.057 27.356 126.969 27.3275C126.881 27.299 126.759 27.2835 126.601 27.2835C126.321 27.2835 126.085 27.3663 125.896 27.5294C125.707 27.6926 125.549 27.9307 125.422 28.2414V31.1645H124.614Z" fill="#03111E"/>
<path d="M130.129 26.5C130.464 26.5 130.767 26.557 131.039 26.6683C131.308 26.7796 131.539 26.9376 131.728 27.1447C131.917 27.3492 132.062 27.5978 132.164 27.8903C132.265 28.1829 132.316 28.5065 132.316 28.8664C132.316 29.2263 132.265 29.5551 132.164 29.8451C132.062 30.1351 131.917 30.3836 131.728 30.5882C131.539 30.7927 131.308 30.9507 131.039 31.062C130.769 31.1733 130.466 31.2277 130.129 31.2277C129.792 31.2277 129.492 31.1733 129.22 31.062C128.95 30.9507 128.719 30.7927 128.528 30.5882C128.336 30.3836 128.191 30.1351 128.087 29.8451C127.983 29.5551 127.932 29.2289 127.932 28.8664C127.932 28.504 127.983 28.1803 128.087 27.8903C128.191 27.5978 128.336 27.3518 128.528 27.1447C128.717 26.9401 128.948 26.7796 129.22 26.6683C129.489 26.557 129.792 26.5 130.129 26.5ZM130.129 30.5959C130.583 30.5959 130.922 30.4432 131.145 30.1403C131.368 29.8373 131.479 29.4127 131.479 28.869C131.479 28.3253 131.368 27.8955 131.145 27.5926C130.922 27.2871 130.583 27.1343 130.129 27.1343C129.899 27.1343 129.699 27.1732 129.531 27.2534C129.362 27.3311 129.22 27.445 129.106 27.5926C128.992 27.7402 128.909 27.9214 128.852 28.1389C128.795 28.3538 128.769 28.5998 128.769 28.8716C128.769 29.1435 128.797 29.3868 128.852 29.6017C128.909 29.8166 128.992 29.9979 129.106 30.1429C129.22 30.2904 129.36 30.4018 129.531 30.4794C129.699 30.5571 129.899 30.5985 130.129 30.5985V30.5959Z" fill="#03111E"/>
<path d="M136.545 31.1623C136.431 31.1623 136.359 31.1054 136.328 30.994L136.255 30.4374C136.058 30.6756 135.835 30.8672 135.581 31.0096C135.33 31.152 135.04 31.2245 134.713 31.2245C134.449 31.2245 134.211 31.1727 133.995 31.0717C133.78 30.9707 133.599 30.8206 133.446 30.6264C133.296 30.4296 133.179 30.1862 133.096 29.8937C133.016 29.6011 132.974 29.2645 132.974 28.8839C132.974 28.5448 133.018 28.2315 133.112 27.9389C133.202 27.6463 133.332 27.3952 133.503 27.1803C133.674 26.9654 133.881 26.7971 134.128 26.6754C134.374 26.5537 134.651 26.4916 134.962 26.4916C135.242 26.4916 135.483 26.5382 135.682 26.634C135.882 26.7298 136.061 26.8618 136.219 27.0353V24.4902H137.027V31.1649H136.545V31.1623ZM134.98 30.572C135.242 30.572 135.473 30.5125 135.672 30.3908C135.869 30.2691 136.053 30.0982 136.219 29.8781V27.6567C136.071 27.4573 135.908 27.3175 135.732 27.2373C135.555 27.157 135.359 27.1182 135.143 27.1182C134.713 27.1182 134.384 27.2709 134.153 27.5764C133.923 27.882 133.809 28.3169 133.809 28.8813C133.809 29.1817 133.835 29.4354 133.887 29.6503C133.938 29.8626 134.014 30.0387 134.115 30.1759C134.213 30.3131 134.337 30.4141 134.483 30.4762C134.628 30.541 134.794 30.572 134.98 30.572Z" fill="#03111E"/>
<path d="M139.08 26.5754V29.5011C139.08 29.8481 139.16 30.1173 139.321 30.3089C139.481 30.5005 139.722 30.5937 140.046 30.5937C140.282 30.5937 140.505 30.5368 140.712 30.4254C140.922 30.3141 141.114 30.1587 141.288 29.9594V26.5754H142.096V31.1659H141.614C141.5 31.1659 141.428 31.1089 141.396 30.9976L141.332 30.5031C141.132 30.7232 140.909 30.9018 140.66 31.0365C140.412 31.1711 140.129 31.2384 139.808 31.2384C139.556 31.2384 139.336 31.197 139.144 31.1141C138.953 31.0313 138.792 30.9148 138.662 30.762C138.533 30.6118 138.434 30.428 138.37 30.2131C138.305 29.9982 138.271 29.7626 138.271 29.5011V26.5754H139.08Z" fill="#03111E"/>
<path d="M146.559 27.3899C146.535 27.4235 146.509 27.4494 146.486 27.4675C146.463 27.4857 146.426 27.496 146.382 27.496C146.338 27.496 146.289 27.4779 146.235 27.4391C146.18 27.4002 146.115 27.3588 146.032 27.3148C145.952 27.2708 145.851 27.2293 145.734 27.1905C145.618 27.1517 145.475 27.1335 145.307 27.1335C145.084 27.1335 144.884 27.175 144.713 27.2526C144.54 27.3329 144.397 27.4494 144.281 27.5996C144.164 27.7497 144.076 27.9336 144.019 28.1485C143.959 28.3634 143.931 28.6041 143.931 28.8682C143.931 29.1323 143.962 29.3938 144.027 29.6087C144.091 29.8236 144.18 30.0074 144.294 30.1524C144.408 30.2974 144.548 30.4113 144.713 30.4864C144.879 30.5641 145.063 30.6029 145.268 30.6029C145.473 30.6029 145.626 30.5796 145.753 30.533C145.88 30.4864 145.986 30.4346 146.071 30.3777C146.157 30.3207 146.224 30.2689 146.279 30.2223C146.333 30.1757 146.387 30.1524 146.442 30.1524C146.512 30.1524 146.564 30.1783 146.595 30.2301L146.823 30.5253C146.623 30.7712 146.375 30.9499 146.074 31.0612C145.773 31.1751 145.457 31.2321 145.125 31.2321C144.838 31.2321 144.571 31.1803 144.325 31.0741C144.078 30.968 143.863 30.8152 143.682 30.6133C143.501 30.4113 143.358 30.1654 143.254 29.8728C143.151 29.5802 143.099 29.2462 143.099 28.8708C143.099 28.5291 143.146 28.2132 143.241 27.9232C143.337 27.6332 143.475 27.3847 143.659 27.1724C143.843 26.9627 144.068 26.7996 144.338 26.6805C144.607 26.5614 144.916 26.5044 145.263 26.5044C145.584 26.5044 145.867 26.5562 146.115 26.6597C146.364 26.7633 146.582 26.9109 146.774 27.1025L146.561 27.3925L146.559 27.3899Z" fill="#03111E"/>
<path d="M149.056 31.2355C148.693 31.2355 148.413 31.1345 148.219 30.9326C148.025 30.7306 147.926 30.438 147.926 30.0574V27.2483H147.371C147.322 27.2483 147.283 27.2353 147.25 27.2043C147.216 27.1758 147.2 27.1318 147.2 27.0696V26.7486L147.955 26.6528L148.141 25.234C148.146 25.1874 148.167 25.1511 148.201 25.1226C148.234 25.0941 148.276 25.0786 148.328 25.0786H148.735V26.6606H150.051V27.2457H148.735V30.0005C148.735 30.1947 148.781 30.3371 148.875 30.4303C148.968 30.5235 149.09 30.5701 149.237 30.5701C149.323 30.5701 149.395 30.5597 149.458 30.5364C149.52 30.5131 149.574 30.4898 149.618 30.4613C149.662 30.4355 149.701 30.4096 149.735 30.3863C149.766 30.363 149.795 30.3526 149.818 30.3526C149.859 30.3526 149.898 30.3785 149.932 30.4303L150.168 30.816C150.028 30.9455 149.862 31.0491 149.665 31.1216C149.468 31.1966 149.266 31.2329 149.059 31.2329L149.056 31.2355Z" fill="#03111E"/>
<path d="M0 17L17.0157 34L19.8586 31.1598L21.8567 29.1636L19.0138 26.3233L17.0157 28.3169L5.68833 17L19.8586 2.84024L17.0157 0L0 17Z" fill="#0071EB"/>
<path d="M11.3621 17L28.3778 34L25.5427 31.1675L11.3647 17.0026L11.3621 17Z" fill="#0071EB"/>
<path d="M11.3621 17L28.3778 34L45.391 17L42.5585 14.1701L39.7234 11.3351L36.8857 8.50259L34.048 5.66753L31.2129 2.83506L28.3778 0L25.5401 2.83506L28.3778 5.66753L31.2129 8.50259L34.0506 11.3351L36.8857 14.1701L39.7182 17L34.0506 22.6649L31.2129 25.4974L29.233 27.4755L28.3934 28.3143L22.7076 22.6339L17.0504 16.9845L17.89 16.143L22.6895 11.3506L25.5272 14.1831L28.3441 17L23.5473 21.795L26.3901 24.6352L28.37 22.6572L31.2077 19.8221L34.0324 17L31.2077 14.1779L28.37 11.3428L25.5323 8.51036L22.6973 5.6753L11.3621 17Z" fill="#03111E"/>
<path d="M11.3621 17L25.5401 31.1649L28.3778 34L11.3621 17Z" fill="#0071EB"/>
</svg>
