<svg width="16" height="16" viewBox="0 0 16 16" fill="none" xmlns="http://www.w3.org/2000/svg">
<g clip-path="url(#clip0_37_21967)">
<path d="M9.38247 2.59046C9.87926 2.05222 10.1277 1.78309 10.3916 1.62611C11.0285 1.24734 11.8127 1.23556 12.4602 1.59504C12.7286 1.74403 12.9846 2.00558 13.4967 2.52867C14.0088 3.05176 14.2648 3.31331 14.4106 3.58745C14.7625 4.24891 14.751 5.05002 14.3802 5.70063C14.2265 5.97027 13.9631 6.22401 13.4362 6.7315L7.16708 12.7697C6.16858 13.7314 5.66933 14.2123 5.04537 14.456C4.42141 14.6997 3.73546 14.6818 2.36357 14.6459L2.17691 14.641C1.75927 14.6301 1.55044 14.6246 1.42905 14.4869C1.30766 14.3491 1.32424 14.1364 1.35738 13.7109L1.37538 13.4799C1.46867 12.2825 1.51531 11.6838 1.74913 11.1456C1.98296 10.6075 2.38629 10.1705 3.19295 9.2965L9.38247 2.59046Z" stroke="#03111E" stroke-linejoin="round"/>
<path d="M8.3131 3.02055L12.9798 7.68721L13.6869 6.98011L9.02021 2.31344L8.3131 3.02055Z" fill="#03111E"/>
<path d="M9.33333 14.667L14.6667 14.667" stroke="#03111E" stroke-linecap="round" stroke-linejoin="round"/>
</g>
<defs>
<clipPath id="clip0_37_21967">
<rect width="16" height="16" fill="white"/>
</clipPath>
</defs>
</svg>
