<svg width="16" height="16" viewBox="0 0 16 16" fill="none" xmlns="http://www.w3.org/2000/svg">
<g clip-path="url(#clip0_37_21958)">
<path d="M8.33 2.72021C8.33 2.44021 8.11 2.22021 7.83 2.22021C7.55 2.22021 7.33 2.44021 7.33 2.72021V4.20021L8.33 5.20021V2.72021Z" fill="#03111E"/>
<path d="M14.17 12.4C14.17 12.4 14.13 12.34 14.11 12.32L13.57 11.78L12.66 10.87L9.86 8.07004L9.15 7.36004L3.94 2.15004C3.94 2.15004 3.85 2.07004 3.79 2.06004C3.79 2.06004 3.79 2.05004 3.78 2.05004C3.6 1.96004 3.38 2.00004 3.23 2.15004C3.03 2.34004 3.03 2.66004 3.23 2.85004L7.33 6.95004V8.36004C7.17 8.17004 7.02 7.98004 6.92 7.85004C6.76 7.65004 6.62 7.47004 6.52 7.37004C6.33 7.17004 6.01 7.17004 5.82 7.36004C5.62 7.55004 5.61 7.87004 5.81 8.07004C5.89 8.15004 6 8.30004 6.13 8.47004C6.79 9.30004 7.29 9.89004 7.83 9.89004C8.28 9.89004 8.71 9.48004 9.23 8.85004L12.39 12.01C12.18 12.19 11.81 12.22 11.16 12.22H4.5C3.12 12.22 3 12.09 3 10.72C3 10.44 2.77 10.22 2.5 10.22C2.23 10.22 2 10.44 2 10.72C2 12.66 2.56 13.22 4.5 13.22H11.16C12.11 13.22 12.72 13.09 13.11 12.73L13.4 13.02C13.5 13.12 13.62 13.17 13.75 13.17C13.88 13.17 14.01 13.12 14.11 13.02C14.28 12.85 14.3 12.59 14.17 12.4ZM8.33 8.36004V7.95004L8.52 8.14004C8.45 8.21004 8.39 8.29004 8.33 8.36004Z" fill="#03111E"/>
</g>
<defs>
<clipPath id="clip0_37_21958">
<rect width="12.25" height="11.22" fill="white" transform="translate(2 2)"/>
</clipPath>
</defs>
</svg>
