<svg width="16" height="16" viewBox="0 0 16 16" fill="none" xmlns="http://www.w3.org/2000/svg">
<path d="M14.3626 7.36349C14.5653 7.6477 14.6667 7.78981 14.6667 8.00016C14.6667 8.21052 14.5653 8.35263 14.3626 8.63684C13.4519 9.91387 11.1261 12.6668 8 12.6668C4.87385 12.6668 2.54806 9.91387 1.63736 8.63684C1.43467 8.35263 1.33333 8.21052 1.33333 8.00016C1.33333 7.78981 1.43467 7.6477 1.63736 7.36349C2.54806 6.08646 4.87385 3.3335 8 3.3335C11.1261 3.3335 13.4519 6.08646 14.3626 7.36349Z" stroke="#03111E"/>
<path d="M10 8C10 6.89543 9.10457 6 8 6C6.89543 6 6 6.89543 6 8C6 9.10457 6.89543 10 8 10C9.10457 10 10 9.10457 10 8Z" stroke="#03111E"/>
</svg>
