<svg width="24" height="24" viewBox="0 0 24 24" fill="none" xmlns="http://www.w3.org/2000/svg">
<path d="M6.57757 15.4816L6.19386 14.8372V14.8372L6.57757 15.4816ZM17.4224 15.4816L17.8061 14.8372L17.8061 14.8372L17.4224 15.4816ZM3.71266 20.1966L3.19533 20.7396H3.19533L3.71266 20.1966ZM20.2873 20.1966L19.77 19.6535L20.2873 20.1966ZM6.96128 16.126C10.0425 14.2913 13.9575 14.2913 17.0387 16.126L17.8061 14.8372C14.2521 12.7209 9.74791 12.7209 6.19386 14.8372L6.96128 16.126ZM7.59087 22.75H16.4091V21.25H7.59087V22.75ZM4.23 19.6536C3.77937 19.2242 3.73427 18.9301 3.75377 18.7517C3.77833 18.5271 3.93184 18.2363 4.29197 17.8838C5.02893 17.1624 6.17253 16.5957 6.96128 16.126L6.19386 14.8372C5.56785 15.2099 4.14934 15.9244 3.24272 16.8118C2.78105 17.2637 2.3424 17.8592 2.26265 18.5888C2.17785 19.3646 2.51631 20.0927 3.19533 20.7396L4.23 19.6536ZM17.0387 16.126C17.8275 16.5957 18.9711 17.1624 19.708 17.8838C20.0682 18.2363 20.2217 18.5271 20.2462 18.7517C20.2657 18.9301 20.2206 19.2242 19.77 19.6535L20.8047 20.7396C21.4837 20.0927 21.8222 19.3646 21.7373 18.5888C21.6576 17.8592 21.2189 17.2637 20.7573 16.8118C19.8507 15.9244 18.4321 15.2099 17.8061 14.8372L17.0387 16.126ZM19.77 19.6535C18.7342 20.6404 17.6816 21.25 16.4091 21.25V22.75C18.2274 22.75 19.6332 21.8556 20.8047 20.7396L19.77 19.6535ZM3.19533 20.7396C4.36677 21.8556 5.77256 22.75 7.59087 22.75V21.25C6.31842 21.25 5.26584 20.6404 4.23 19.6536L3.19533 20.7396Z" fill="#03111E"/>
<path d="M16.5 6.5C16.5 8.98528 14.4853 11 12 11C9.51472 11 7.5 8.98528 7.5 6.5C7.5 4.01472 9.51472 2 12 2C14.4853 2 16.5 4.01472 16.5 6.5Z" stroke="#03111E" stroke-width="1.5"/>
</svg>
