<svg width="16" height="16" viewBox="0 0 16 16" fill="none" xmlns="http://www.w3.org/2000/svg">
<g clip-path="url(#clip0_155_6178)">
<path d="M2.97978 3.68681C2.78452 3.49154 2.78452 3.17496 2.97978 2.9797C3.17504 2.78444 3.49163 2.78444 3.68689 2.9797L2.97978 3.68681ZM13.0202 12.313C13.2155 12.5083 13.2155 12.8249 13.0202 13.0201C12.825 13.2154 12.5084 13.2154 12.3131 13.0201L13.0202 12.313ZM3.68689 2.9797L13.0202 12.313L12.3131 13.0201L2.97978 3.68681L3.68689 2.9797Z" fill="#03111E"/>
<path d="M14.6667 7.99984C14.6667 4.31794 11.6819 1.33317 8 1.33317C4.3181 1.33317 1.33333 4.31794 1.33333 7.99984C1.33333 11.6817 4.3181 14.6665 8 14.6665C11.6819 14.6665 14.6667 11.6817 14.6667 7.99984Z" stroke="#03111E"/>
</g>
<defs>
<clipPath id="clip0_155_6178">
<rect width="16" height="16" fill="white"/>
</clipPath>
</defs>
</svg>
