<svg width="16" height="16" viewBox="0 0 16 16" fill="none" xmlns="http://www.w3.org/2000/svg">
<path d="M13.1548 8.1035L13.6503 8.03679L13.1548 8.1035ZM10.9602 6.06606L10.9831 5.56659L10.9602 6.06606ZM10.9602 14.6006L10.9831 15.1001L10.9602 14.6006ZM13.1548 12.5632L12.6592 12.4964L13.1548 12.5632ZM5.03973 6.06606L5.06269 6.56553L5.03973 6.06606ZM2.84517 8.1035L3.34069 8.17022L2.84517 8.1035ZM5.03973 14.6006L5.06269 14.1011L5.03973 14.6006ZM2.84517 12.5632L3.34069 12.4964L2.84517 12.5632ZM7.99996 14.1667C6.95092 14.1667 5.99923 14.1442 5.06269 14.1011L5.01677 15.1001C5.96905 15.1439 6.93607 15.1667 7.99996 15.1667V14.1667ZM10.9372 14.1011C10.0007 14.1442 9.049 14.1667 7.99996 14.1667V15.1667C9.06385 15.1667 10.0309 15.1439 10.9831 15.1001L10.9372 14.1011ZM13.6503 12.6299C13.7491 11.8963 13.8333 11.1254 13.8333 10.3333H12.8333C12.8333 11.0581 12.7561 11.7766 12.6592 12.4964L13.6503 12.6299ZM13.8333 10.3333C13.8333 9.54123 13.7491 8.77038 13.6503 8.03679L12.6592 8.17022C12.7561 8.89004 12.8333 9.60861 12.8333 10.3333H13.8333ZM7.99996 6.5C9.049 6.5 10.0007 6.52248 10.9372 6.56554L10.9831 5.56659C10.0309 5.52281 9.06385 5.5 7.99996 5.5V6.5ZM5.06269 6.56553C5.99923 6.52248 6.95092 6.5 7.99996 6.5V5.5C6.93607 5.5 5.96905 5.52281 5.01677 5.56659L5.06269 6.56553ZM2.34964 8.03679C2.25087 8.77037 2.16662 9.54123 2.16662 10.3333H3.16662C3.16662 9.60861 3.24378 8.89005 3.34069 8.17022L2.34964 8.03679ZM2.16662 10.3333C2.16662 11.1254 2.25087 11.8963 2.34964 12.6299L3.34069 12.4964C3.24378 11.7766 3.16662 11.0581 3.16662 10.3333H2.16662ZM13.6503 8.03679C13.4692 6.69211 12.3552 5.62967 10.9831 5.56659L10.9372 6.56554C11.8099 6.60565 12.5404 7.28792 12.6592 8.17022L13.6503 8.03679ZM10.9831 15.1001C12.3552 15.037 13.4692 13.9746 13.6503 12.6299L12.6592 12.4964C12.5404 13.3788 11.8099 14.061 10.9372 14.1011L10.9831 15.1001ZM5.01677 5.56659C3.64473 5.62967 2.53068 6.69211 2.34964 8.03679L3.34069 8.17022C3.45949 7.28792 4.19003 6.60565 5.06269 6.56553L5.01677 5.56659ZM5.06269 14.1011C4.19003 14.061 3.45949 13.3788 3.34069 12.4964L2.34964 12.6299C2.53068 13.9746 3.64473 15.037 5.01677 15.1001L5.06269 14.1011Z" fill="#03111E"/>
<path d="M5 5.99967V4.33301C5 2.67615 6.34315 1.33301 8 1.33301C9.65685 1.33301 11 2.67615 11 4.33301V5.99967" stroke="#03111E" stroke-linecap="round" stroke-linejoin="round"/>
<path d="M7.99731 10.333H8.0033" stroke="#03111E" stroke-width="1.5" stroke-linecap="round" stroke-linejoin="round"/>
</svg>
