<svg width="16" height="16" viewBox="0 0 16 16" fill="none" xmlns="http://www.w3.org/2000/svg">
<path d="M4.66671 4.66667H11.1667C12.5712 4.66667 13.2734 4.66667 13.7778 5.00373C13.9962 5.14964 14.1837 5.33715 14.3296 5.55553C14.6667 6.05997 14.6667 6.7622 14.6667 8.16667C14.6667 8.33961 14.6667 8.50616 14.6665 8.66667M8.00004 4.66667L7.57775 3.82208C7.2279 3.12238 6.90819 2.41808 6.13288 2.12734C5.7933 2 5.40539 2 4.62956 2C3.41857 2 2.81308 2 2.35875 2.25354C2.03488 2.43428 1.76765 2.70151 1.58692 3.02538C1.33337 3.47971 1.33337 4.0852 1.33337 5.29618V7.33333C1.33337 10.476 1.33337 12.0474 2.30968 13.0237C3.21437 13.9284 4.63 13.9947 7.33337 13.9996" stroke="#03111E" stroke-linecap="round"/>
<path d="M13.0001 10.6665C13.3372 10.9942 14.6667 11.8664 14.6667 12.3332M13.0001 13.9998C13.3372 13.6722 14.6667 12.8 14.6667 12.3332M14.6667 12.3332L9.33341 12.3332" stroke="#03111E" stroke-linecap="round" stroke-linejoin="round"/>
</svg>
