<svg width="16" height="16" viewBox="0 0 16 16" fill="none" xmlns="http://www.w3.org/2000/svg">
<path d="M13 3.6665L12.5868 10.3499C12.4813 12.0575 12.4285 12.9113 12.0005 13.5251C11.7889 13.8286 11.5164 14.0847 11.2005 14.2772C10.5614 14.6665 9.70599 14.6665 7.99516 14.6665C6.28208 14.6665 5.42554 14.6665 4.78604 14.2765C4.46987 14.0836 4.19733 13.827 3.98579 13.5231C3.55792 12.9082 3.5063 12.0532 3.40307 10.3433L3 3.6665" stroke="#03111E" stroke-linecap="round"/>
<path d="M2 3.66659H14M10.7038 3.66659L10.2487 2.72774C9.94638 2.10409 9.79522 1.79227 9.53448 1.59779C9.47664 1.55465 9.4154 1.51628 9.35135 1.48305C9.06261 1.33325 8.71608 1.33325 8.02302 1.33325C7.31255 1.33325 6.95732 1.33325 6.66379 1.48933C6.59873 1.52392 6.53666 1.56385 6.4782 1.6087C6.21443 1.81105 6.06709 2.13429 5.7724 2.78076L5.36862 3.66659" stroke="#03111E" stroke-linecap="round"/>
<path d="M6.33331 11L6.33331 7" stroke="#03111E" stroke-linecap="round"/>
<path d="M9.16669 11C9.16669 11.2761 9.39054 11.5 9.66669 11.5C9.94283 11.5 10.1667 11.2761 10.1667 11H9.16669ZM10.1667 7C10.1667 6.72386 9.94283 6.5 9.66669 6.5C9.39054 6.5 9.16669 6.72386 9.16669 7L10.1667 7ZM10.1667 11L10.1667 7L9.16669 7L9.16669 11H10.1667Z" fill="#03111E"/>
</svg>
