<svg width="16" height="16" viewBox="0 0 16 16" fill="none" xmlns="http://www.w3.org/2000/svg">
<path d="M7.71358 13.9999H7.00466C4.33116 13.9999 2.99441 13.9999 2.16386 12.9694C1.33331 11.9388 1.33331 10.2802 1.33331 6.96288V4.81255C1.33331 3.5343 1.33331 2.89517 1.549 2.41559C1.70276 2.07374 1.93009 1.79166 2.2056 1.60088C2.59211 1.33325 3.1072 1.33325 4.13738 1.33325C4.79739 1.33325 5.12739 1.33325 5.41626 1.46766C6.07583 1.77456 6.3478 2.51799 6.64542 3.25656L7.00466 4.14807M4.6694 4.14807H10.3658C11.5606 4.14807 12.1579 4.14807 12.5871 4.50385C12.7729 4.65788 12.9324 4.85579 13.0565 5.08631C13.2498 5.44528 13.3128 5.89914 13.3333 6.61103" stroke="#03111E" stroke-linecap="round"/>
<path d="M3.06373 8.38351C3.35129 7.61741 3.49506 7.23436 3.77565 6.99381C4.22858 6.60552 4.87977 6.67061 5.4378 6.67061H11.5016C13.1528 6.67061 13.9784 6.67061 14.3904 7.20189C15.0976 8.11391 14.2633 9.59329 13.9272 10.4887C13.3247 12.0938 13.0235 12.8964 12.4234 13.3859C11.5092 14.1318 10.1793 13.9889 9.07596 13.9889H6.62483C4.2628 13.9889 3.08179 13.9889 2.46762 13.2576C1.33383 11.9076 2.55381 9.74205 3.06373 8.38351Z" stroke="#03111E" stroke-linecap="round"/>
</svg>
