<svg width="16" height="16" viewBox="0 0 16 16" fill="none" xmlns="http://www.w3.org/2000/svg">
<path d="M12.336 9.66671L14.0987 7.92837C15.0775 6.9471 14.7579 5.95239 13.3995 5.72388L11.2754 5.36766C10.9158 5.30718 10.4896 4.99129 10.3298 4.66196L9.15788 2.29616C8.5253 1.01245 7.48654 1.01245 6.8473 2.29616L6.3335 3.33337" stroke="#03111E" stroke-linecap="round" stroke-linejoin="round"/>
<path d="M4.8639 5.33337C4.81795 5.3485 4.77248 5.3601 4.72817 5.36768L2.60022 5.72389C1.23939 5.95241 0.925871 6.94712 1.89979 7.92838L3.55413 9.59519C3.8343 9.87747 3.98772 10.4219 3.901 10.8117L3.42738 12.875C3.05382 14.5015 3.92101 15.14 5.34854 14.2865L7.34308 13.0968C7.70997 12.8818 8.30366 12.8818 8.66388 13.0968L10.6584 14.2865C12.0926 15.14 12.9531 14.5082 12.5796 12.875L12.5318 12.6667" stroke="#03111E" stroke-linecap="round" stroke-linejoin="round"/>
<path d="M1.3335 1.33337L14.6668 14.6667" stroke="#03111E" stroke-linecap="round"/>
</svg>
