<svg width="16" height="16" viewBox="0 0 16 16" fill="none" xmlns="http://www.w3.org/2000/svg">
<g clip-path="url(#clip0_204_2396)">
<path d="M9.38245 2.59022C9.87924 2.05197 10.1276 1.78285 10.3916 1.62587C11.0285 1.24709 11.8127 1.23531 12.4602 1.5948C12.7286 1.74379 12.9846 2.00533 13.4967 2.52843C14.0087 3.05152 14.2648 3.31307 14.4106 3.5872C14.7625 4.24866 14.751 5.04978 14.3802 5.70039C14.2265 5.97002 13.9631 6.22377 13.4362 6.73126L7.16706 12.7694C6.16856 13.7312 5.66931 14.212 5.04535 14.4557C4.42139 14.6995 3.73545 14.6815 2.36356 14.6456L2.1769 14.6408C1.75925 14.6298 1.55043 14.6244 1.42904 14.4866C1.30765 14.3489 1.32422 14.1361 1.35737 13.7107L1.37536 13.4797C1.46865 12.2823 1.5153 11.6836 1.74912 11.1454C1.98294 10.6072 2.38627 10.1702 3.19293 9.29625L9.38245 2.59022Z" stroke="#03111E" stroke-linejoin="round"/>
<path d="M8.31307 3.02006L12.9797 7.68672L13.6868 6.97962L9.02018 2.31295L8.31307 3.02006Z" fill="#03111E"/>
<path d="M9.33331 14.6665L14.6666 14.6665" stroke="#03111E" stroke-linecap="round" stroke-linejoin="round"/>
</g>
<defs>
<clipPath id="clip0_204_2396">
<rect width="16" height="16" fill="white"/>
</clipPath>
</defs>
</svg>
