<svg width="16" height="16" viewBox="0 0 16 16" fill="none" xmlns="http://www.w3.org/2000/svg">
<path d="M2.33331 6.66659C2.33331 4.15243 2.33331 2.89535 3.16318 2.1143C3.99304 1.33325 5.32869 1.33325 7.99998 1.33325H8.51513C10.6893 1.33325 11.7763 1.33325 12.5313 1.86514C12.7476 2.01754 12.9396 2.19827 13.1015 2.40184C13.6666 3.11237 13.6666 4.13549 13.6666 6.18174V7.87871C13.6666 9.85415 13.6666 10.8419 13.354 11.6308C12.8514 12.899 11.7886 13.8993 10.4411 14.3724C9.60289 14.6666 8.55344 14.6666 6.45453 14.6666C5.25515 14.6666 4.65546 14.6666 4.1765 14.4985C3.40651 14.2282 2.79915 13.6565 2.51196 12.9318C2.33331 12.481 2.33331 11.9166 2.33331 10.7878V6.66659Z" stroke="#03111E" stroke-linejoin="round"/>
<path d="M13.6667 8C13.6667 9.2273 12.6717 10.2222 11.4444 10.2222C11.0006 10.2222 10.4773 10.1444 10.0458 10.2601C9.66232 10.3628 9.36282 10.6623 9.26008 11.0458C9.14445 11.4773 9.22222 12.0006 9.22222 12.4444C9.22222 13.6717 8.2273 14.6667 7 14.6667" stroke="#03111E" stroke-linecap="round" stroke-linejoin="round"/>
<path d="M5.33331 4.6665H9.99998" stroke="#03111E" stroke-linecap="round" stroke-linejoin="round"/>
<path d="M5.33331 7.33325H7.33331" stroke="#03111E" stroke-linecap="round" stroke-linejoin="round"/>
</svg>
