<svg width="16" height="16" viewBox="0 0 16 16" fill="none" xmlns="http://www.w3.org/2000/svg">
<path d="M3.45336 10.1975L3.20052 9.76615V9.76615L3.45336 10.1975ZM9.87994 10.1975L10.1328 9.76615V9.76615L9.87994 10.1975ZM1.75563 12.9479L1.4136 13.3126H1.4136L1.75563 12.9479ZM11.5777 12.9479L11.2356 12.5832L11.5777 12.9479ZM3.7062 10.6289C5.51605 9.56805 7.81724 9.56805 9.6271 10.6289L10.1328 9.76615C8.01064 8.52229 5.32265 8.52229 3.20052 9.76615L3.7062 10.6289ZM4.05383 14.4999H9.27946V13.4999H4.05383V14.4999ZM2.09766 12.5832C1.83912 12.3407 1.82673 12.1884 1.83512 12.1127C1.84709 12.005 1.92496 11.8485 2.13496 11.6462C2.5652 11.2317 3.23271 10.9064 3.7062 10.6289L3.20052 9.76615C2.83562 9.98003 1.98485 10.4022 1.44111 10.9261C1.16412 11.193 0.891082 11.5535 0.841233 12.0024C0.787819 12.4834 1.00272 12.9273 1.4136 13.3126L2.09766 12.5832ZM9.6271 10.6289C10.1006 10.9064 10.7681 11.2317 11.1983 11.6462C11.4083 11.8485 11.4862 12.005 11.4982 12.1127C11.5066 12.1884 11.4942 12.3407 11.2356 12.5832L11.9197 13.3126C12.3306 12.9273 12.5455 12.4834 12.4921 12.0024C12.4422 11.5535 12.1692 11.193 11.8922 10.9261C11.3484 10.4022 10.4977 9.98003 10.1328 9.76615L9.6271 10.6289ZM11.2356 12.5832C10.6277 13.1534 10.0161 13.4999 9.27946 13.4999V14.4999C10.3744 14.4999 11.2196 13.9692 11.9197 13.3126L11.2356 12.5832ZM1.4136 13.3126C2.11365 13.9692 2.95893 14.4999 4.05383 14.4999V13.4999C3.31716 13.4999 2.70563 13.1534 2.09766 12.5832L1.4136 13.3126Z" fill="#03111E"/>
<path d="M9.33333 4.66667C9.33333 6.13943 8.13943 7.33333 6.66667 7.33333C5.19391 7.33333 4 6.13943 4 4.66667C4 3.19391 5.19391 2 6.66667 2C8.13943 2 9.33333 3.19391 9.33333 4.66667Z" stroke="#03111E"/>
<path d="M13.5 2.66675C13.5 2.39061 13.2761 2.16675 13 2.16675C12.7238 2.16675 12.5 2.39061 12.5 2.66675H13.5ZM12.5 6.00008C12.5 6.27622 12.7238 6.50008 13 6.50008C13.2761 6.50008 13.5 6.27622 13.5 6.00008H12.5ZM14.6666 4.83341C14.9428 4.83341 15.1666 4.60956 15.1666 4.33341C15.1666 4.05727 14.9428 3.83341 14.6666 3.83341L14.6666 4.83341ZM11.3333 3.83341C11.0572 3.83341 10.8333 4.05727 10.8333 4.33341C10.8333 4.60956 11.0572 4.83341 11.3333 4.83341L11.3333 3.83341ZM12.5 2.66675V6.00008H13.5V2.66675H12.5ZM14.6666 3.83341L11.3333 3.83341L11.3333 4.83341H14.6666L14.6666 3.83341Z" fill="#03111E"/>
</svg>
