<svg width="16" height="16" viewBox="0 0 16 16" fill="none" xmlns="http://www.w3.org/2000/svg">
<g clip-path="url(#clip0_37_26252)">
<path d="M9.1518 2.29628L10.325 4.66208C10.485 4.99141 10.9116 5.3073 11.2716 5.36779L13.398 5.724C14.7578 5.95251 15.0778 6.94722 14.0979 7.92849L12.4448 9.5953C12.1648 9.87759 12.0115 10.422 12.0981 10.8118L12.5714 12.8752C12.9447 14.5084 12.0848 15.1401 10.6516 14.2866L8.65852 13.097C8.29856 12.8819 7.70529 12.8819 7.33867 13.097L5.34555 14.2866C3.91904 15.1401 3.05247 14.5016 3.42576 12.8752L3.89905 10.8118C3.9857 10.422 3.83239 9.87759 3.55242 9.5953L1.89927 7.92849C0.926041 6.94722 1.23934 5.95251 2.59919 5.724L4.72562 5.36779C5.07892 5.3073 5.50553 4.99141 5.66552 4.66208L6.83872 2.29628C7.47865 1.01257 8.51854 1.01257 9.1518 2.29628Z" stroke="#03111E" stroke-linecap="round" stroke-linejoin="round"/>
</g>
<defs>
<clipPath id="clip0_37_26252">
<rect width="16" height="16" fill="white"/>
</clipPath>
</defs>
</svg>
