<svg width="20" height="21" viewBox="0 0 20 21" fill="none" xmlns="http://www.w3.org/2000/svg">
<path d="M11.2503 11.2333V9.98332C11.2503 8.81293 11.2503 8.22774 10.9694 7.80737C10.8478 7.62538 10.6916 7.46913 10.5096 7.34753C10.1424 7.10216 9.64937 7.07114 8.75033 7.06722C8.62022 7.06665 8.48162 7.06665 8.33366 7.06665C7.16327 7.06665 6.57808 7.06665 6.15771 7.34753C5.97572 7.46913 5.81947 7.62538 5.69788 7.80737C5.41699 8.22774 5.41699 8.81293 5.41699 9.98332V14.9833C5.41699 16.1537 5.41699 16.7389 5.69788 17.1593C5.81947 17.3413 5.97572 17.4975 6.15771 17.6191C6.57808 17.9 7.16327 17.9 8.33366 17.9C9.50404 17.9 10.0892 17.9 10.5096 17.6191C10.6916 17.4975 10.8478 17.3413 10.9694 17.1593C11.1256 16.9256 11.1949 16.641 11.2257 16.2333" stroke="white" stroke-width="1.5" stroke-linecap="round"/>
<path d="M8.75065 9.56649V10.8165C8.75065 11.9869 8.75065 12.5721 9.03154 12.9924C9.15313 13.1744 9.30938 13.3307 9.49137 13.4523C9.8586 13.6976 10.3516 13.7287 11.2507 13.7326C11.3808 13.7332 11.5194 13.7332 11.6673 13.7332C12.8377 13.7332 13.4229 13.7332 13.8433 13.4523C14.0253 13.3307 14.1815 13.1744 14.3031 12.9924C14.584 12.5721 14.584 11.9869 14.584 10.8165V5.81649C14.584 4.6461 14.584 4.06091 14.3031 3.64054C14.1815 3.45855 14.0253 3.3023 13.8433 3.18071C13.4229 2.89982 12.8377 2.89982 11.6673 2.89982C10.4969 2.89982 9.91174 2.89982 9.49137 3.18071C9.30938 3.3023 9.15313 3.45855 9.03154 3.64054C8.87541 3.8742 8.80606 4.15879 8.77526 4.56649" stroke="white" stroke-width="1.5" stroke-linecap="round"/>
</svg>
