<svg width="20" height="21" viewBox="0 0 20 21" fill="none" xmlns="http://www.w3.org/2000/svg">
<path d="M4.31705 13.147C3.26907 13.7612 0.521336 15.0155 2.19489 16.585C3.01241 17.3517 3.92291 17.9 5.06764 17.9H11.5997C12.7444 17.9 13.6549 17.3517 14.4724 16.585C16.146 15.0155 13.3982 13.7612 12.3503 13.147C9.89278 11.7065 6.77454 11.7065 4.31705 13.147Z" stroke="white" stroke-width="1.5" stroke-linecap="round" stroke-linejoin="round"/>
<path d="M11.6667 6.23324C11.6667 8.07419 10.1743 9.56657 8.33333 9.56657C6.49238 9.56657 5 8.07419 5 6.23324C5 4.39229 6.49238 2.8999 8.33333 2.8999C10.1743 2.8999 11.6667 4.39229 11.6667 6.23324Z" stroke="white" stroke-width="1.5"/>
<path d="M16.3524 4.20452C16.5387 4.00267 16.6319 3.90175 16.7308 3.84289C16.9697 3.70084 17.2638 3.69643 17.5066 3.83123C17.6072 3.8871 17.7032 3.98518 17.8952 4.18134C18.0873 4.3775 18.1833 4.47559 18.238 4.57839C18.3699 4.82643 18.3656 5.12685 18.2266 5.37083C18.1689 5.47194 18.0701 5.5671 17.8726 5.75741L15.5216 8.02173C15.1472 8.38237 14.96 8.5627 14.726 8.65409C14.492 8.74548 14.2348 8.73875 13.7203 8.7253L13.6503 8.72347C13.4937 8.71937 13.4154 8.71733 13.3699 8.66567C13.3244 8.61401 13.3306 8.53424 13.343 8.3747L13.3498 8.28807C13.3847 7.83904 13.4022 7.61453 13.4899 7.41271C13.5776 7.21089 13.7288 7.04702 14.0313 6.71928L16.3524 4.20452Z" stroke="white" stroke-width="1.5" stroke-linejoin="round"/>
</svg>
